<svg xmlns="http://www.w3.org/2000/svg" xmlns:xlink="http://www.w3.org/1999/xlink" width="295" height="345.936" viewBox="0 0 295 345.936">
  <defs>
    <clipPath id="clip-path">
      <rect id="Rect치ngulo_43588" data-name="Rect치ngulo 43588" width="179.988" height="180.519" fill="none"/>
    </clipPath>
  </defs>
  <g id="Grupo_121683" data-name="Grupo 121683" transform="translate(-495.478 -1725)">
    <rect id="Rect치ngulo_43576" data-name="Rect치ngulo 43576" width="295" height="345.936" rx="21" transform="translate(495.478 1725)" fill="#fee49a"/>
    <g id="Grupo_121558" data-name="Grupo 121558" transform="translate(552 1977.76)">
      <g id="Grupo_20708" data-name="Grupo 20708">
        <path id="Trazado_171131" data-name="Trazado 171131" d="M52.644,16.609H48.416L47.678,19h-3.3L49.075,6.2h2.9L56.7,19H53.391Zm-3.489-2.382h2.751l-1.38-4.438ZM59.8,9.49l.1,1.116A3.225,3.225,0,0,1,62.61,9.314a2.713,2.713,0,0,1,2.219.888,4.226,4.226,0,0,1,.76,2.672V19H62.619V13a1.6,1.6,0,0,0-.29-1.059,1.342,1.342,0,0,0-1.055-.338,1.413,1.413,0,0,0-1.292.686V19H57.021V9.49ZM72.586,19a3.344,3.344,0,0,1-.281-.853,2.754,2.754,0,0,1-2.285,1.028,3.374,3.374,0,0,1-2.285-.813,2.588,2.588,0,0,1-.94-2.043,2.66,2.66,0,0,1,1.143-2.338,5.821,5.821,0,0,1,3.322-.791h.914v-.5q0-1.316-1.134-1.316a.927.927,0,0,0-1.055,1.042H67.022A2.655,2.655,0,0,1,68.2,10.175a4.931,4.931,0,0,1,2.993-.86,4.323,4.323,0,0,1,2.874.888,3.086,3.086,0,0,1,1.081,2.435v4.21a4.311,4.311,0,0,0,.4,2V19Zm-1.854-1.934a1.652,1.652,0,0,0,.918-.237,1.487,1.487,0,0,0,.523-.536V14.772h-.861q-1.547,0-1.547,1.389a.848.848,0,0,0,.272.655A.986.986,0,0,0,70.731,17.066ZM71.47,5.5H74.6L72.155,8.26l-2.417,0ZM79.907,19H76.937V5.5h2.971Zm4.948,0H81.885V9.49h2.971ZM81.709,7.038A1.322,1.322,0,0,1,82.166,6a1.943,1.943,0,0,1,2.373,0A1.322,1.322,0,0,1,85,7.038a1.322,1.322,0,0,1-.457,1.037,1.943,1.943,0,0,1-2.373,0A1.322,1.322,0,0,1,81.709,7.038Zm9.949,9.29a.684.684,0,0,0-.4-.606,6.016,6.016,0,0,0-1.5-.475,6.853,6.853,0,0,1-1.828-.646,3.062,3.062,0,0,1-1.1-.971,2.319,2.319,0,0,1-.378-1.31,2.628,2.628,0,0,1,1.081-2.158,4.453,4.453,0,0,1,2.83-.848,4.934,4.934,0,0,1,3.023.853,2.666,2.666,0,0,1,1.143,2.241H91.562q0-1.143-1.2-1.143a1.194,1.194,0,0,0-.782.259.8.8,0,0,0-.316.646.737.737,0,0,0,.387.642,3.654,3.654,0,0,0,1.235.4,10.671,10.671,0,0,1,1.49.378,2.706,2.706,0,0,1,2.145,2.646,2.491,2.491,0,0,1-1.156,2.118,5.068,5.068,0,0,1-2.993.817,5.172,5.172,0,0,1-2.18-.439,3.645,3.645,0,0,1-1.494-1.2,2.707,2.707,0,0,1-.536-1.591h2.769a1.145,1.145,0,0,0,.439.962,1.808,1.808,0,0,0,1.081.3,1.422,1.422,0,0,0,.91-.246A.787.787,0,0,0,91.658,16.328ZM99.023,19H96.053V9.49h2.971ZM95.877,7.038A1.322,1.322,0,0,1,96.334,6a1.943,1.943,0,0,1,2.373,0,1.322,1.322,0,0,1,.457,1.037,1.322,1.322,0,0,1-.457,1.037,1.943,1.943,0,0,1-2.373,0A1.322,1.322,0,0,1,95.877,7.038Zm9.949,9.29a.684.684,0,0,0-.4-.606,6.016,6.016,0,0,0-1.5-.475A6.853,6.853,0,0,1,102.1,14.6a3.062,3.062,0,0,1-1.1-.971,2.319,2.319,0,0,1-.378-1.31,2.628,2.628,0,0,1,1.081-2.158,4.453,4.453,0,0,1,2.83-.848,4.934,4.934,0,0,1,3.023.853,2.666,2.666,0,0,1,1.143,2.241h-2.971q0-1.143-1.2-1.143a1.194,1.194,0,0,0-.782.259.8.8,0,0,0-.316.646.737.737,0,0,0,.387.642,3.654,3.654,0,0,0,1.235.4,10.671,10.671,0,0,1,1.49.378,2.706,2.706,0,0,1,2.145,2.646,2.491,2.491,0,0,1-1.156,2.118,5.068,5.068,0,0,1-2.993.817,5.172,5.172,0,0,1-2.18-.439,3.645,3.645,0,0,1-1.494-1.2,2.707,2.707,0,0,1-.536-1.591h2.769a1.145,1.145,0,0,0,.439.962,1.808,1.808,0,0,0,1.081.3,1.422,1.422,0,0,0,.91-.246A.787.787,0,0,0,105.826,16.328Zm8.35-2.153a5.809,5.809,0,0,1,.976-3.56,3.211,3.211,0,0,1,2.725-1.3,2.731,2.731,0,0,1,2.145,1V5.5h2.971V19h-2.663l-.149-1.02a2.8,2.8,0,0,1-2.32,1.2,3.205,3.205,0,0,1-2.689-1.3A5.993,5.993,0,0,1,114.176,14.175Zm2.962.185q0,2.531,1.477,2.531a1.458,1.458,0,0,0,1.406-.826V12.443a1.419,1.419,0,0,0-1.389-.844q-1.371,0-1.485,2.215Zm12.138,4.816a4.889,4.889,0,0,1-3.542-1.305,4.507,4.507,0,0,1-1.354-3.4v-.246a5.84,5.84,0,0,1,.541-2.575A3.955,3.955,0,0,1,126.5,9.925a4.763,4.763,0,0,1,2.461-.611,4.117,4.117,0,0,1,3.164,1.244,4.887,4.887,0,0,1,1.16,3.467v1.151h-5.889a2.135,2.135,0,0,0,.694,1.257,2.066,2.066,0,0,0,1.389.457,2.662,2.662,0,0,0,2.2-.984l1.354,1.6a3.784,3.784,0,0,1-1.569,1.217A5.3,5.3,0,0,1,129.275,19.176Zm-.334-7.576q-1.3,0-1.547,1.723h2.988v-.229a1.467,1.467,0,0,0-.36-1.1A1.434,1.434,0,0,0,128.941,11.6ZM137.6,19h-2.971V5.5H137.6ZM31.313,37.171l-.976-.07a1.752,1.752,0,0,0-1.793.879V44H25.582V34.49h2.777l.1,1.222a2.294,2.294,0,0,1,2.083-1.4,2.888,2.888,0,0,1,.826.105ZM35.5,44H32.534V34.49H35.5ZM32.358,32.038A1.322,1.322,0,0,1,32.815,31a1.943,1.943,0,0,1,2.373,0,1.405,1.405,0,0,1,0,2.074,1.943,1.943,0,0,1-2.373,0A1.322,1.322,0,0,1,32.358,32.038ZM41.93,44.176a4.889,4.889,0,0,1-3.542-1.305,4.507,4.507,0,0,1-1.354-3.4v-.246a5.84,5.84,0,0,1,.541-2.575,3.955,3.955,0,0,1,1.578-1.727,4.763,4.763,0,0,1,2.461-.611,4.117,4.117,0,0,1,3.164,1.244,4.887,4.887,0,0,1,1.16,3.467v1.151H40.049a2.135,2.135,0,0,0,.694,1.257,2.066,2.066,0,0,0,1.389.457,2.662,2.662,0,0,0,2.2-.984l1.354,1.6a3.784,3.784,0,0,1-1.569,1.217A5.3,5.3,0,0,1,41.93,44.176ZM41.6,36.6q-1.3,0-1.547,1.723h2.988v-.229a1.467,1.467,0,0,0-.36-1.1A1.434,1.434,0,0,0,41.6,36.6Zm10.512,4.729a.684.684,0,0,0-.4-.606,6.016,6.016,0,0,0-1.5-.475,6.853,6.853,0,0,1-1.828-.646,3.062,3.062,0,0,1-1.1-.971,2.319,2.319,0,0,1-.378-1.31,2.628,2.628,0,0,1,1.081-2.158,4.453,4.453,0,0,1,2.83-.848,4.934,4.934,0,0,1,3.023.853,2.666,2.666,0,0,1,1.143,2.241H52.011q0-1.143-1.2-1.143a1.194,1.194,0,0,0-.782.259.8.8,0,0,0-.316.646.737.737,0,0,0,.387.642,3.654,3.654,0,0,0,1.235.4,10.671,10.671,0,0,1,1.49.378,2.706,2.706,0,0,1,2.145,2.646,2.491,2.491,0,0,1-1.156,2.118,5.068,5.068,0,0,1-2.993.817,5.172,5.172,0,0,1-2.18-.439,3.645,3.645,0,0,1-1.494-1.2,2.707,2.707,0,0,1-.536-1.591h2.769a1.145,1.145,0,0,0,.439.962,1.808,1.808,0,0,0,1.081.3,1.422,1.422,0,0,0,.91-.246A.787.787,0,0,0,52.107,41.328ZM56,39.175a6.421,6.421,0,0,1,.475-2.549,3.821,3.821,0,0,1,1.362-1.709,3.591,3.591,0,0,1,2.065-.6,2.855,2.855,0,0,1,2.32,1l.105-.826h2.689V43.64a4.009,4.009,0,0,1-.584,2.184,3.75,3.75,0,0,1-1.692,1.424,6.219,6.219,0,0,1-2.566.5,5.365,5.365,0,0,1-2.026-.4,3.657,3.657,0,0,1-1.5-1.028l1.239-1.74a2.716,2.716,0,0,0,2.18.976,1.764,1.764,0,0,0,1.969-2.021v-.3a2.781,2.781,0,0,1-2.153.94,3.437,3.437,0,0,1-2.812-1.332A5.517,5.517,0,0,1,56,39.28Zm2.971.185a3.383,3.383,0,0,0,.439,1.85,1.387,1.387,0,0,0,1.23.681,1.573,1.573,0,0,0,1.4-.642v-4a1.534,1.534,0,0,0-1.38-.65,1.4,1.4,0,0,0-1.239.708A3.858,3.858,0,0,0,58.972,39.359Zm7.356-.2a5.613,5.613,0,0,1,.554-2.536,3.96,3.96,0,0,1,1.591-1.709,4.791,4.791,0,0,1,2.435-.6,4.373,4.373,0,0,1,3.366,1.323,5.076,5.076,0,0,1,1.23,3.6v.105a4.925,4.925,0,0,1-1.235,3.529,4.384,4.384,0,0,1-3.344,1.305,4.434,4.434,0,0,1-3.261-1.217,4.761,4.761,0,0,1-1.327-3.3Zm2.962.185a3.538,3.538,0,0,0,.413,1.934,1.376,1.376,0,0,0,1.222.615q1.582,0,1.617-2.435v-.3q0-2.558-1.635-2.558-1.485,0-1.608,2.206ZM84.416,44H81.445V34.49h2.971ZM81.27,32.038A1.322,1.322,0,0,1,81.727,31,1.943,1.943,0,0,1,84.1,31a1.405,1.405,0,0,1,0,2.074,1.943,1.943,0,0,1-2.373,0A1.322,1.322,0,0,1,81.27,32.038Zm7.69,2.452.1,1.116a3.225,3.225,0,0,1,2.716-1.292,2.713,2.713,0,0,1,2.219.888,4.226,4.226,0,0,1,.76,2.672V44H91.781V38a1.6,1.6,0,0,0-.29-1.059,1.342,1.342,0,0,0-1.055-.338,1.413,1.413,0,0,0-1.292.686V44H86.183V34.49Zm10.327,1.02a3.251,3.251,0,0,1,4.8-.264A4.186,4.186,0,0,1,104.9,38v6h-2.971V38.067a1.674,1.674,0,0,0-.308-1.112,1.322,1.322,0,0,0-1.046-.356,1.424,1.424,0,0,0-1.292.58V44H96.325V30.5h2.962Zm11.865,8.666a4.889,4.889,0,0,1-3.542-1.305,4.507,4.507,0,0,1-1.354-3.4v-.246a5.84,5.84,0,0,1,.541-2.575,3.955,3.955,0,0,1,1.578-1.727,4.763,4.763,0,0,1,2.461-.611A4.117,4.117,0,0,1,114,35.558a4.887,4.887,0,0,1,1.16,3.467v1.151h-5.889a2.135,2.135,0,0,0,.694,1.257,2.066,2.066,0,0,0,1.389.457,2.662,2.662,0,0,0,2.2-.984l1.354,1.6a3.784,3.784,0,0,1-1.569,1.217A5.3,5.3,0,0,1,111.152,44.176Zm-.334-7.576q-1.3,0-1.547,1.723h2.988v-.229a1.467,1.467,0,0,0-.36-1.1A1.434,1.434,0,0,0,110.818,36.6Zm11.285.571-.976-.07a1.752,1.752,0,0,0-1.793.879V44h-2.962V34.49h2.777l.1,1.222a2.294,2.294,0,0,1,2.083-1.4,2.888,2.888,0,0,1,.826.105Zm5.669,7a4.889,4.889,0,0,1-3.542-1.305,4.507,4.507,0,0,1-1.354-3.4v-.246a5.84,5.84,0,0,1,.541-2.575A3.955,3.955,0,0,1,125,34.925a4.763,4.763,0,0,1,2.461-.611,4.117,4.117,0,0,1,3.164,1.244,4.887,4.887,0,0,1,1.16,3.467v1.151h-5.889a2.135,2.135,0,0,0,.694,1.257,2.066,2.066,0,0,0,1.389.457,2.662,2.662,0,0,0,2.2-.984l1.354,1.6a3.784,3.784,0,0,1-1.569,1.217A5.3,5.3,0,0,1,127.772,44.176Zm-.334-7.576q-1.3,0-1.547,1.723h2.988v-.229a1.467,1.467,0,0,0-.36-1.1A1.434,1.434,0,0,0,127.438,36.6Zm8.253-2.109.1,1.116a3.225,3.225,0,0,1,2.716-1.292,2.713,2.713,0,0,1,2.219.888,4.226,4.226,0,0,1,.76,2.672V44h-2.971V38a1.6,1.6,0,0,0-.29-1.059,1.342,1.342,0,0,0-1.055-.338,1.413,1.413,0,0,0-1.292.686V44h-2.962V34.49Zm10.881-2.364V34.49h1.564v2.057h-1.564V40.9a1.111,1.111,0,0,0,.193.747,1.037,1.037,0,0,0,.765.211,4.345,4.345,0,0,0,.738-.053v2.118a5.466,5.466,0,0,1-1.67.255,3.1,3.1,0,0,1-2.259-.721,2.954,2.954,0,0,1-.729-2.188v-4.72H142.4V34.49h1.213V32.126Zm7.33,12.05a4.889,4.889,0,0,1-3.542-1.305,4.507,4.507,0,0,1-1.354-3.4v-.246a5.84,5.84,0,0,1,.541-2.575,3.955,3.955,0,0,1,1.578-1.727,4.763,4.763,0,0,1,2.461-.611,4.117,4.117,0,0,1,3.164,1.244,4.887,4.887,0,0,1,1.16,3.467v1.151h-5.889a2.135,2.135,0,0,0,.694,1.257,2.066,2.066,0,0,0,1.389.457,2.662,2.662,0,0,0,2.2-.984l1.354,1.6a3.784,3.784,0,0,1-1.569,1.217A5.3,5.3,0,0,1,153.9,44.176Zm-.334-7.576q-1.3,0-1.547,1.723h2.988v-.229a1.467,1.467,0,0,0-.36-1.1A1.434,1.434,0,0,0,153.568,36.6Z" fill="#12263f"/>
      </g>
    </g>
    <g id="Grupo_121573" data-name="Grupo 121573" transform="translate(553 1762.293)">
      <g id="Grupo_121572" data-name="Grupo 121572" clip-path="url(#clip-path)">
        <path id="Trazado_170794" data-name="Trazado 170794" d="M54.2,9.686c-9.962,3.825-38.06,16.179-48.5,55.53C-6.217,110.087,29.307,167.835,78.538,177.569c51.068,10.1,108.754-13.637,104.224-50.41-2.067-16.777-25.055-21.853-23.992-41.613,1.038-19.283,25.316-31.813,17.116-53.387C161.858-4.753,96.046-6.382,54.2,9.686" transform="translate(-3.046 0)" fill="#fdf5af"/>
        <path id="Trazado_170795" data-name="Trazado 170795" d="M171.581,393.15c0-13.66-5.79-34-33.678-32.765,1.571-17.3-13.691-41.073-46.941-38.9-16.049,1.049-19.339,13.213-21.08,12.6-22.384-7.824-50.2,13.256-46.072,38.683-12.437,1.326-21.557,10.6-21.557,23.994q0,.091,0,.181c.057,8.755,6.9,15.795,15.249,15.795H152.812c10.09,0,18.5-8.358,18.761-18.936q.008-.327.008-.657" transform="translate(-2.032 -289.761)" fill="#fbeb5c"/>
        <path id="Trazado_170796" data-name="Trazado 170796" d="M243.968,412.5c0-13.31-8.166-39.424-35.471-38.22-5.929-26.242-18.46-34.112-40.766-34.112-18.464,0-25.792,15.226-27.469,14.559-23.435-9.316-45.167,11.764-40.406,36.225-12.178,1.292-21.68,12.024-21.68,25.072q0,.088,0,.176c.056,8.53,6.756,15.389,14.931,15.389H225.59a18.672,18.672,0,0,0,18.37-18.45q.008-.319.008-.64" transform="translate(-70.492 -306.737)" fill="#febf10"/>
        <path id="Trazado_170797" data-name="Trazado 170797" d="M627.96,738.242l3.563-2.7L629.5,731.1a18.519,18.519,0,0,0,1.916-2.455l4.8.859,1.737-4.119-3.972-2.841a18.749,18.749,0,0,0,.426-3.081L639,717.8l-.555-4.435-4.853-.474a18.517,18.517,0,0,0-1.178-2.883l3.148-3.731-2.7-3.563-4.445,2.018a18.525,18.525,0,0,0-2.455-1.916l.86-4.8-4.119-1.737-2.841,3.972a18.78,18.78,0,0,0-3.081-.426l-1.658-4.593-4.435.555-.474,4.853a18.5,18.5,0,0,0-2.883,1.178l-3.732-3.148-3.563,2.7,2.019,4.445a18.513,18.513,0,0,0-1.916,2.455l-4.8-.86-1.737,4.119,3.972,2.841a18.749,18.749,0,0,0-.426,3.081l-4.593,1.658.555,4.435,4.853.474a18.538,18.538,0,0,0,1.178,2.883L596,730.636l2.7,3.563,4.445-2.019A18.522,18.522,0,0,0,605.6,734.1l-.86,4.8,4.119,1.737,2.841-3.972a18.767,18.767,0,0,0,3.081.426l1.658,4.593,4.435-.555.474-4.853a18.5,18.5,0,0,0,2.883-1.178ZM606.609,725.4a11.507,11.507,0,1,1,16.12,2.227,11.507,11.507,0,0,1-16.12-2.227" transform="translate(-534.318 -626.902)" fill="#fff"/>
        <path id="Trazado_170798" data-name="Trazado 170798" d="M616.507,716.85a.326.326,0,0,1-.306-.215l-1.585-4.391a19.207,19.207,0,0,1-2.707-.374l-2.716,3.8a.325.325,0,0,1-.392.111l-4.119-1.737a.326.326,0,0,1-.194-.358l.822-4.588a18.948,18.948,0,0,1-2.157-1.684l-4.249,1.93a.326.326,0,0,1-.395-.1l-2.7-3.563a.326.326,0,0,1,.011-.407l3.01-3.567a18.886,18.886,0,0,1-1.036-2.533l-4.64-.453a.326.326,0,0,1-.292-.284L592.308,694a.326.326,0,0,1,.213-.347l4.391-1.585a19.15,19.15,0,0,1,.374-2.707l-3.8-2.716a.326.326,0,0,1-.111-.392l1.737-4.119a.326.326,0,0,1,.358-.194l4.588.822a18.925,18.925,0,0,1,1.684-2.157l-1.93-4.25a.326.326,0,0,1,.1-.395l3.564-2.7a.326.326,0,0,1,.407.011l3.567,3.01a18.915,18.915,0,0,1,2.533-1.036l.453-4.639a.326.326,0,0,1,.284-.292l4.435-.555a.326.326,0,0,1,.347.213l1.585,4.391a19.157,19.157,0,0,1,2.707.374l2.716-3.8a.326.326,0,0,1,.392-.111l4.119,1.737a.326.326,0,0,1,.194.358l-.822,4.588a18.941,18.941,0,0,1,2.158,1.684l4.249-1.93a.327.327,0,0,1,.395.1l2.7,3.563a.326.326,0,0,1-.011.407l-3.01,3.567a18.939,18.939,0,0,1,1.036,2.534l4.639.453a.326.326,0,0,1,.292.284l.555,4.435a.326.326,0,0,1-.213.347l-4.391,1.585a19.168,19.168,0,0,1-.374,2.707l3.8,2.716a.326.326,0,0,1,.111.392l-1.737,4.119a.327.327,0,0,1-.358.194l-4.588-.822A18.916,18.916,0,0,1,629.961,706l1.93,4.249a.326.326,0,0,1-.1.395l-3.563,2.7a.326.326,0,0,1-.407-.011l-3.567-3.009a18.922,18.922,0,0,1-2.533,1.036L621.267,716a.326.326,0,0,1-.284.292l-4.435.555-.041,0m-4.739-5.671a.33.33,0,0,1,.071.008,18.493,18.493,0,0,0,3.028.418.326.326,0,0,1,.289.215l1.569,4.348,3.918-.49.449-4.594a.325.325,0,0,1,.227-.28,18.266,18.266,0,0,0,2.832-1.158.325.325,0,0,1,.358.041l3.532,2.98,3.148-2.384-1.911-4.208a.326.326,0,0,1,.057-.356,18.262,18.262,0,0,0,1.882-2.412.327.327,0,0,1,.331-.143l4.543.814,1.534-3.638-3.76-2.69a.326.326,0,0,1-.128-.336,18.5,18.5,0,0,0,.418-3.027.326.326,0,0,1,.215-.289l4.348-1.569-.49-3.918-4.594-.448a.326.326,0,0,1-.279-.227A18.3,18.3,0,0,0,632.2,685a.326.326,0,0,1,.041-.358l2.98-3.532-2.384-3.148-4.208,1.911a.326.326,0,0,1-.356-.057,18.283,18.283,0,0,0-2.412-1.882.326.326,0,0,1-.143-.331l.814-4.543-3.638-1.534-2.689,3.76a.327.327,0,0,1-.336.128,18.514,18.514,0,0,0-3.028-.418.326.326,0,0,1-.289-.215l-1.569-4.348-3.918.49-.449,4.594a.326.326,0,0,1-.227.279,18.208,18.208,0,0,0-2.832,1.158.327.327,0,0,1-.358-.042l-3.532-2.98-3.148,2.384,1.911,4.208a.326.326,0,0,1-.057.356,18.246,18.246,0,0,0-1.882,2.412.328.328,0,0,1-.331.143l-4.543-.814-1.534,3.638,3.76,2.69a.326.326,0,0,1,.129.336,18.483,18.483,0,0,0-.419,3.027.326.326,0,0,1-.215.289l-4.348,1.569.49,3.918,4.594.448a.326.326,0,0,1,.279.227,18.232,18.232,0,0,0,1.158,2.832.326.326,0,0,1-.041.358l-2.98,3.532,2.384,3.148,4.208-1.911a.327.327,0,0,1,.356.057,18.223,18.223,0,0,0,2.412,1.882.326.326,0,0,1,.143.331l-.814,4.543,3.638,1.534,2.689-3.76a.326.326,0,0,1,.265-.136m4.1-6.049A11.827,11.827,0,1,1,623,702.736a11.82,11.82,0,0,1-7.129,2.395m-.037-23.011a11.211,11.211,0,1,0,1.553.107,11.34,11.34,0,0,0-1.553-.107" transform="translate(-534.088 -603.924)" fill="#12263f"/>
        <path id="Trazado_170799" data-name="Trazado 170799" d="M1059.559,642.542l1.592-1.205-.9-1.985a8.272,8.272,0,0,0,.856-1.1l2.144.384.776-1.839-1.774-1.269a8.378,8.378,0,0,0,.19-1.376l2.052-.74-.248-1.981-2.167-.212a8.3,8.3,0,0,0-.526-1.288l1.406-1.666-1.205-1.592-1.985.9a8.264,8.264,0,0,0-1.1-.856l.384-2.144-1.839-.776-1.269,1.774a8.374,8.374,0,0,0-1.376-.19l-.741-2.051-1.981.248-.212,2.167a8.269,8.269,0,0,0-1.287.526l-1.667-1.406-1.592,1.205.9,1.985a8.26,8.26,0,0,0-.856,1.1l-2.144-.384-.776,1.839,1.774,1.269a8.379,8.379,0,0,0-.19,1.376l-2.051.74.248,1.981,2.168.212a8.265,8.265,0,0,0,.526,1.288l-1.406,1.667,1.205,1.592,1.985-.9a8.274,8.274,0,0,0,1.1.856l-.384,2.144,1.839.776,1.269-1.774a8.372,8.372,0,0,0,1.376.19l.74,2.051,1.981-.248.212-2.168a8.254,8.254,0,0,0,1.287-.526Zm-9.536-5.733a5.139,5.139,0,1,1,7.2.995,5.139,5.139,0,0,1-7.2-.995" transform="translate(-941.16 -562.068)" fill="#fbeb5c"/>
        <path id="Trazado_170800" data-name="Trazado 170800" d="M1052.79,631.514a.326.326,0,0,1-.306-.216l-.668-1.851a8.768,8.768,0,0,1-1-.138l-1.145,1.6a.325.325,0,0,1-.392.111l-1.84-.776a.326.326,0,0,1-.194-.358l.346-1.934a8.7,8.7,0,0,1-.8-.623l-1.791.813a.327.327,0,0,1-.395-.1l-1.2-1.591a.326.326,0,0,1,.011-.407l1.269-1.5a8.582,8.582,0,0,1-.383-.937l-1.956-.191a.326.326,0,0,1-.292-.284l-.248-1.981a.326.326,0,0,1,.213-.347l1.851-.668a8.815,8.815,0,0,1,.138-1l-1.6-1.145a.326.326,0,0,1-.111-.392l.776-1.839a.327.327,0,0,1,.358-.194l1.934.346a8.59,8.59,0,0,1,.623-.8l-.813-1.791a.326.326,0,0,1,.1-.395l1.592-1.205a.326.326,0,0,1,.407.011l1.5,1.269a8.606,8.606,0,0,1,.937-.383l.191-1.955a.326.326,0,0,1,.284-.292l1.981-.248a.326.326,0,0,1,.347.213l.668,1.851a8.8,8.8,0,0,1,1,.138l1.145-1.6a.326.326,0,0,1,.392-.111l1.839.776a.326.326,0,0,1,.194.358l-.346,1.934a8.617,8.617,0,0,1,.8.623l1.791-.813a.327.327,0,0,1,.395.1l1.205,1.591a.326.326,0,0,1-.01.407l-1.268,1.5a8.681,8.681,0,0,1,.383.937l1.956.191a.326.326,0,0,1,.292.284l.248,1.981a.326.326,0,0,1-.213.347l-1.851.668a8.694,8.694,0,0,1-.138,1l1.6,1.145a.326.326,0,0,1,.111.392l-.776,1.84a.327.327,0,0,1-.358.194l-1.934-.346a8.681,8.681,0,0,1-.623.8l.813,1.791a.326.326,0,0,1-.1.395l-1.592,1.205a.325.325,0,0,1-.407-.011l-1.5-1.268a8.652,8.652,0,0,1-.937.383l-.191,1.956a.326.326,0,0,1-.284.292l-1.981.248-.041,0m-2.116-2.893a.324.324,0,0,1,.071.008,8.1,8.1,0,0,0,1.323.183.326.326,0,0,1,.289.215l.652,1.806,1.464-.183.186-1.908a.326.326,0,0,1,.227-.279,8,8,0,0,0,1.237-.506.326.326,0,0,1,.358.041l1.467,1.238,1.176-.891-.794-1.748a.326.326,0,0,1,.057-.356,7.987,7.987,0,0,0,.822-1.053.325.325,0,0,1,.331-.143l1.887.338.573-1.359-1.562-1.117a.326.326,0,0,1-.129-.336,8.087,8.087,0,0,0,.183-1.322.326.326,0,0,1,.215-.289l1.806-.652-.183-1.464-1.908-.186a.326.326,0,0,1-.279-.227,7.982,7.982,0,0,0-.506-1.237.326.326,0,0,1,.042-.358l1.238-1.467-.891-1.176-1.748.794a.326.326,0,0,1-.356-.057,7.955,7.955,0,0,0-1.053-.822.326.326,0,0,1-.143-.331l.338-1.887-1.359-.573-1.117,1.562a.326.326,0,0,1-.336.128,8.093,8.093,0,0,0-1.323-.183.326.326,0,0,1-.289-.215l-.652-1.806-1.464.183-.186,1.908a.326.326,0,0,1-.227.279,7.947,7.947,0,0,0-1.237.505.327.327,0,0,1-.358-.041l-1.467-1.238-1.176.891.794,1.748a.326.326,0,0,1-.057.356,7.96,7.96,0,0,0-.822,1.053.326.326,0,0,1-.331.143l-1.887-.338-.573,1.359,1.562,1.117a.326.326,0,0,1,.128.336,8.093,8.093,0,0,0-.183,1.323.326.326,0,0,1-.215.289l-1.806.652.183,1.464,1.908.186a.326.326,0,0,1,.28.227,7.955,7.955,0,0,0,.505,1.237.325.325,0,0,1-.041.358l-1.238,1.468.891,1.176,1.748-.794a.326.326,0,0,1,.356.057,7.984,7.984,0,0,0,1.053.822.326.326,0,0,1,.143.331l-.338,1.887,1.359.573,1.117-1.562a.326.326,0,0,1,.265-.136m1.831-2.341a5.461,5.461,0,1,1,3.293-1.106,5.46,5.46,0,0,1-3.293,1.106m-3.844-2.557a4.813,4.813,0,1,0,.932-6.743,4.819,4.819,0,0,0-.932,6.743" transform="translate(-939.404 -550.151)" fill="#12263f"/>
        <path id="Trazado_170801" data-name="Trazado 170801" d="M568.887,1224.837h0l-71.715-.435a.326.326,0,0,1,0-.652h0l71.715.435a.326.326,0,0,1,0,.652" transform="translate(-448.011 -1103.469)" fill="#fbeb5c"/>
        <path id="Trazado_170802" data-name="Trazado 170802" d="M1482.665,419.629a.326.326,0,0,1-.23-.557l18.623-18.521a.326.326,0,0,1,.46.462L1482.9,419.534a.325.325,0,0,1-.23.095" transform="translate(-1336.642 -361.096)" fill="#12263f"/>
        <path id="Trazado_170803" data-name="Trazado 170803" d="M1440.013,470.581a.326.326,0,0,1-.283-.488l5.914-10.351a.326.326,0,1,1,.566.323l-5.914,10.351a.326.326,0,0,1-.283.164" transform="translate(-1298.182 -414.407)" fill="#12263f"/>
        <path id="Trazado_170804" data-name="Trazado 170804" d="M1507.784,588.812a.323.323,0,0,1-.131-.027l-4.154-1.818a.326.326,0,0,1-.093-.535l3.214-3.039a.326.326,0,0,1,.544.175l.94,4.856a.326.326,0,0,1-.32.388m-3.572-2.245,3.134,1.371-.709-3.664Z" transform="translate(-1355.546 -525.971)" fill="#12263f"/>
        <path id="Trazado_170805" data-name="Trazado 170805" d="M80.069,1687.913l-1.023,7.184-2.618.01-.123-7.066Z" transform="translate(-68.804 -1522.01)" fill="#fff"/>
        <path id="Trazado_170806" data-name="Trazado 170806" d="M73.436,1692.441a.326.326,0,0,1-.326-.32l-.123-7.066a.326.326,0,0,1,.315-.331l3.765-.128a.326.326,0,0,1,.334.372l-1.023,7.184a.326.326,0,0,1-.321.28l-2.618.01Zm.208-7.077.112,6.424,2.015-.008.929-6.52Z" transform="translate(-65.813 -1519.018)" fill="#12263f"/>
        <path id="Trazado_170807" data-name="Trazado 170807" d="M52.371,1751.991a24.254,24.254,0,0,1-4.6-.026,1.263,1.263,0,0,1-1.129-1.466c.317-1.95,1.2-5.389,2.6-6.967l.69.983.409-1.016c.066-.11,1.8-.182,1.838.024l.105.992.985-1.1-.054,3.625a5.486,5.486,0,0,0,.113,1.192l.259,1.253a2.384,2.384,0,0,1-.564,2.115,1.142,1.142,0,0,1-.65.4" transform="translate(-42.041 -1572.035)" fill="#fff"/>
        <path id="Trazado_170808" data-name="Trazado 170808" d="M47.4,1749.465c-.738,0-1.617-.033-2.642-.123a1.561,1.561,0,0,1-1.106-.6,1.606,1.606,0,0,1-.315-1.24c.084-.515.871-5.09,2.677-7.131a.337.337,0,0,1,.263-.109.326.326,0,0,1,.248.139l.345.492.185-.459a.334.334,0,0,1,.023-.046c.238-.4,1.967-.223,1.984-.22.1.019.4.075.454.355,0,.007,0,.015,0,.022l.028.261.5-.555a.326.326,0,0,1,.569.222l-.054,3.625a5.168,5.168,0,0,0,.106,1.121l.259,1.253a2.708,2.708,0,0,1-.645,2.4,1.436,1.436,0,0,1-.853.5,19.114,19.114,0,0,1-2.023.1m1.988-.422h0Zm-3.148-7.917a17.657,17.657,0,0,0-2.26,6.477.939.939,0,0,0,.187.735.916.916,0,0,0,.649.354,23.728,23.728,0,0,0,4.538.027.87.87,0,0,0,.448-.295,2.055,2.055,0,0,0,.482-1.826l-.259-1.253a5.817,5.817,0,0,1-.12-1.263l.041-2.75-.4.451a.326.326,0,0,1-.567-.183l-.086-.807a6.269,6.269,0,0,0-1.287.02l-.353.875a.326.326,0,0,1-.569.065Z" transform="translate(-39.054 -1569.088)" fill="#12263f"/>
        <path id="Trazado_170809" data-name="Trazado 170809" d="M59.364,1814.044a15.3,15.3,0,0,1-2.639-.234.326.326,0,0,1,.113-.642,12.841,12.841,0,0,0,4.308.087.326.326,0,1,1,.13.639,10.393,10.393,0,0,1-1.912.15" transform="translate(-50.907 -1634.949)" fill="#12263f"/>
        <path id="Trazado_170810" data-name="Trazado 170810" d="M69.785,1788.123H67.41a.326.326,0,0,1,0-.652h2.375a.326.326,0,0,1,0,.652" transform="translate(-60.49 -1611.782)" fill="#12263f"/>
        <path id="Trazado_170811" data-name="Trazado 170811" d="M305.8,1687.95l.921,8.373,3.522.738-.215-9.818Z" transform="translate(-275.742 -1521.406)" fill="#fff"/>
        <path id="Trazado_170812" data-name="Trazado 170812" d="M307.25,1694.4a.345.345,0,0,1-.067-.007l-3.522-.738a.326.326,0,0,1-.257-.283l-.921-8.373a.326.326,0,0,1,.27-.357l4.229-.707a.326.326,0,0,1,.38.314l.214,9.818a.326.326,0,0,1-.326.333m-3.224-1.334,2.889.6-.2-9.031-3.553.594Z" transform="translate(-272.75 -1518.417)" fill="#12263f"/>
        <path id="Trazado_170813" data-name="Trazado 170813" d="M299.728,1769.52c-.077-1.467-.079-4.169.814-5.472l2.818,1v-.6a.351.351,0,0,1,.315-.364l1.571-.09a3.415,3.415,0,0,1,1.706.351c1.58.777,6.386,2.769,7.052,5.008a1.064,1.064,0,0,1-1.009,1.341c-1.582.045-5.385.095-12.209-.138a1.1,1.1,0,0,1-1.058-1.038" transform="translate(-270.239 -1590.609)" fill="#fff"/>
        <path id="Trazado_170814" data-name="Trazado 170814" d="M306.852,1768.07c-2.1,0-5.061-.04-9.065-.177a1.415,1.415,0,0,1-1.372-1.347c-.081-1.528-.074-4.3.871-5.673a.326.326,0,0,1,.378-.123l2.382.848v-.14a.677.677,0,0,1,.623-.689l1.571-.09a3.759,3.759,0,0,1,1.869.384c.188.093.422.2.689.328,2.063.968,5.9,2.769,6.531,4.88a1.338,1.338,0,0,1-.2,1.174,1.427,1.427,0,0,1-1.107.586c-.679.02-1.715.039-3.165.039m-9.157-6.616a10.652,10.652,0,0,0-.629,5.059.767.767,0,0,0,.744.73c6.753.23,10.535.185,12.189.138a.771.771,0,0,0,.6-.317.691.691,0,0,0,.108-.605c-.545-1.831-4.353-3.618-6.183-4.476-.272-.127-.509-.239-.7-.333a3.113,3.113,0,0,0-1.544-.318l-1.571.09s-.008.013-.008.038v.6a.326.326,0,0,1-.435.307Z" transform="translate(-267.252 -1587.619)" fill="#12263f"/>
        <path id="Trazado_170815" data-name="Trazado 170815" d="M318.885,1811.859a67.459,67.459,0,0,1-7.662-.431.326.326,0,0,1,.075-.648,64.831,64.831,0,0,0,10.99.33.326.326,0,1,1,.049.65c-.025,0-1.352.1-3.452.1" transform="translate(-280.373 -1632.799)" fill="#12263f"/>
        <path id="Trazado_170816" data-name="Trazado 170816" d="M355.066,1773.508a.326.326,0,0,1-.19-.061l-2.712-1.951a.326.326,0,0,1,.381-.529l2.712,1.951a.326.326,0,0,1-.191.591" transform="translate(-317.427 -1596.845)" fill="#12263f"/>
        <path id="Trazado_170817" data-name="Trazado 170817" d="M84.938,1111s5.049,34.634,3.973,57.75l-1.575.157a17.01,17.01,0,0,1-2.549.063l-1.494-.075s-6.021-35.115-9.027-40.946c0,0-8.176,31.227-8.491,39.687,0,0-3.634.365-5.082-.156-.778-8.164-1-16.616-1.042-21.921-.111-15.185,1.34-22.082,2.135-25.354.73-3,1.514-5.446,2.087-7.1l1.912-5.453Z" transform="translate(-53.783 -998.787)" fill="#fbeb5c"/>
        <path id="Trazado_170818" data-name="Trazado 170818" d="M82.647,1165.939q-.435,0-.869-.022l-1.754-.088-.044-.257c-.058-.337-5.572-32.376-8.623-40.02-1.337,5.18-7.967,31.194-8.247,38.717l-.011.284-.283.029c-.151.015-3.725.367-5.225-.173l-.195-.07-.02-.206c-.832-8.728-1.011-17.5-1.043-21.949-.106-14.454,1.173-21.437,2.144-25.433.585-2.4,1.29-4.8,2.1-7.128l2-5.715,19.658,3.433.034.233c.051.347,5.041,34.929,3.976,57.812l-.013.281-1.855.186c-.573.057-1.151.086-1.73.086m-2.069-.735,1.233.062a16.762,16.762,0,0,0,2.5-.062l1.295-.13c.965-21.83-3.514-54.107-3.949-57.173l-18.648-3.257-1.82,5.192c-.8,2.3-1.5,4.683-2.078,7.067-.963,3.962-2.231,10.892-2.126,25.274.032,4.4.208,13.045,1.02,21.677a17.089,17.089,0,0,0,4.466.1c.473-8.776,8.157-38.208,8.488-39.47l.215-.823.39.756c2.892,5.611,8.419,37.331,9.014,40.783" transform="translate(-50.791 -995.406)" fill="#12263f"/>
        <path id="Trazado_170819" data-name="Trazado 170819" d="M202.521,1277.376a.317.317,0,0,1-.087-.012.326.326,0,0,1-.228-.4l.84-3.057a2.584,2.584,0,0,1,1.978-1.854l.786-.162a.326.326,0,1,1,.132.638l-.786.162a1.936,1.936,0,0,0-1.481,1.389l-.84,3.057a.326.326,0,0,1-.314.24" transform="translate(-182.321 -1146.871)" fill="#12263f"/>
        <path id="Trazado_170820" data-name="Trazado 170820" d="M89.641,1223.873a.326.326,0,0,1-.053-.647c4.3-.716,5.151-3.976,5.185-4.115a.326.326,0,0,1,.633.155c-.038.155-.977,3.814-5.712,4.6a.352.352,0,0,1-.054,0" transform="translate(-80.537 -1099.062)" fill="#12263f"/>
        <path id="Trazado_170821" data-name="Trazado 170821" d="M293.052,1207.706a.328.328,0,0,1-.13-.027,4.256,4.256,0,0,1-2.729-3.907.326.326,0,0,1,.652.024,3.616,3.616,0,0,0,2.338,3.285.326.326,0,0,1-.13.625" transform="translate(-261.669 -1085.172)" fill="#12263f"/>
        <path id="Trazado_170822" data-name="Trazado 170822" d="M30.748,841.517c-3.339-.377-10.468-1.052-15.37-.6a9.907,9.907,0,0,0-4.742,2.01C7.32,845.786,1.065,852.087.02,859.648a2.14,2.14,0,0,0,1.659,2.38l5.779,1.281s-2.3,9.08-2.119,10.648S10.3,878.193,16.27,876c4.656-1.707,11.246-3.064,15.429-1.592.04.014.44,3.229.481,3.235,1.343.2,2.7-.328,2.665-2.216l-.637-9.805,7.659-1.012.684-.228a3.807,3.807,0,0,0,2.342-5c-1.8-4.58-4.514-11.994-9.542-16.089a10.535,10.535,0,0,0-4.6-1.778" transform="translate(0 -758.127)" fill="#12263f"/>
        <path id="Trazado_170823" data-name="Trazado 170823" d="M267.034,981.5H279a1.131,1.131,0,0,0,1.1-.859l4.141-16.7a1.131,1.131,0,0,0-1.1-1.4H271.175a1.131,1.131,0,0,0-1.1.859l-4.141,16.7a1.131,1.131,0,0,0,1.1,1.4" transform="translate(-239.767 -867.93)" fill="#fbeb5c"/>
        <path id="Trazado_170824" data-name="Trazado 170824" d="M370.05,1044.586l-.4,1.685-1.447-.482a11.269,11.269,0,0,1-2.281-1.055l-.83-.5a1.139,1.139,0,0,0-1.665.6c-.512,1.453-.411,3.886,4.8,5.415,2.877.844,3.7-2.841,3.328-4.889a1.718,1.718,0,0,0-.616-1.069.556.556,0,0,0-.887.3" transform="translate(-327.522 -941.445)" fill="#fff"/>
        <path id="Trazado_170825" data-name="Trazado 170825" d="M366.045,1047.7a3.17,3.17,0,0,1-.891-.135c-2.556-.75-4.2-1.805-4.88-3.137a3.349,3.349,0,0,1-.137-2.7,1.465,1.465,0,0,1,2.142-.772l.83.5a10.962,10.962,0,0,0,2.215,1.025l1.109.369.32-1.339v0a.882.882,0,0,1,1.406-.47,2.06,2.06,0,0,1,.733,1.265c.278,1.527-.061,3.721-1.235,4.778a2.356,2.356,0,0,1-1.615.617m-4.522-6.3a.8.8,0,0,0-.273.048.818.818,0,0,0-.5.5,2.676,2.676,0,0,0,.1,2.184c.6,1.167,2.106,2.112,4.483,2.809a1.867,1.867,0,0,0,1.886-.341c.95-.854,1.274-2.833,1.029-4.176a1.4,1.4,0,0,0-.5-.873.23.23,0,0,0-.367.121l-.4,1.682a.326.326,0,0,1-.42.233l-1.447-.482a11.6,11.6,0,0,1-2.347-1.086l-.83-.5a.807.807,0,0,0-.419-.118" transform="translate(-324.543 -938.455)" fill="#12263f"/>
        <path id="Trazado_170826" data-name="Trazado 170826" d="M21.836,940.373a9.173,9.173,0,0,1-2.025,1.563c-2.513,1.431-8.515,4.895-10.008,6.17-1.9,1.625-2.812,2.232-1.284,6.413,2.492,6.816,14.113-10.681,14.113-10.681s3.413.617,4.18-2.374a6.264,6.264,0,0,0,2.52.013.7.7,0,0,0-.215-1.317l-4.91-.915a2.074,2.074,0,0,0-1.848.592Z" transform="translate(-6.987 -846.898)" fill="#fff"/>
        <path id="Trazado_170827" data-name="Trazado 170827" d="M7.312,953.427a2.155,2.155,0,0,1-.251-.015,2.356,2.356,0,0,1-1.9-1.775c-1.5-4.105-.761-4.95,1.21-6.629l.168-.143c1.513-1.293,7.538-4.771,10.059-6.206a8.84,8.84,0,0,0,1.953-1.507l.524-.536a2.4,2.4,0,0,1,2.139-.686l4.912.916a.993.993,0,0,1,.866.861,1.017,1.017,0,0,1-.581,1.076,5.45,5.45,0,0,1-2.419.058c-.828,2.494-3.473,2.428-4.252,2.353-1.041,1.545-8.394,12.234-12.43,12.234M18.786,937.38l.233.228a9.5,9.5,0,0,1-2.1,1.618c-2.5,1.426-8.487,4.878-9.958,6.135L6.8,945.5c-1.765,1.5-2.426,2.066-1.021,5.909.306.837.751,1.279,1.361,1.351a1.737,1.737,0,0,0,.2.011c3.221,0,9.706-8.69,11.978-12.112a.326.326,0,0,1,.33-.14c.127.023,3.125.523,3.806-2.134a.325.325,0,0,1,.376-.24,5.732,5.732,0,0,0,2.331.034.367.367,0,0,0,.194-.391.344.344,0,0,0-.325-.305l-4.924-.917a1.744,1.744,0,0,0-1.555.5l-.524.536Z" transform="translate(-3.938 -843.905)" fill="#12263f"/>
        <path id="Trazado_170828" data-name="Trazado 170828" d="M189.9,763.763l.367,5.112a1.632,1.632,0,0,0,1.208,1.382l1.8.468-1.165.887a7.228,7.228,0,0,1-8.747.008l-1.844-1.4,2.231-.5a1.632,1.632,0,0,0,1.25-1.3l.985-6.764Z" transform="translate(-163.677 -686.794)" fill="#fff"/>
        <path id="Trazado_170829" data-name="Trazado 170829" d="M184.739,770.418a7.545,7.545,0,0,1-4.565-1.53l-1.844-1.4a.326.326,0,0,1,.126-.578l2.231-.5a1.3,1.3,0,0,0,1-1.043l.983-6.753a.326.326,0,0,1,.477-.24l3.918,2.107a.326.326,0,0,1,.171.264l.367,5.112a1.3,1.3,0,0,0,.965,1.09l1.8.468a.326.326,0,0,1,.115.575l-1.165.887a7.545,7.545,0,0,1-4.576,1.538m-5.455-3.023,1.284.974a6.923,6.923,0,0,0,8.352-.007l.632-.482-1.148-.3a1.947,1.947,0,0,1-1.45-1.658l-.356-4.949-3.35-1.8-.918,6.3a1.957,1.957,0,0,1-1.5,1.574Z" transform="translate(-160.686 -683.803)" fill="#12263f"/>
        <path id="Trazado_170830" data-name="Trazado 170830" d="M226,685.556c-1.229-.65-.239,1.375-4.282-2.123-1.61-1.393-1.667,1.207-2.086.847-1.546-1.33-1.492-1.287-2.467-1.456-.646-.112-1.51.779-1.766,1.622-.339,1.113.4,1.779.149,4.343-.178,1.8-.744,2.685-.225,3.2s1.379-.115,1.994.406c.8.675-.113,2.176.476,3.241.371.671,1.589,1.461,4.152,1.4a.869.869,0,0,0,.835-.727c.087-.527.193-1.193.241-1.838.229-3.074-.432-4.095.219-4.62,1-.8,2.7.694,3.415-.012.748-.734,1.028-3.387-.655-4.277" transform="translate(-193.965 -615.701)" fill="#12263f"/>
        <path id="Trazado_170831" data-name="Trazado 170831" d="M262.782,725.276l.051.84a8.607,8.607,0,0,1-.01,1.187c-.057.741-.147,2.017-.142,2.735.007,1.055,3.267,1.261,3.267,1.261l.414-.46.383.016a.426.426,0,0,0,.215-.043.411.411,0,0,0,.218-.433,14.823,14.823,0,0,1-.125-4.587,4.46,4.46,0,0,0-4.27-.515" transform="translate(-236.862 -653.697)" fill="#fff"/>
        <path id="Trazado_170832" data-name="Trazado 170832" d="M262.955,728.607h-.021c-.836-.053-3.564-.323-3.572-1.584,0-.739.088-2.048.143-2.762a8.335,8.335,0,0,0,.009-1.142l-.051-.84a.326.326,0,0,1,.207-.323,4.753,4.753,0,0,1,4.594.566.326.326,0,0,1,.115.313,14.664,14.664,0,0,0,.127,4.474.738.738,0,0,1-.389.775.764.764,0,0,1-.38.08l-.229-.01-.311.346a.326.326,0,0,1-.242.108m-2.825-6.125.036.6a8.967,8.967,0,0,1-.01,1.232c-.055.7-.146,1.993-.141,2.708,0,.426,1.449.819,2.8.926l.307-.342a.325.325,0,0,1,.256-.108l.383.016a.1.1,0,0,0,.051-.006.086.086,0,0,0,.047-.09,15.5,15.5,0,0,1-.159-4.495,4.116,4.116,0,0,0-3.574-.437" transform="translate(-233.87 -650.68)" fill="#12263f"/>
        <path id="Trazado_170833" data-name="Trazado 170833" d="M243.586,738.182s-.12-2.019-1.025-1.764a1.021,1.021,0,1,0,1.025,1.764" transform="translate(-218.239 -664.016)" fill="#fff"/>
        <path id="Trazado_170834" data-name="Trazado 170834" d="M1303.389,276.3a.326.326,0,0,1-.264-.517l1.532-2.111a.326.326,0,0,1,.528.383l-1.532,2.111a.325.325,0,0,1-.264.135m3.063-4.221a.326.326,0,0,1-.263-.517l1.532-2.111a.326.326,0,1,1,.528.383l-1.532,2.111a.326.326,0,0,1-.264.135m3.063-4.221a.326.326,0,0,1-.264-.517l1.532-2.111a.326.326,0,1,1,.528.383l-1.532,2.111a.326.326,0,0,1-.264.135m3.063-4.221a.326.326,0,0,1-.264-.517l1.532-2.111a.326.326,0,0,1,.528.383l-1.532,2.111a.326.326,0,0,1-.264.135m3.063-4.221a.326.326,0,0,1-.263-.517l1.532-2.111a.326.326,0,0,1,.528.383l-1.532,2.111a.326.326,0,0,1-.264.135m3.063-4.221a.326.326,0,0,1-.263-.518l1.532-2.111a.326.326,0,1,1,.527.383l-1.531,2.111a.326.326,0,0,1-.264.135m3.063-4.221a.326.326,0,0,1-.263-.517l1.532-2.111a.326.326,0,1,1,.527.383l-1.532,2.111a.325.325,0,0,1-.264.135m3.063-4.221a.326.326,0,0,1-.263-.517l1.531-2.111a.326.326,0,0,1,.528.383l-1.532,2.111a.325.325,0,0,1-.264.135m3.063-4.221a.326.326,0,0,1-.263-.517l1.531-2.111a.326.326,0,1,1,.528.383l-1.532,2.111a.325.325,0,0,1-.264.135" transform="translate(-1174.987 -216.198)" fill="#fff"/>
        <path id="Trazado_170835" data-name="Trazado 170835" d="M1111.041,244.921l-.042,0a.326.326,0,0,1-.282-.365l.329-2.587a.326.326,0,1,1,.647.082l-.329,2.587a.326.326,0,0,1-.323.285m.659-5.174-.042,0a.326.326,0,0,1-.282-.365l.329-2.587a.326.326,0,1,1,.647.082l-.329,2.587a.326.326,0,0,1-.323.285m.659-5.174-.042,0a.326.326,0,0,1-.282-.365l.329-2.587a.326.326,0,0,1,.647.082l-.329,2.587a.326.326,0,0,1-.323.285m.659-5.174-.042,0a.326.326,0,0,1-.282-.365l.329-2.587a.326.326,0,0,1,.647.082l-.329,2.587a.326.326,0,0,1-.323.285m.658-5.174-.042,0a.326.326,0,0,1-.282-.365l.329-2.587a.326.326,0,1,1,.647.082l-.329,2.587a.326.326,0,0,1-.323.285m.659-5.174-.042,0a.326.326,0,0,1-.282-.365l.329-2.587a.326.326,0,1,1,.647.082l-.329,2.587a.326.326,0,0,1-.323.285" transform="translate(-1001.544 -194.601)" fill="#fff"/>
        <path id="Trazado_170836" data-name="Trazado 170836" d="M831.214,269.991a.326.326,0,0,1-.32-.265l-.483-2.563a.326.326,0,0,1,.641-.121l.483,2.563a.326.326,0,0,1-.26.381.313.313,0,0,1-.061.006m-.966-5.125a.326.326,0,0,1-.32-.265l-.483-2.563a.326.326,0,0,1,.641-.121l.483,2.563a.326.326,0,0,1-.26.381.31.31,0,0,1-.061.006m-.966-5.125a.326.326,0,0,1-.32-.265l-.483-2.563a.326.326,0,0,1,.641-.121l.483,2.563a.326.326,0,0,1-.26.381.314.314,0,0,1-.061.006m-.966-5.125a.326.326,0,0,1-.32-.265l-.483-2.563a.326.326,0,0,1,.641-.121l.483,2.563a.326.326,0,0,1-.26.381.311.311,0,0,1-.061.006m-.966-5.125a.326.326,0,0,1-.32-.266l-.483-2.563a.326.326,0,0,1,.641-.121l.483,2.563a.326.326,0,0,1-.26.381.312.312,0,0,1-.061.006m-.966-5.125a.326.326,0,0,1-.32-.265l-.483-2.563a.326.326,0,0,1,.641-.121l.483,2.563a.326.326,0,0,1-.26.381.312.312,0,0,1-.061.006m-.966-5.125a.326.326,0,0,1-.32-.265l-.483-2.563a.326.326,0,0,1,.641-.121l.483,2.563a.326.326,0,0,1-.26.381.312.312,0,0,1-.061.006" transform="translate(-743.557 -212.825)" fill="#fff"/>
        <path id="Trazado_170837" data-name="Trazado 170837" d="M470.586,221.019a.326.326,0,0,1-.289-.174l-1.215-2.308a.326.326,0,0,1,.577-.3l1.215,2.308a.326.326,0,0,1-.288.478m-2.429-4.616a.326.326,0,0,1-.289-.174l-1.215-2.308a.326.326,0,1,1,.577-.3l1.215,2.308a.326.326,0,0,1-.288.478m-2.429-4.615a.326.326,0,0,1-.289-.174l-1.215-2.308a.326.326,0,1,1,.577-.3l1.215,2.308a.326.326,0,0,1-.288.478m-2.429-4.615a.326.326,0,0,1-.289-.174L461.8,204.69a.326.326,0,1,1,.577-.3l1.215,2.308a.326.326,0,0,1-.288.478m-2.429-4.615a.326.326,0,0,1-.289-.174l-1.214-2.308a.326.326,0,0,1,.577-.3l1.215,2.308a.326.326,0,0,1-.288.478m-2.429-4.615a.326.326,0,0,1-.289-.174l-1.214-2.308a.326.326,0,1,1,.577-.3l1.215,2.308a.326.326,0,0,1-.288.478m-2.429-4.616a.326.326,0,0,1-.289-.174l-1.215-2.308a.326.326,0,1,1,.577-.3l1.215,2.308a.326.326,0,0,1-.288.478m-2.429-4.615a.326.326,0,0,1-.289-.174l-1.214-2.308a.326.326,0,1,1,.577-.3l1.215,2.308a.326.326,0,0,1-.288.478m-2.429-4.615a.326.326,0,0,1-.289-.174l-1.215-2.308a.326.326,0,1,1,.577-.3l1.215,2.308a.326.326,0,0,1-.288.478m-2.429-4.615a.326.326,0,0,1-.289-.174l-.955-1.814a.326.326,0,1,1,.577-.3l.955,1.814a.326.326,0,0,1-.288.478" transform="translate(-403.464 -159.615)" fill="#fff"/>
        <path id="Trazado_170838" data-name="Trazado 170838" d="M286.061,516.839a.324.324,0,0,1-.2-.07l-2.049-1.613a.326.326,0,1,1,.4-.512l2.049,1.613a.326.326,0,0,1-.2.582m-4.1-3.226a.325.325,0,0,1-.2-.07l-2.049-1.613a.326.326,0,1,1,.4-.512l2.049,1.613a.326.326,0,0,1-.2.582m-4.1-3.226a.324.324,0,0,1-.2-.07l-2.049-1.613a.326.326,0,1,1,.4-.512l2.049,1.613a.326.326,0,0,1-.2.582m-4.1-3.226a.324.324,0,0,1-.2-.07l-2.049-1.613a.326.326,0,0,1,.4-.512l2.049,1.613a.326.326,0,0,1-.2.582m-4.1-3.226a.324.324,0,0,1-.2-.07l-2.049-1.613a.326.326,0,1,1,.4-.512l2.049,1.613a.326.326,0,0,1-.2.582m-4.1-3.226a.324.324,0,0,1-.2-.07l-2.049-1.613a.326.326,0,1,1,.4-.512l2.049,1.613a.326.326,0,0,1-.2.582m-4.1-3.226a.324.324,0,0,1-.2-.07l-2.049-1.613a.326.326,0,1,1,.4-.512l2.049,1.613a.326.326,0,0,1-.2.582m-4.1-3.226a.324.324,0,0,1-.2-.07l-1.953-1.538a.326.326,0,1,1,.4-.512l1.953,1.538a.326.326,0,0,1-.2.582" transform="translate(-230.022 -443.702)" fill="#fff"/>
        <path id="Trazado_170839" data-name="Trazado 170839" d="M92.463,351.33a11.39,11.39,0,0,1-.146-16.042,11.233,11.233,0,0,1,15.95-.147,11.39,11.39,0,0,1,.146,16.042,11.234,11.234,0,0,1-15.95.147" transform="translate(-80.329 -299.271)" fill="#febf10"/>
        <path id="Trazado_170840" data-name="Trazado 170840" d="M143.161,378.069l-7.662,7.849a1.045,1.045,0,0,1-1.483.014l-5.389-5.322a1.059,1.059,0,0,1-.014-1.491l7.662-7.848a1.044,1.044,0,0,1,1.483-.014l5.389,5.322a1.059,1.059,0,0,1,.014,1.491" transform="translate(-115.701 -334.493)" fill="#fff"/>
        <path id="Trazado_170841" data-name="Trazado 170841" d="M156.1,449.79a.326.326,0,0,1-.069-.644l4.89-1.07a.326.326,0,1,1,.139.637l-4.89,1.07a.317.317,0,0,1-.07.008" transform="translate(-140.46 -404.027)" fill="#12263f"/>
        <path id="Trazado_170842" data-name="Trazado 170842" d="M206.058,403.216a.32.32,0,0,1-.063-.006.326.326,0,0,1-.257-.383l.974-4.937a.326.326,0,0,1,.64.126l-.974,4.937a.326.326,0,0,1-.32.263" transform="translate(-185.511 -358.544)" fill="#12263f"/>
        <path id="Trazado_170843" data-name="Trazado 170843" d="M317.741,25.081a11.39,11.39,0,0,1-.146-16.042,11.233,11.233,0,0,1,15.95-.147,11.39,11.39,0,0,1,.146,16.042,11.233,11.233,0,0,1-15.95.147" transform="translate(-283.465 -5.089)" fill="#febf10"/>
        <path id="Trazado_170844" data-name="Trazado 170844" d="M390.805,59.97V58.239a7.331,7.331,0,0,1-3.1-.784l.547-2.132a6.435,6.435,0,0,0,3.025.8c1.039,0,1.75-.4,1.75-1.13,0-.693-.583-1.13-1.932-1.585-1.95-.656-3.281-1.567-3.281-3.335,0-1.6,1.13-2.861,3.08-3.244V45.1h1.786v1.6a6.56,6.56,0,0,1,2.643.6l-.529,2.059a6.045,6.045,0,0,0-2.624-.62c-1.185,0-1.567.51-1.567,1.021,0,.6.638.984,2.187,1.567,2.169.765,3.044,1.768,3.044,3.408,0,1.622-1.148,3.007-3.244,3.372V59.97Z" transform="translate(-349.6 -40.666)" fill="#fff"/>
        <path id="Trazado_170845" data-name="Trazado 170845" d="M1509.743,91.322a11.39,11.39,0,0,1-.146-16.042,11.233,11.233,0,0,1,15.95-.147,11.39,11.39,0,0,1,.146,16.042,11.234,11.234,0,0,1-15.95.147" transform="translate(-1358.307 -64.819)" fill="#febf10"/>
        <path id="Trazado_170846" data-name="Trazado 170846" d="M1559.109,141.613l-4.242,1.273a.292.292,0,0,0-.128.48l.692.734-2.373,2.263a.619.619,0,0,1-.877-.023l-1.006-1.063a2.43,2.43,0,0,0-3.444-.088l-2.835,2.7a8.291,8.291,0,0,0-.021,1.683q.048.559.13,1.055l3.97-3.8a.619.619,0,0,1,.876.021l1.017,1.067a2.43,2.43,0,0,0,3.438.082l2.53-2.412.729.773a.29.29,0,0,0,.485-.105l1.457-4.225a.324.324,0,0,0-.4-.417" transform="translate(-1393.001 -127.681)" fill="#fff"/>
        <path id="Trazado_170847" data-name="Trazado 170847" d="M1046.836,23.393a11.39,11.39,0,0,1-.147-16.042,11.234,11.234,0,0,1,15.95-.147,11.39,11.39,0,0,1,.146,16.042,11.233,11.233,0,0,1-15.95.147" transform="translate(-940.898 -3.567)" fill="#febf10"/>
        <path id="Trazado_170848" data-name="Trazado 170848" d="M1110.2,57.436H1099.3a.427.427,0,0,0-.435.418V65.02a.427.427,0,0,0,.435.418H1110.2a.427.427,0,0,0,.435-.418V57.854a.427.427,0,0,0-.435-.418" transform="translate(-990.862 -51.791)" fill="#fbeb5c"/>
        <path id="Trazado_170849" data-name="Trazado 170849" d="M1107.208,62.775h-10.895a.754.754,0,0,1-.761-.744V54.865a.753.753,0,0,1,.761-.744h10.895a.753.753,0,0,1,.761.744v7.166a.754.754,0,0,1-.761.744m-10.895-8a.1.1,0,0,0-.109.092v7.166a.1.1,0,0,0,.109.092h10.895a.1.1,0,0,0,.109-.092V54.865a.1.1,0,0,0-.109-.092Z" transform="translate(-987.871 -48.801)" fill="#12263f"/>
        <path id="Trazado_170850" data-name="Trazado 170850" d="M1096.134,153.652h-14.7c-.152,0-.276.181-.276.4v.094c0,.391.216.707.483.707h14.288c.267,0,.483-.317.483-.707v-.094c0-.223-.124-.4-.276-.4" transform="translate(-974.889 -138.55)" fill="#fff"/>
        <path id="Trazado_170851" data-name="Trazado 170851" d="M703.935,58.265a11.39,11.39,0,0,1-.146-16.042,11.234,11.234,0,0,1,15.95-.147,11.39,11.39,0,0,1,.146,16.042,11.233,11.233,0,0,1-15.95.147" transform="translate(-631.7 -35.011)" fill="#febf10"/>
        <path id="Trazado_170852" data-name="Trazado 170852" d="M743.71,102.443h10.075a1.942,1.942,0,0,1,1.946,1.988v4.37a1.975,1.975,0,0,1-1.949,2.023l0,.023h-.811v3.731l-2.466-3.731h-6.8a2.061,2.061,0,0,1-2.028-2.045v-4.37a2.011,2.011,0,0,1,2.028-1.988" transform="translate(-668.783 -92.374)" fill="#fff"/>
        <path id="Trazado_170853" data-name="Trazado 170853" d="M1659.262,1315.46a.326.326,0,0,1-.2-.586c10.337-7.829,14.884-17.655,13.9-30.039a.326.326,0,0,1,.65-.051c1,12.623-3.631,22.635-14.159,30.61a.324.324,0,0,1-.2.066" transform="translate(-1495.881 -1158.234)" fill="#12263f"/>
        <path id="Trazado_170854" data-name="Trazado 170854" d="M1705.815,1262.9a.326.326,0,0,1-.258-.524c5.913-7.712,7.859-16.324,5.949-26.328a.326.326,0,1,1,.64-.122c1.947,10.2-.039,18.979-6.072,26.847a.326.326,0,0,1-.259.128" transform="translate(-1537.859 -1114.206)" fill="#12263f"/>
        <path id="Trazado_170855" data-name="Trazado 170855" d="M779.629,1341.225c-.159-.809-3.189-.537-3.389-1.346-.182-.737,2.448-3.344,2.231-4.08-1.3-4.4-3.307-7.8-6.083-11.927a.542.542,0,0,0-.872-.039,53.78,53.78,0,0,0-9.224,19.091c-.176.648,2.572,3.708,2.412,4.38s-3.295-.182-3.438.523a55.682,55.682,0,0,0-.1,22.558,56.666,56.666,0,0,0,16.1,2.914c2.76-9.208,4.692-20.227,2.359-32.074" transform="translate(-685.357 -1193.533)" fill="#fbeb5c"/>
        <path id="Trazado_170856" data-name="Trazado 170856" d="M838.921,1343.974a.326.326,0,0,1-.281-.49c.687-1.18,1.4-2.3,2.13-3.34a.326.326,0,1,1,.534.374c-.715,1.021-1.422,2.129-2.1,3.294a.326.326,0,0,1-.282.162" transform="translate(-756.171 -1208.297)" fill="#fbeb5c"/>
        <path id="Trazado_170857" data-name="Trazado 170857" d="M892.554,1338.744a.325.325,0,0,1-.281-.161c-.513-.875-1.1-1.816-1.8-2.879a.326.326,0,1,1,.545-.357c.7,1.071,1.3,2.022,1.815,2.906a.326.326,0,0,1-.281.491" transform="translate(-802.902 -1203.964)" fill="#fbeb5c"/>
        <path id="Trazado_170858" data-name="Trazado 170858" d="M846.307,1679.228a.332.332,0,0,1-.052,0,.326.326,0,0,1-.27-.374c.645-3.981,1.192-8.032,1.625-12.041a.326.326,0,1,1,.648.07c-.434,4.02-.982,8.083-1.629,12.075a.326.326,0,0,1-.321.274" transform="translate(-762.83 -1502.717)" fill="#fbeb5c"/>
        <path id="Trazado_170859" data-name="Trazado 170859" d="M868.431,1392.3H868.4a.326.326,0,0,1-.3-.352c.56-6.774.82-13.655.774-20.45l-.021-3.115a.326.326,0,0,1,.324-.328h0a.326.326,0,0,1,.326.324l.021,3.115c.047,6.815-.214,13.715-.776,20.509a.326.326,0,0,1-.325.3" transform="translate(-782.78 -1233.589)" fill="#fbeb5c"/>
        <path id="Trazado_170860" data-name="Trazado 170860" d="M527.75,1639.827c6.439,7.58,12.066,14.554,26.035,16.253-2.266-5.44-9.208-17.451-26.035-16.253" transform="translate(-475.878 -1478.574)" fill="#fbeb5c"/>
        <path id="Trazado_170861" data-name="Trazado 170861" d="M973.973,1610.216a63.062,63.062,0,0,0,14.01-20.476,59.617,59.617,0,0,0-10.327,1.705c-.435.111-1.406,3.258-1.835,3.377-.481.133-1.6-2.423-2.075-2.281a71.913,71.913,0,0,0-31.567,20.039,56.72,56.72,0,0,0,31.794-2.364" transform="translate(-849.573 -1433.486)" fill="#fbeb5c"/>
        <path id="Trazado_170862" data-name="Trazado 170862" d="M1157.527,1629.734a.326.326,0,0,1-.181-.6l21.449-14.289a.326.326,0,1,1,.361.542l-21.449,14.289a.323.323,0,0,1-.18.055" transform="translate(-1043.461 -1456.076)" fill="#fbeb5c"/>
        <path id="Trazado_170863" data-name="Trazado 170863" d="M1415.451,753.672a5.559,5.559,0,0,1-2.838-2.027c-.652-.989-2.748-2.943-2.009-3.948a7.96,7.96,0,0,1,5.165-1.515,9.551,9.551,0,0,1,5.44,1.653c2.968,1.574,2,4.132,5.1,5.509,1.1.488,5.239.3,7.919,3.236,4.355,4.778,6.092,7.744-2.479,13.084-5.789,3.607-7.4.045-11.5-4.476-6.7-7.382.2-9.473-4.794-11.517" transform="translate(-1271.816 -672.834)" fill="#12263f"/>
        <path id="Trazado_170864" data-name="Trazado 170864" d="M1483.3,1683.894l.192,7.139,2.521.273,1.247-7.682Z" transform="translate(-1337.51 -1518.141)" fill="#fff"/>
        <path id="Trazado_170865" data-name="Trazado 170865" d="M1483.025,1688.64l-.036,0-2.521-.273a.326.326,0,0,1-.291-.315l-.192-7.138a.326.326,0,0,1,.3-.334l3.961-.271a.326.326,0,0,1,.344.377l-1.247,7.682a.326.326,0,0,1-.321.274m-2.2-.892,1.931.209,1.132-6.972-3.239.222Z" transform="translate(-1334.519 -1515.15)" fill="#12263f"/>
        <path id="Trazado_170866" data-name="Trazado 170866" d="M1334.054,1710.225l-.4,5.686,3.332.272,1.189-5.958Z" transform="translate(-1202.569 -1542.129)" fill="#fff"/>
        <path id="Trazado_170867" data-name="Trazado 170867" d="M1333.994,1713.519h-.027l-3.332-.272a.326.326,0,0,1-.3-.348l.4-5.686a.326.326,0,0,1,.325-.3h4.119a.326.326,0,0,1,.32.39l-1.189,5.958a.326.326,0,0,1-.319.262m-2.984-.9,2.721.223,1.055-5.284h-3.418Z" transform="translate(-1199.578 -1539.139)" fill="#12263f"/>
        <path id="Trazado_170868" data-name="Trazado 170868" d="M1269.609,1745.83a.856.856,0,0,0,.379-.69,9.773,9.773,0,0,0-.312-3.279c-.447-.886-2.289.349-2.289.349a8.213,8.213,0,0,0-1.709-1.808c-.327-.163-2.239,1.11-4.166,2.845-2.112,1.9-3.066,2.508-3.521,4.147a1.277,1.277,0,0,0,1.148,1.6,16.841,16.841,0,0,0,10.47-3.163" transform="translate(-1134.304 -1569.326)" fill="#febf10"/>
        <path id="Trazado_170869" data-name="Trazado 170869" d="M1257,1746.456c-.325,0-.618-.012-.876-.031a1.61,1.61,0,0,1-1.2-.681,1.573,1.573,0,0,1-.234-1.331c.409-1.474,1.224-2.191,2.7-3.492.277-.244.581-.511.913-.81.151-.135,3.693-3.311,4.529-2.894a6.846,6.846,0,0,1,1.647,1.666,3.013,3.013,0,0,1,1.923-.524.871.871,0,0,1,.573.463,9.35,9.35,0,0,1,.347,3.434,1.181,1.181,0,0,1-.524.953,17.724,17.724,0,0,1-9.8,3.248m5.585-8.632a15.1,15.1,0,0,0-3.847,2.772c-.335.3-.64.57-.919.815-1.475,1.3-2.149,1.89-2.506,3.177a.923.923,0,0,0,.139.781.958.958,0,0,0,.718.407,16.518,16.518,0,0,0,10.266-3.11.528.528,0,0,0,.233-.427,8.8,8.8,0,0,0-.277-3.124.221.221,0,0,0-.156-.125,3.024,3.024,0,0,0-1.659.6.326.326,0,0,1-.446-.08,7.949,7.949,0,0,0-1.546-1.683" transform="translate(-1131.316 -1566.433)" fill="#12263f"/>
        <path id="Trazado_170870" data-name="Trazado 170870" d="M1267.4,1782.589a9.719,9.719,0,0,1-2.056-.191.326.326,0,0,1,.148-.635,12.733,12.733,0,0,0,10.035-2.753.326.326,0,1,1,.407.51,13.6,13.6,0,0,1-8.533,3.069" transform="translate(-1140.747 -1604.089)" fill="#12263f"/>
        <path id="Trazado_170871" data-name="Trazado 170871" d="M1473.168,1733.929l.037-3.908a1.179,1.179,0,0,1,1.858-.222s.993-1.393,2.837.343c0,0,2.595,4.836,3.743,7.713a1.189,1.189,0,0,1-1.071,1.633,7.191,7.191,0,0,1-3.4-.49,24.194,24.194,0,0,1-3.625-3.95,1.8,1.8,0,0,1-.378-1.12" transform="translate(-1328.372 -1559.302)" fill="#febf10"/>
        <path id="Trazado_170872" data-name="Trazado 170872" d="M1477.109,1736.829a6.07,6.07,0,0,1-3.11-.552,23.76,23.76,0,0,1-3.7-4.02,2.132,2.132,0,0,1-.446-1.323l.037-3.908a.326.326,0,0,1,.054-.177,1.766,1.766,0,0,1,1.121-.735,1.406,1.406,0,0,1,.98.257,1.73,1.73,0,0,1,.954-.41,2.805,2.805,0,0,1,2.135.952.323.323,0,0,1,.064.083c.026.049,2.617,4.886,3.759,7.747a1.515,1.515,0,0,1-1.366,2.08c-.165,0-.326.006-.482.006m-6.931-5.891.326,0a1.478,1.478,0,0,0,.309.917,24.231,24.231,0,0,0,3.551,3.88,6.616,6.616,0,0,0,3.211.434.845.845,0,0,0,.694-.384.859.859,0,0,0,.082-.8c-1.068-2.676-3.431-7.124-3.7-7.633a2.2,2.2,0,0,0-1.586-.742,1.088,1.088,0,0,0-.724.387.326.326,0,0,1-.483.053.914.914,0,0,0-.705-.29,1.033,1.033,0,0,0-.61.381l-.036,3.8Z" transform="translate(-1325.382 -1556.311)" fill="#12263f"/>
        <path id="Trazado_170873" data-name="Trazado 170873" d="M1489.447,1734.09h0a.326.326,0,0,1-.326-.326v-2.107a.326.326,0,0,1,.326-.326h0a.326.326,0,0,1,.326.326v2.107a.326.326,0,0,1-.326.326" transform="translate(-1342.757 -1561.16)" fill="#12263f"/>
        <path id="Trazado_170874" data-name="Trazado 170874" d="M1324.822,1175.239a170.619,170.619,0,0,1,.609-27.262c1.56-12.91,7.362-31.345,7.362-31.345a73.994,73.994,0,0,1,10.787.327c4.544.611,6.343-.018,6.343-.018s3.392,3.884,3.116,11.187-8.193,38.106-7.893,45.335a10.369,10.369,0,0,1-6.11.673l1.429-41.514s-2.957,8.546-4.345,14.4a28.029,28.029,0,0,1-3.095,7.86s.083,11.1-2.463,20.3a10.711,10.711,0,0,1-5.74.052" transform="translate(-1194.348 -1006.82)" fill="#12263f"/>
        <path id="Trazado_170875" data-name="Trazado 170875" d="M1375.247,1523.1a.326.326,0,0,1-.268-.51l2.18-3.172a.326.326,0,1,1,.537.369l-2.18,3.172a.326.326,0,0,1-.269.141" transform="translate(-1239.782 -1369.949)" fill="#fff"/>
        <path id="Trazado_170876" data-name="Trazado 170876" d="M1512.967,1467.273a5.814,5.814,0,0,1-1.325-.147.326.326,0,0,1,.161-.632,4.54,4.54,0,0,0,3.377-.513.326.326,0,0,1,.388.524,4.352,4.352,0,0,1-2.6.767" transform="translate(-1362.842 -1321.834)" fill="#fff"/>
        <path id="Trazado_170877" data-name="Trazado 170877" d="M1365.747,1092.528s-.957,3.282,13.326,4.081,11.894-3.259,11.894-3.259l-15-4.369Z" transform="translate(-1231.497 -981.946)" fill="#12263f"/>
        <path id="Trazado_170878" data-name="Trazado 170878" d="M1150.766,864.933l5.361,2.894s3.286,8.571,7.99,9.086,9.357-5.99,9.357-5.99l3.122,6.681s-4.585,7.09-11.856,5.947-9.253-12.066-9.253-12.066a2.35,2.35,0,0,1-2.371-1.509,3.957,3.957,0,0,1-.322-2.271s-2.583-1.379-2.029-2.773" transform="translate(-1037.588 -779.92)" fill="#fff"/>
        <path id="Trazado_170879" data-name="Trazado 170879" d="M1163.31,881.01a10.362,10.362,0,0,1-1.615-.127c-6.849-1.076-9.1-10.294-9.469-12.055-.07,0-.151-.012-.243-.024a2.605,2.605,0,0,1-2.165-1.7,4.851,4.851,0,0,1-.375-2.217c-.644-.386-2.532-1.663-1.975-3.065a.326.326,0,0,1,.458-.167l5.361,2.894a.325.325,0,0,1,.15.17c.032.084,3.27,8.391,7.722,8.879s9.011-5.792,9.056-5.856a.326.326,0,0,1,.561.052l3.123,6.681a.326.326,0,0,1-.021.315c-.044.067-4.1,6.218-10.566,6.219m-10.817-12.841a.332.332,0,0,1,.054,0,.327.327,0,0,1,.267.263c.019.107,2.026,10.709,8.983,11.8,6.4,1,10.728-4.663,11.431-5.656l-2.814-6.021c-1.11,1.418-4.8,5.717-8.749,5.717a5.294,5.294,0,0,1-.578-.031c-4.6-.5-7.788-8.109-8.215-9.18l-4.847-2.616c.118.983,1.908,1.967,1.928,1.978a.326.326,0,0,1,.161.374,3.767,3.767,0,0,0,.312,2.067,2.031,2.031,0,0,0,2.014,1.3.315.315,0,0,1,.053,0" transform="translate(-1034.593 -776.93)" fill="#12263f"/>
        <path id="Trazado_170880" data-name="Trazado 170880" d="M1179.45,889.656a.326.326,0,0,1-.1-.014,1.953,1.953,0,0,1-1.343-1.411,1.481,1.481,0,0,0-.445-.82,1.6,1.6,0,0,1-.474-1.144v-.208a.326.326,0,0,1,.447-.3l1.808.721a.326.326,0,1,1-.241.606l-1.317-.525a.95.95,0,0,0,.238.39,2.124,2.124,0,0,1,.631,1.193c.085.616.882.875.89.877a.326.326,0,0,1-.1.637" transform="translate(-1061.397 -798.677)" fill="#12263f"/>
        <path id="Trazado_170881" data-name="Trazado 170881" d="M1569.157,933.546s3.306,7.437,8.7,8.956,9.145-3.071,9.121-7.81l-1.832-.608s-1.88,4.856-6.075,3.593-6.14-11.142-6.14-11.142Z" transform="translate(-1414.926 -835.467)" fill="#fff"/>
        <path id="Trazado_170882" data-name="Trazado 170882" d="M1576.934,940.138a7.936,7.936,0,0,1-2.16-.312c-5.475-1.543-8.768-8.827-8.906-9.137a.325.325,0,0,1,.011-.287l3.77-7.011a.326.326,0,0,1,.607.091c.019.1,1.956,9.7,5.915,10.893,3.86,1.164,5.6-3.211,5.677-3.4a.326.326,0,0,1,.406-.192l1.832.608a.326.326,0,0,1,.224.308,8.882,8.882,0,0,1-3.278,7.044,6.686,6.686,0,0,1-4.1,1.393m-10.4-9.571c.49,1.029,3.647,7.286,8.42,8.631a6.227,6.227,0,0,0,5.686-.973,8.19,8.19,0,0,0,3.019-6.289l-1.327-.44c-.437.916-2.013,3.726-4.9,3.727a5.006,5.006,0,0,1-1.449-.224c-3.625-1.092-5.585-8.046-6.175-10.527Z" transform="translate(-1411.935 -832.478)" fill="#12263f"/>
        <path id="Trazado_170883" data-name="Trazado 170883" d="M1365.859,891.664s3.315-4.326,12.679-3.518c11.183.965,12.035,3.175,12.035,3.175l-2.919,5.915,3.426,14.928s-2.34,1.939-7.823.85-14.905-2.424-17.4-1.672l3.473-14.245Z" transform="translate(-1231.61 -800.76)" fill="#fff"/>
        <path id="Trazado_170884" data-name="Trazado 170884" d="M1383.439,910.673a16.632,16.632,0,0,1-3.237-.34c-5.548-1.1-14.863-2.4-17.239-1.68a.326.326,0,0,1-.411-.389l3.44-14.109-3.4-5.315a.326.326,0,0,1,.016-.374c.14-.182,3.531-4.458,12.967-3.644,11.066.955,12.216,3.136,12.311,3.382a.325.325,0,0,1-.012.262l-2.868,5.811,3.4,14.815a.326.326,0,0,1-.11.324c-.078.065-1.568,1.258-4.858,1.258m-18.288-2.872a95.926,95.926,0,0,1,15.178,1.893c4.464.887,6.79-.294,7.393-.672l-3.376-14.713a.326.326,0,0,1,.026-.217l2.836-5.745c-.37-.408-2.415-2.075-11.687-2.875-7.994-.689-11.51,2.454-12.244,3.225l3.342,5.225a.326.326,0,0,1,.042.253l-3.35,13.739a12.411,12.411,0,0,1,1.842-.112" transform="translate(-1228.619 -797.76)" fill="#12263f"/>
        <path id="Trazado_170885" data-name="Trazado 170885" d="M1594.222,909.68l-13.347.539a.578.578,0,0,1-.492-.88l8.643-15.794a.909.909,0,0,1,.775-.433l13.492.308Z" transform="translate(-1424.971 -805.329)" fill="#fbeb5c"/>
        <path id="Trazado_170886" data-name="Trazado 170886" d="M1599.582,910.219h-14.407l9.45-17.107h14.407Z" transform="translate(-1429.37 -805.328)" fill="#fbeb5c"/>
        <path id="Trazado_170887" data-name="Trazado 170887" d="M1596.591,907.554h-14.407a.326.326,0,0,1-.286-.484l9.45-17.107a.326.326,0,0,1,.285-.168h14.407a.326.326,0,0,1,.285.484l-9.449,17.107a.326.326,0,0,1-.285.168m-13.855-.652H1596.4l9.089-16.455h-13.662Z" transform="translate(-1426.379 -802.338)" fill="#12263f"/>
        <path id="Trazado_170888" data-name="Trazado 170888" d="M1734.021,999.711a6.321,6.321,0,0,1,0-2.365,23.243,23.243,0,0,1,2.429-4.35c.48-.589.887,5.7-2.429,6.716" transform="translate(-1563.477 -895.36)" fill="#fff"/>
        <path id="Trazado_170889" data-name="Trazado 170889" d="M1731.031,997.048a.326.326,0,0,1-.32-.265,6.583,6.583,0,0,1,.007-2.516,22.99,22.99,0,0,1,2.49-4.466.392.392,0,0,1,.449-.135c.331.123.481.776.447,1.94-.066,2.2-.882,4.787-2.977,5.429a.323.323,0,0,1-.1.014m2.386-6.421a22.72,22.72,0,0,0-2.072,3.82,5.137,5.137,0,0,0-.051,1.824,3.462,3.462,0,0,0,1.644-1.991,8.435,8.435,0,0,0,.479-3.653" transform="translate(-1560.487 -892.371)" fill="#12263f"/>
        <path id="Trazado_170890" data-name="Trazado 170890" d="M1429.321,770.469c-.125-.2.466-1.264.486-1.652s-.283-.714-.41-1.122a3.027,3.027,0,0,1,.015-1.134c.173-4.867,5.476-3.712,5.476-3.712a3.736,3.736,0,0,1,2.169,2.646,7.424,7.424,0,0,1-.383,3.89c.036.08.905,5.779.943,5.853.551,1.059-3.141,1.752-4.3.685-.392-.36.11-3.008,0-3.011-.435-.011-.968.455-1.516.31-.808-.214-1.416-2.237-1.532-2.388a.971.971,0,0,0-.438-.158c-.216-.05-.442-.1-.507-.207" transform="translate(-1288.819 -687.761)" fill="#fff"/>
        <path id="Trazado_170891" data-name="Trazado 170891" d="M1432.185,773.771a3.158,3.158,0,0,1-2.09-.618c-.324-.3-.3-1.068-.143-2.575.01-.089.02-.182.028-.269l-.133.051a1.788,1.788,0,0,1-1.132.166c-.695-.184-1.184-1.193-1.609-2.256-.031-.079-.066-.165-.09-.22-.061-.021-.168-.045-.245-.063a1.093,1.093,0,0,1-.726-.354c-.151-.239-.041-.543.2-1.155a3.739,3.739,0,0,0,.233-.689,1.13,1.13,0,0,0-.18-.518,3.077,3.077,0,0,1-.216-.49,3.161,3.161,0,0,1,0-1.268,4.058,4.058,0,0,1,1.452-3.223,5.95,5.95,0,0,1,4.418-.771l.025.006a4,4,0,0,1,2.391,2.876,7.548,7.548,0,0,1-.361,4c.043.234.143.861.43,2.688.2,1.245.437,2.783.485,3.026a.827.827,0,0,1-.332,1.033,4.368,4.368,0,0,1-2.411.621m-1.637-1.087c.782.7,2.953.485,3.652-.051.188-.144.152-.213.13-.254a30.691,30.691,0,0,1-.531-3.187c-.189-1.207-.4-2.573-.437-2.728a.327.327,0,0,1,.01-.208,7.146,7.146,0,0,0,.371-3.69,3.448,3.448,0,0,0-1.935-2.411,5.349,5.349,0,0,0-3.87.652,3.454,3.454,0,0,0-1.2,2.755.294.294,0,0,1-.006.051,2.605,2.605,0,0,0-.024.975,2.492,2.492,0,0,0,.173.385,1.654,1.654,0,0,1,.252.852,3.415,3.415,0,0,1-.278.9c-.065.164-.165.414-.206.563.08.025.189.051.252.065a1.039,1.039,0,0,1,.624.277,1.808,1.808,0,0,1,.187.4c.172.431.7,1.743,1.17,1.868a1.247,1.247,0,0,0,.726-.143,1.78,1.78,0,0,1,.715-.178.341.341,0,0,1,.242.114c.122.139.11.248.034.957a7.467,7.467,0,0,0-.053,2.036m-3.917-5.3h0Z" transform="translate(-1285.819 -684.752)" fill="#12263f"/>
        <path id="Trazado_170892" data-name="Trazado 170892" d="M1403.827,759.142c.533-.54,1.075,0,3.193-.3,1.762-.247,2.271-.744,3.6-.524a3.773,3.773,0,0,1,1.706.656,4.214,4.214,0,0,1,1.537,2.473,7.431,7.431,0,0,1-.308,3.818.361.361,0,0,1-.374.246,9.354,9.354,0,0,1-1.189-.171.272.272,0,0,1-.2-.369,1.3,1.3,0,0,0,.046-.134,1.027,1.027,0,1,0-1.958-.558,1.3,1.3,0,0,0-.029.128c-.778-.589-1.178-1.256-1.9-1.614a2.622,2.622,0,0,0-1.041-.236c-1.25-.044-1.666.7-2.258.553-1.033-.25-1.792-3-.834-3.97" transform="translate(-1265.45 -683.736)" fill="#12263f"/>
        <path id="Trazado_170893" data-name="Trazado 170893" d="M1465.83,847.412a.326.326,0,0,1-.1-.637c1.6-.5,1.857-1.493,1.866-1.534a.326.326,0,0,1,.636.141,3.091,3.091,0,0,1-2.307,2.015.33.33,0,0,1-.1.015" transform="translate(-1321.461 -761.936)" fill="#12263f"/>
      </g>
    </g>
  </g>
</svg>
