<svg xmlns="http://www.w3.org/2000/svg" xmlns:xlink="http://www.w3.org/1999/xlink" width="124" height="124" viewBox="0 0 124 124">
  <defs>
    <clipPath id="clip-path">
      <rect id="Rectángulo_43570" data-name="Rectángulo 43570" width="80.016" height="65.836" fill="none"/>
    </clipPath>
    <clipPath id="clip-path-3">
      <rect id="Rectángulo_43562" data-name="Rectángulo 43562" width="21.61" height="11.92" fill="none"/>
    </clipPath>
    <clipPath id="clip-path-4">
      <rect id="Rectángulo_43564" data-name="Rectángulo 43564" width="3.88" height="1.302" fill="none"/>
    </clipPath>
    <clipPath id="clip-path-5">
      <rect id="Rectángulo_43566" data-name="Rectángulo 43566" width="3.881" height="1.302" fill="none"/>
    </clipPath>
    <clipPath id="clip-path-6">
      <rect id="Rectángulo_43567" data-name="Rectángulo 43567" width="4.593" height="2.64" fill="none"/>
    </clipPath>
    <clipPath id="clip-path-7">
      <rect id="Rectángulo_43568" data-name="Rectángulo 43568" width="2.284" height="2.355" fill="none"/>
    </clipPath>
  </defs>
  <g id="Grupo_121544" data-name="Grupo 121544" transform="translate(-948 -2312.271)">
    <g id="Elipse_6779" data-name="Elipse 6779" transform="translate(948 2312.271)" fill="#fff" stroke="#2631a0" stroke-width="4">
      <circle cx="62" cy="62" r="62" stroke="none"/>
      <circle cx="62" cy="62" r="60" fill="none"/>
    </g>
    <g id="Grupo_121526" data-name="Grupo 121526" transform="translate(969.992 2338.986)">
      <g id="Grupo_121543" data-name="Grupo 121543" clip-path="url(#clip-path)">
        <g id="Grupo_121542" data-name="Grupo 121542">
          <g id="Grupo_121541" data-name="Grupo 121541" clip-path="url(#clip-path)">
            <path id="Trazado_170698" data-name="Trazado 170698" d="M110.334,66.715H59.028a10.45,10.45,0,0,1-10.45-10.45V7.149A4.648,4.648,0,0,1,53.227,2.5h30.1a4.648,4.648,0,0,1,4.648,4.634,4.649,4.649,0,0,0,4.649,4.634h17.709a10.45,10.45,0,0,1,10.45,10.45V56.265a10.45,10.45,0,0,1-10.45,10.45" transform="translate(-41.151 -2.118)" fill="#febf10"/>
            <path id="Trazado_170699" data-name="Trazado 170699" d="M108.216,64.979H56.91A10.845,10.845,0,0,1,46.078,54.147V5.031A5.036,5.036,0,0,1,51.109,0h30.1A5.039,5.039,0,0,1,86.24,5.015a4.274,4.274,0,0,0,4.266,4.253h17.709A10.845,10.845,0,0,1,119.049,20.1V54.147a10.845,10.845,0,0,1-10.832,10.833M51.109.764a4.271,4.271,0,0,0-4.266,4.266V54.147A10.079,10.079,0,0,0,56.91,64.215h51.306a10.079,10.079,0,0,0,10.068-10.068V20.1a10.079,10.079,0,0,0-10.068-10.068H90.507a5.04,5.04,0,0,1-5.031-5.015A4.274,4.274,0,0,0,81.21.764Z" transform="translate(-39.033)"/>
            <path id="Trazado_170700" data-name="Trazado 170700" d="M110.334,132.962H59.028c-5.772,0-10.45-3.808-10.45-8.5V85.187c0-2.476,2.466-4.483,5.509-4.483h61.189c3.042,0,5.509,2.007,5.509,4.483v39.27c0,4.7-4.679,8.5-10.45,8.5" transform="translate(-41.151 -68.365)" fill="#f2f2f2"/>
            <path id="Trazado_170701" data-name="Trazado 170701" d="M108.216,131.227H56.91c-5.973,0-10.832-3.987-10.832-8.887V83.07c0-2.683,2.643-4.865,5.891-4.865h61.189c3.248,0,5.891,2.183,5.891,4.865v39.271c0,4.9-4.859,8.887-10.832,8.887M51.969,78.969c-2.827,0-5.127,1.84-5.127,4.1v39.271c0,4.479,4.516,8.122,10.068,8.122h51.306c5.552,0,10.068-3.644,10.068-8.122V83.07c0-2.261-2.3-4.1-5.126-4.1Z" transform="translate(-39.033 -66.248)"/>
            <path id="Trazado_170702" data-name="Trazado 170702" d="M110.334,104.769H59.028c-5.772,0-10.45-4.178-10.45-9.333V51.573a4.421,4.421,0,0,1,4.649-4.151H67.6a4.423,4.423,0,0,1,4.649,4.138A4.423,4.423,0,0,0,76.9,55.7h33.432c5.772,0,10.45,4.178,10.45,9.333v30.4c0,5.154-4.679,9.333-10.45,9.333" transform="translate(-41.151 -40.172)" fill="#fec62c"/>
            <path id="Trazado_170703" data-name="Trazado 170703" d="M108.216,103.033H56.91c-5.973,0-10.832-4.358-10.832-9.715V49.455a4.807,4.807,0,0,1,5.031-4.533H65.487a4.812,4.812,0,0,1,5.031,4.519A4.05,4.05,0,0,0,74.784,53.2h33.432c5.973,0,10.832,4.358,10.832,9.715v30.4c0,5.357-4.859,9.715-10.832,9.715M51.109,45.686a4.045,4.045,0,0,0-4.266,3.769V93.318c0,4.935,4.516,8.95,10.068,8.95h51.306c5.552,0,10.068-4.015,10.068-8.95v-30.4c0-4.935-4.516-8.95-10.068-8.95H74.784a4.812,4.812,0,0,1-5.031-4.519,4.05,4.05,0,0,0-4.266-3.757Z" transform="translate(-39.033 -38.054)"/>
            <path id="Trazado_170704" data-name="Trazado 170704" d="M374.24,366.8H360.624a1.916,1.916,0,0,1-1.916-1.917v-.316a1.916,1.916,0,0,1,1.916-1.917H374.24a1.917,1.917,0,0,1,1.917,1.917v.316a1.917,1.917,0,0,1-1.917,1.917" transform="translate(-303.864 -307.208)" fill="#ffc108"/>
            <path id="Trazado_170705" data-name="Trazado 170705" d="M372.122,365.069H358.507a2.3,2.3,0,0,1-2.3-2.3v-.316a2.3,2.3,0,0,1,2.3-2.3h13.616a2.3,2.3,0,0,1,2.3,2.3v.316a2.3,2.3,0,0,1-2.3,2.3m-13.616-4.149a1.536,1.536,0,0,0-1.534,1.534v.316a1.536,1.536,0,0,0,1.534,1.534h13.616a1.536,1.536,0,0,0,1.534-1.534v-.316a1.536,1.536,0,0,0-1.534-1.534Z" transform="translate(-301.747 -305.09)"/>
            <path id="Trazado_170706" data-name="Trazado 170706" d="M374.24,327.371H360.624a1.917,1.917,0,0,1-1.916-1.917v-.316a1.916,1.916,0,0,1,1.916-1.917H374.24a1.917,1.917,0,0,1,1.917,1.917v.316a1.917,1.917,0,0,1-1.917,1.917" transform="translate(-303.864 -273.804)" fill="#ffc108"/>
            <path id="Trazado_170707" data-name="Trazado 170707" d="M372.122,325.636H358.507a2.3,2.3,0,0,1-2.3-2.3v-.316a2.3,2.3,0,0,1,2.3-2.3h13.616a2.3,2.3,0,0,1,2.3,2.3v.316a2.3,2.3,0,0,1-2.3,2.3m-13.616-4.149a1.536,1.536,0,0,0-1.534,1.534v.316a1.536,1.536,0,0,0,1.534,1.534h13.616a1.536,1.536,0,0,0,1.534-1.534v-.316a1.536,1.536,0,0,0-1.534-1.534Z" transform="translate(-301.747 -271.686)"/>
            <path id="Trazado_170708" data-name="Trazado 170708" d="M23.738,205.58V204.1c0-4.117,2.816-8.9,6.447-8.9h.955c3.631,0,6.447,4.786,6.447,8.9v1.476h3.88v-3.628a12.1,12.1,0,0,0-2.928-7.716,9.65,9.65,0,0,0-7.323-3.631H30.109a9.65,9.65,0,0,0-7.323,3.631,12.1,12.1,0,0,0-2.928,7.716v3.628Z" transform="translate(-16.821 -161.462)" fill="#4c53b5"/>
            <g id="Grupo_121528" data-name="Grupo 121528" transform="translate(3.036 32.198)" opacity="0.6" style="mix-blend-mode: multiply;isolation: isolate">
              <g id="Grupo_121527" data-name="Grupo 121527">
                <g id="Grupo_121526-2" data-name="Grupo 121526" clip-path="url(#clip-path-3)">
                  <path id="Trazado_170709" data-name="Trazado 170709" d="M38.539,211.167q-.256-.3-.524-.575a2.011,2.011,0,0,1-.559,2.393,1.464,1.464,0,0,1-1.545.144,7.532,7.532,0,0,1-1.032-.615,7.034,7.034,0,0,0-1.224-.615,7.612,7.612,0,0,0-2.622-.5,7.745,7.745,0,0,0-4.584,1.354,9.047,9.047,0,0,0-2.786,3.47,12.005,12.005,0,0,1-1.323,2.847,1.2,1.2,0,0,1-1.15.485,1.449,1.449,0,0,1-1.064-.9,3.148,3.148,0,0,1-.207-.9,10.818,10.818,0,0,0-.061,1.127v3.628h3.881v-1.476c0-4.117,2.816-8.9,6.447-8.9h.955c3.631,0,6.447,4.786,6.447,8.9v1.476h3.88v-3.628a12.1,12.1,0,0,0-2.928-7.716" transform="translate(-19.857 -210.592)" fill="#616263"/>
                </g>
              </g>
            </g>
            <g id="Grupo_121531" data-name="Grupo 121531" transform="translate(20.766 42.816)" opacity="0.6" style="mix-blend-mode: multiply;isolation: isolate">
              <g id="Grupo_121530" data-name="Grupo 121530">
                <g id="Grupo_121529" data-name="Grupo 121529" clip-path="url(#clip-path-4)">
                  <rect id="Rectángulo_43563" data-name="Rectángulo 43563" width="3.88" height="1.302" transform="translate(0 0)" fill="#616263"/>
                </g>
              </g>
            </g>
            <g id="Grupo_121534" data-name="Grupo 121534" transform="translate(3.036 42.816)" opacity="0.6" style="mix-blend-mode: multiply;isolation: isolate">
              <g id="Grupo_121533" data-name="Grupo 121533">
                <g id="Grupo_121532" data-name="Grupo 121532" clip-path="url(#clip-path-5)">
                  <rect id="Rectángulo_43565" data-name="Rectángulo 43565" width="3.881" height="1.302" transform="translate(0 0)" fill="#616263"/>
                </g>
              </g>
            </g>
            <path id="Trazado_170710" data-name="Trazado 170710" d="M27.629,286.314a1.42,1.42,0,0,0-.417-.577,2.116,2.116,0,0,0-.891-.366H1.276a1.67,1.67,0,0,0-.9.388,1.105,1.105,0,0,0-.364.7c0,.042-.006.1-.011.148v5.362c0,20.552,27.708,21.067,27.708,0V286.58a1.8,1.8,0,0,0-.079-.266" transform="translate(0 -241.74)" fill="#323535"/>
            <path id="Trazado_170711" data-name="Trazado 170711" d="M29.907,288.736a1.323,1.323,0,0,0-.4-.534,2.078,2.078,0,0,0-.856-.338H4.593a1.632,1.632,0,0,0-.865.359,1.009,1.009,0,0,0-.35.647c0,.039-.006.089-.01.137v4.963c0,19.023,26.615,19.5,26.615,0v-4.987a1.712,1.712,0,0,0-.075-.247" transform="translate(-2.853 -243.852)" fill="#4c53b5"/>
            <path id="Trazado_170712" data-name="Trazado 170712" d="M34.122,291.656a1.139,1.139,0,0,0-.369-.455,2.01,2.01,0,0,0-.789-.289H10.805a1.572,1.572,0,0,0-.8.306.845.845,0,0,0-.322.552c0,.033-.005.076-.01.117v4.232c0,16.22,24.515,16.626,24.515,0v-4.252a1.3,1.3,0,0,0-.07-.21" transform="translate(-8.197 -246.434)" fill="#9da1d8"/>
            <path id="Trazado_170713" data-name="Trazado 170713" d="M74.2,313.835a3.273,3.273,0,0,0-6.535,0,3.094,3.094,0,0,0,2.07,2.87l-2.354,7.053H74.2l-2.136-7.028a3.1,3.1,0,0,0,2.139-2.895" transform="translate(-57.082 -263.236)" fill="#ad561f"/>
            <path id="Trazado_170714" data-name="Trazado 170714" d="M68.558,313.835a3.152,3.152,0,0,1,2.823-3.059,3.53,3.53,0,0,0-.445-.029,3.181,3.181,0,0,0-3.267,3.088,3.094,3.094,0,0,0,2.071,2.87l-2.354,7.053h.89l2.354-7.053a3.094,3.094,0,0,1-2.071-2.87" transform="translate(-57.082 -263.236)" fill="#6c6e6e"/>
            <path id="Trazado_170715" data-name="Trazado 170715" d="M79.132,314a2.832,2.832,0,1,0-5.645,0,3.094,3.094,0,0,0,2.071,2.87L73.2,323.919h5.926l-2.136-7.028A3.1,3.1,0,0,0,79.132,314" transform="translate(-62.011 -263.397)" fill="#323535"/>
            <path id="Trazado_170716" data-name="Trazado 170716" d="M23.014,202.8s1.652-9.848,11.882-9.467c0,0-9.086.667-11.882,9.467" transform="translate(-19.495 -163.764)" fill="#aaa"/>
            <g id="Grupo_121537" data-name="Grupo 121537" transform="translate(2.199 44.803)" style="mix-blend-mode: screen;isolation: isolate">
              <g id="Grupo_121536" data-name="Grupo 121536">
                <g id="Grupo_121535" data-name="Grupo 121535" clip-path="url(#clip-path-6)">
                  <path id="Trazado_170717" data-name="Trazado 170717" d="M14.515,293.891a2.088,2.088,0,0,0,.05,1.55c.373.723,4.512-.348,4.412-1.33s-3.84-1.718-4.462-.22" transform="translate(-14.385 -293.038)" fill="#aaa"/>
                </g>
              </g>
            </g>
            <g id="Grupo_121540" data-name="Grupo 121540" transform="translate(2.164 48.392)" style="mix-blend-mode: screen;isolation: isolate">
              <g id="Grupo_121539" data-name="Grupo 121539">
                <g id="Grupo_121538" data-name="Grupo 121538" clip-path="url(#clip-path-7)">
                  <path id="Trazado_170718" data-name="Trazado 170718" d="M14.218,317.275a3.256,3.256,0,0,0,.025,1.383c.185.645,2.243-.311,2.194-1.186s-1.91-1.533-2.219-.2" transform="translate(-14.153 -316.514)" fill="#aaa"/>
                </g>
              </g>
            </g>
          </g>
        </g>
      </g>
    </g>
  </g>
</svg>
