<svg xmlns="http://www.w3.org/2000/svg" xmlns:xlink="http://www.w3.org/1999/xlink" width="925.427" height="1111.501" viewBox="0 0 925.427 1111.501">
  <defs>
    <linearGradient id="linear-gradient" x1="0.097" y1="1.043" x2="1.093" y2="-0.3" gradientUnits="objectBoundingBox">
      <stop offset="0" stop-color="#e6e6e6"/>
      <stop offset="1" stop-color="#ccc"/>
    </linearGradient>
  </defs>
  <g id="Grupo_121682" data-name="Grupo 121682" transform="translate(-369.344 -395.162)">
    <path id="Trazado_162162" data-name="Trazado 162162" d="M474.982-35.813l.271-256.4.159-653.639a1.531,1.531,0,0,0-1.532-1.532,1.53,1.53,0,0,0-1.532,1.532l-.43,910.042a6.629,6.629,0,0,0-5.107,6.445,6.64,6.64,0,0,0,6.639,6.639,6.638,6.638,0,0,0,6.638-6.639A6.631,6.631,0,0,0,474.982-35.813Z" transform="translate(1274.262 439.413) rotate(180)" fill="#5c50e5"/>
    <g id="Grupo_120911" data-name="Grupo 120911" transform="translate(431.252 1247.464)">
      <rect id="Rectángulo_41614" data-name="Rectángulo 41614" width="252.364" height="74.016" transform="translate(0)" fill="#febf10"/>
      <text id="Implementación" transform="translate(53.182 41.418)" fill="#12263f" font-size="20" font-family="Roboto-Bold, Roboto" font-weight="700"><tspan x="0" y="0">Implementación</tspan></text>
    </g>
    <path id="Trazado_171128" data-name="Trazado 171128" d="M0,0H445.563V119.95H0Z" transform="translate(577.219 395.162)" fill="#242ca3"/>
    <path id="Trazado_171129" data-name="Trazado 171129" d="M-176.754-5.684a6.038,6.038,0,0,1-2.033,4.336A7.141,7.141,0,0,1-183.621.234a6.421,6.421,0,0,1-5.162-2.209,9.058,9.058,0,0,1-1.881-6.064V-9.082a10.228,10.228,0,0,1,.867-4.336,6.5,6.5,0,0,1,2.479-2.877,6.943,6.943,0,0,1,3.744-1,6.956,6.956,0,0,1,4.758,1.582,6.488,6.488,0,0,1,2.086,4.441h-3.516a3.563,3.563,0,0,0-.92-2.4,3.407,3.407,0,0,0-2.408-.744,2.987,2.987,0,0,0-2.631,1.26,7.06,7.06,0,0,0-.9,3.908v1.289a7.556,7.556,0,0,0,.838,4.043,2.932,2.932,0,0,0,2.643,1.277,3.471,3.471,0,0,0,2.432-.744,3.361,3.361,0,0,0,.92-2.3Zm1.559-.773a7.52,7.52,0,0,1,.727-3.363,5.319,5.319,0,0,1,2.092-2.285,6.1,6.1,0,0,1,3.17-.809,5.774,5.774,0,0,1,4.189,1.57,6.3,6.3,0,0,1,1.811,4.266l.023.867a6.627,6.627,0,0,1-1.629,4.682A5.662,5.662,0,0,1-169.184.234a5.69,5.69,0,0,1-4.377-1.758A6.744,6.744,0,0,1-175.2-6.3Zm3.387.24a4.74,4.74,0,0,0,.68,2.764,2.242,2.242,0,0,0,1.945.957,2.247,2.247,0,0,0,1.922-.945,5.186,5.186,0,0,0,.691-3.022,4.692,4.692,0,0,0-.691-2.746,2.248,2.248,0,0,0-1.945-.974,2.211,2.211,0,0,0-1.922.968A5.274,5.274,0,0,0-171.809-6.217Zm13.828-6.463.105,1.465a4.427,4.427,0,0,1,3.645-1.7,3.679,3.679,0,0,1,3,1.184,5.522,5.522,0,0,1,1.008,3.539V0h-3.387V-8.109a2.2,2.2,0,0,0-.469-1.564,2.1,2.1,0,0,0-1.559-.486,2.33,2.33,0,0,0-2.145,1.219V0h-3.387V-12.68ZM-143.6-15.8v3.117h2.168V-10.2H-143.6v6.328a1.511,1.511,0,0,0,.27,1.008,1.354,1.354,0,0,0,1.031.3,5.4,5.4,0,0,0,1-.082V-.07a6.972,6.972,0,0,1-2.051.3q-3.562,0-3.633-3.6V-10.2h-1.852V-12.68h1.852V-15.8Zm11.18,6.293a9.2,9.2,0,0,0-1.219-.094,2.481,2.481,0,0,0-2.52,1.3V0h-3.387V-12.68h3.2l.094,1.512a3.138,3.138,0,0,1,2.824-1.746,3.549,3.549,0,0,1,1.055.152Zm.68,3.047a7.52,7.52,0,0,1,.727-3.363,5.319,5.319,0,0,1,2.092-2.285,6.1,6.1,0,0,1,3.17-.809,5.774,5.774,0,0,1,4.189,1.57,6.3,6.3,0,0,1,1.811,4.266l.023.867a6.627,6.627,0,0,1-1.629,4.682A5.662,5.662,0,0,1-125.73.234a5.69,5.69,0,0,1-4.377-1.758A6.744,6.744,0,0,1-131.742-6.3Zm3.387.24a4.74,4.74,0,0,0,.68,2.764,2.242,2.242,0,0,0,1.945.957,2.247,2.247,0,0,0,1.922-.945,5.186,5.186,0,0,0,.691-3.022,4.692,4.692,0,0,0-.691-2.746,2.248,2.248,0,0,0-1.945-.974,2.211,2.211,0,0,0-1.922.968A5.274,5.274,0,0,0-128.355-6.217ZM-114.07,0h-3.4V-18h3.4Zm3.668,4.277-1.77-.926.422-.762a6.089,6.089,0,0,0,.809-2.848V-2.883h2.859l-.012,2.344a6.088,6.088,0,0,1-.656,2.625A6.729,6.729,0,0,1-110.4,4.277ZM-94.172-2.5a2.221,2.221,0,0,0,1.523-.516,1.807,1.807,0,0,0,.609-1.371h3.176a4.344,4.344,0,0,1-.7,2.361A4.64,4.64,0,0,1-91.459-.357a5.923,5.923,0,0,1-2.654.592A5.5,5.5,0,0,1-98.4-1.494a6.84,6.84,0,0,1-1.57-4.775v-.223a6.762,6.762,0,0,1,1.559-4.676,5.441,5.441,0,0,1,4.277-1.746,5.333,5.333,0,0,1,3.814,1.354,4.792,4.792,0,0,1,1.459,3.6h-3.176a2.327,2.327,0,0,0-.609-1.608,2.032,2.032,0,0,0-1.547-.619,2.04,2.04,0,0,0-1.787.863,5,5,0,0,0-.6,2.8v.352a5.063,5.063,0,0,0,.6,2.817A2.065,2.065,0,0,0-94.172-2.5Zm6.715-3.961A7.52,7.52,0,0,1-86.73-9.82a5.319,5.319,0,0,1,2.092-2.285,6.1,6.1,0,0,1,3.17-.809,5.774,5.774,0,0,1,4.189,1.57,6.3,6.3,0,0,1,1.811,4.266l.023.867a6.627,6.627,0,0,1-1.629,4.682A5.662,5.662,0,0,1-81.445.234a5.69,5.69,0,0,1-4.377-1.758A6.744,6.744,0,0,1-87.457-6.3Zm3.387.24a4.74,4.74,0,0,0,.68,2.764,2.242,2.242,0,0,0,1.945.957,2.247,2.247,0,0,0,1.922-.945,5.186,5.186,0,0,0,.691-3.022,4.692,4.692,0,0,0-.691-2.746,2.248,2.248,0,0,0-1.945-.974,2.211,2.211,0,0,0-1.922.968A5.274,5.274,0,0,0-84.07-6.217Zm13.828-6.463.105,1.465a4.427,4.427,0,0,1,3.645-1.7,3.679,3.679,0,0,1,3,1.184,5.522,5.522,0,0,1,1.008,3.539V0h-3.387V-8.109a2.2,2.2,0,0,0-.469-1.564A2.1,2.1,0,0,0-67.9-10.16a2.33,2.33,0,0,0-2.145,1.219V0H-73.43V-12.68ZM-53.051-3.5a1.091,1.091,0,0,0-.615-.979,6.989,6.989,0,0,0-1.975-.639q-4.523-.949-4.523-3.844a3.484,3.484,0,0,1,1.4-2.818A5.649,5.649,0,0,1-55.1-12.914a6.08,6.08,0,0,1,3.861,1.137,3.582,3.582,0,0,1,1.447,2.953H-53.18a1.639,1.639,0,0,0-.469-1.2,1.984,1.984,0,0,0-1.465-.475,2.027,2.027,0,0,0-1.324.387,1.221,1.221,0,0,0-.469.984,1.044,1.044,0,0,0,.533.908,5.485,5.485,0,0,0,1.8.6,14.693,14.693,0,0,1,2.133.568q2.684.984,2.684,3.41A3.307,3.307,0,0,1-51.246-.838,6.42,6.42,0,0,1-55.09.234a6.706,6.706,0,0,1-2.83-.568,4.748,4.748,0,0,1-1.939-1.559,3.621,3.621,0,0,1-.7-2.139h3.211a1.768,1.768,0,0,0,.668,1.383,2.649,2.649,0,0,0,1.664.48,2.452,2.452,0,0,0,1.471-.369A1.149,1.149,0,0,0-53.051-3.5ZM-41.742.234a6.225,6.225,0,0,1-4.541-1.711,6.082,6.082,0,0,1-1.752-4.559v-.328A7.66,7.66,0,0,1-47.3-9.779a5.418,5.418,0,0,1,2.092-2.32,5.871,5.871,0,0,1,3.088-.814,5.262,5.262,0,0,1,4.1,1.641,6.667,6.667,0,0,1,1.494,4.652v1.383H-44.6a3.146,3.146,0,0,0,.99,1.992,2.993,2.993,0,0,0,2.092.75,3.656,3.656,0,0,0,3.059-1.418L-36.8-2.051A5.084,5.084,0,0,1-38.859-.369,6.767,6.767,0,0,1-41.742.234Zm-.387-10.418a2.116,2.116,0,0,0-1.635.683,3.535,3.535,0,0,0-.8,1.954h4.711v-.271a2.521,2.521,0,0,0-.609-1.748A2.183,2.183,0,0,0-42.129-10.184Zm14.648.68A9.2,9.2,0,0,0-28.7-9.6a2.481,2.481,0,0,0-2.52,1.3V0h-3.387V-12.68h3.2l.094,1.512a3.138,3.138,0,0,1,2.824-1.746,3.549,3.549,0,0,1,1.055.152Zm6.586,5.367,2.355-8.543H-15L-19.277,0h-3.234l-4.277-12.68h3.539ZM-6.34,0a3.761,3.761,0,0,1-.34-1.137A4.1,4.1,0,0,1-9.879.234,4.5,4.5,0,0,1-12.967-.844a3.467,3.467,0,0,1-1.225-2.719A3.583,3.583,0,0,1-12.7-6.656a7.373,7.373,0,0,1,4.318-1.09H-6.82v-.727a2.089,2.089,0,0,0-.451-1.406A1.775,1.775,0,0,0-8.7-10.406a2.018,2.018,0,0,0-1.342.41,1.393,1.393,0,0,0-.486,1.125H-13.91a3.4,3.4,0,0,1,.68-2.039,4.493,4.493,0,0,1,1.922-1.471,7,7,0,0,1,2.789-.533A5.534,5.534,0,0,1-4.8-11.736,4.12,4.12,0,0,1-3.422-8.426v5.5a6.062,6.062,0,0,0,.5,2.73V0Zm-2.8-2.355a2.917,2.917,0,0,0,1.383-.334,2.194,2.194,0,0,0,.938-.9v-2.18H-8.086q-2.543,0-2.707,1.758l-.012.2a1.356,1.356,0,0,0,.445,1.043A1.73,1.73,0,0,0-9.141-2.355ZM4.453-2.5a2.221,2.221,0,0,0,1.523-.516,1.807,1.807,0,0,0,.609-1.371H9.762a4.344,4.344,0,0,1-.7,2.361A4.64,4.64,0,0,1,7.166-.357,5.923,5.923,0,0,1,4.512.234,5.5,5.5,0,0,1,.223-1.494,6.84,6.84,0,0,1-1.348-6.27v-.223A6.762,6.762,0,0,1,.211-11.168a5.441,5.441,0,0,1,4.277-1.746A5.333,5.333,0,0,1,8.3-11.561a4.792,4.792,0,0,1,1.459,3.6H6.586a2.327,2.327,0,0,0-.609-1.608,2.032,2.032,0,0,0-1.547-.619,2.04,2.04,0,0,0-1.787.863,5,5,0,0,0-.6,2.8v.352a5.063,5.063,0,0,0,.6,2.817A2.065,2.065,0,0,0,4.453-2.5ZM15.27,0h-3.4V-12.68h3.4Zm-3.6-15.961a1.668,1.668,0,0,1,.51-1.254,1.915,1.915,0,0,1,1.389-.492,1.919,1.919,0,0,1,1.383.492,1.658,1.658,0,0,1,.516,1.254,1.663,1.663,0,0,1-.521,1.266,1.924,1.924,0,0,1-1.377.492,1.924,1.924,0,0,1-1.377-.492A1.663,1.663,0,0,1,11.672-15.961Zm5.859,9.5a7.52,7.52,0,0,1,.727-3.363,5.319,5.319,0,0,1,2.092-2.285,6.1,6.1,0,0,1,3.17-.809,5.774,5.774,0,0,1,4.189,1.57A6.3,6.3,0,0,1,29.52-7.078l.023.867a6.627,6.627,0,0,1-1.629,4.682A5.662,5.662,0,0,1,23.543.234a5.69,5.69,0,0,1-4.377-1.758A6.744,6.744,0,0,1,17.531-6.3Zm3.387.24a4.74,4.74,0,0,0,.68,2.764,2.242,2.242,0,0,0,1.945.957,2.247,2.247,0,0,0,1.922-.945,5.186,5.186,0,0,0,.691-3.022,4.692,4.692,0,0,0-.691-2.746,2.248,2.248,0,0,0-1.945-.974,2.211,2.211,0,0,0-1.922.968A5.274,5.274,0,0,0,20.918-6.217ZM24.188-18h3.691l-3.246,3.633H21.879Zm10.559,5.32.105,1.465a4.427,4.427,0,0,1,3.645-1.7,3.679,3.679,0,0,1,3,1.184A5.522,5.522,0,0,1,42.5-8.191V0H39.117V-8.109a2.2,2.2,0,0,0-.469-1.564,2.1,2.1,0,0,0-1.559-.486,2.33,2.33,0,0,0-2.145,1.219V0H31.559V-12.68ZM55.781-4.793l2.344-7.887h3.633L56.66,1.969l-.281.668a3.865,3.865,0,0,1-3.75,2.484,5.329,5.329,0,0,1-1.5-.223V2.332l.516.012a2.786,2.786,0,0,0,1.436-.293,1.925,1.925,0,0,0,.744-.973l.4-1.043L49.781-12.68h3.645ZM68.543-6.434a7.641,7.641,0,0,1,1.33-4.723,4.316,4.316,0,0,1,3.639-1.758,3.884,3.884,0,0,1,3.059,1.383V-18h3.4V0H76.91l-.164-1.348A3.985,3.985,0,0,1,73.488.234,4.3,4.3,0,0,1,69.9-1.529,7.887,7.887,0,0,1,68.543-6.434Zm3.387.252a5.005,5.005,0,0,0,.621,2.735,2.023,2.023,0,0,0,1.8.951A2.266,2.266,0,0,0,76.57-3.822V-8.834a2.234,2.234,0,0,0-2.191-1.326Q71.93-10.16,71.93-6.181ZM86.168,0h-3.4V-12.68h3.4Zm-3.6-15.961a1.668,1.668,0,0,1,.51-1.254,1.915,1.915,0,0,1,1.389-.492,1.919,1.919,0,0,1,1.383.492,1.658,1.658,0,0,1,.516,1.254,1.663,1.663,0,0,1-.521,1.266,1.924,1.924,0,0,1-1.377.492,1.924,1.924,0,0,1-1.377-.492A1.663,1.663,0,0,1,82.57-15.961ZM95.824-3.5a1.091,1.091,0,0,0-.615-.979,6.989,6.989,0,0,0-1.975-.639q-4.523-.949-4.523-3.844a3.484,3.484,0,0,1,1.4-2.818,5.649,5.649,0,0,1,3.662-1.131,6.08,6.08,0,0,1,3.861,1.137,3.582,3.582,0,0,1,1.447,2.953H95.7a1.639,1.639,0,0,0-.469-1.2,1.984,1.984,0,0,0-1.465-.475,2.027,2.027,0,0,0-1.324.387,1.221,1.221,0,0,0-.469.984,1.044,1.044,0,0,0,.533.908,5.485,5.485,0,0,0,1.8.6,14.693,14.693,0,0,1,2.133.568q2.684.984,2.684,3.41A3.307,3.307,0,0,1,97.629-.838,6.42,6.42,0,0,1,93.785.234a6.706,6.706,0,0,1-2.83-.568,4.748,4.748,0,0,1-1.939-1.559,3.621,3.621,0,0,1-.7-2.139h3.211a1.768,1.768,0,0,0,.668,1.383,2.649,2.649,0,0,0,1.664.48,2.452,2.452,0,0,0,1.471-.369A1.149,1.149,0,0,0,95.824-3.5Zm16.887-2.719a7.6,7.6,0,0,1-1.33,4.693A4.264,4.264,0,0,1,107.789.234,3.95,3.95,0,0,1,104.684-1.1V4.875H101.3V-12.68h3.141l.117,1.242a3.98,3.98,0,0,1,3.211-1.477,4.294,4.294,0,0,1,3.645,1.734,7.811,7.811,0,0,1,1.3,4.781Zm-3.387-.246A4.99,4.99,0,0,0,108.7-9.2a2.042,2.042,0,0,0-1.822-.961,2.218,2.218,0,0,0-2.191,1.219V-3.75A2.255,2.255,0,0,0,106.9-2.5Q109.324-2.5,109.324-6.469Zm4.957.012a7.52,7.52,0,0,1,.727-3.363,5.319,5.319,0,0,1,2.092-2.285,6.1,6.1,0,0,1,3.17-.809,5.774,5.774,0,0,1,4.189,1.57,6.3,6.3,0,0,1,1.811,4.266l.023.867a6.627,6.627,0,0,1-1.629,4.682A5.662,5.662,0,0,1,120.293.234a5.69,5.69,0,0,1-4.377-1.758A6.744,6.744,0,0,1,114.281-6.3Zm3.387.24a4.74,4.74,0,0,0,.68,2.764,2.242,2.242,0,0,0,1.945.957,2.247,2.247,0,0,0,1.922-.945,5.186,5.186,0,0,0,.691-3.022,4.692,4.692,0,0,0-.691-2.746,2.248,2.248,0,0,0-1.945-.974,2.211,2.211,0,0,0-1.922.968A5.274,5.274,0,0,0,117.668-6.217ZM135.246-3.5a1.091,1.091,0,0,0-.615-.979,6.989,6.989,0,0,0-1.975-.639q-4.523-.949-4.523-3.844a3.484,3.484,0,0,1,1.4-2.818,5.649,5.649,0,0,1,3.662-1.131,6.08,6.08,0,0,1,3.861,1.137A3.582,3.582,0,0,1,138.5-8.824h-3.387a1.639,1.639,0,0,0-.469-1.2,1.984,1.984,0,0,0-1.465-.475,2.027,2.027,0,0,0-1.324.387,1.221,1.221,0,0,0-.469.984,1.044,1.044,0,0,0,.533.908,5.485,5.485,0,0,0,1.8.6,14.693,14.693,0,0,1,2.133.568q2.684.984,2.684,3.41a3.307,3.307,0,0,1-1.488,2.807A6.42,6.42,0,0,1,133.207.234a6.706,6.706,0,0,1-2.83-.568,4.748,4.748,0,0,1-1.939-1.559,3.621,3.621,0,0,1-.7-2.139h3.211a1.768,1.768,0,0,0,.668,1.383,2.649,2.649,0,0,0,1.664.48,2.452,2.452,0,0,0,1.471-.369A1.149,1.149,0,0,0,135.246-3.5ZM144.293,0h-3.4V-12.68h3.4Zm-3.6-15.961a1.668,1.668,0,0,1,.51-1.254,1.915,1.915,0,0,1,1.389-.492,1.919,1.919,0,0,1,1.383.492,1.658,1.658,0,0,1,.516,1.254,1.663,1.663,0,0,1-.521,1.266,1.924,1.924,0,0,1-1.377.492,1.924,1.924,0,0,1-1.377-.492A1.663,1.663,0,0,1,140.7-15.961ZM152.355-2.5a2.221,2.221,0,0,0,1.523-.516,1.807,1.807,0,0,0,.609-1.371h3.176a4.344,4.344,0,0,1-.7,2.361,4.64,4.64,0,0,1-1.893,1.664,5.923,5.923,0,0,1-2.654.592,5.5,5.5,0,0,1-4.289-1.729,6.84,6.84,0,0,1-1.57-4.775v-.223a6.762,6.762,0,0,1,1.559-4.676,5.441,5.441,0,0,1,4.277-1.746,5.333,5.333,0,0,1,3.814,1.354,4.792,4.792,0,0,1,1.459,3.6h-3.176a2.327,2.327,0,0,0-.609-1.608,2.032,2.032,0,0,0-1.547-.619,2.04,2.04,0,0,0-1.787.863,5,5,0,0,0-.6,2.8v.352a5.063,5.063,0,0,0,.6,2.817A2.065,2.065,0,0,0,152.355-2.5ZM163.172,0h-3.4V-12.68h3.4Zm-3.6-15.961a1.668,1.668,0,0,1,.51-1.254,1.915,1.915,0,0,1,1.389-.492,1.919,1.919,0,0,1,1.383.492,1.658,1.658,0,0,1,.516,1.254,1.663,1.663,0,0,1-.521,1.266,1.924,1.924,0,0,1-1.377.492A1.924,1.924,0,0,1,160.1-14.7,1.663,1.663,0,0,1,159.574-15.961Zm5.859,9.5a7.52,7.52,0,0,1,.727-3.363,5.319,5.319,0,0,1,2.092-2.285,6.1,6.1,0,0,1,3.17-.809,5.774,5.774,0,0,1,4.189,1.57,6.3,6.3,0,0,1,1.811,4.266l.023.867a6.627,6.627,0,0,1-1.629,4.682A5.662,5.662,0,0,1,171.445.234a5.69,5.69,0,0,1-4.377-1.758A6.744,6.744,0,0,1,165.434-6.3Zm3.387.24a4.74,4.74,0,0,0,.68,2.764,2.242,2.242,0,0,0,1.945.957,2.247,2.247,0,0,0,1.922-.945,5.186,5.186,0,0,0,.691-3.022,4.692,4.692,0,0,0-.691-2.746,2.248,2.248,0,0,0-1.945-.974,2.211,2.211,0,0,0-1.922.968A5.274,5.274,0,0,0,168.82-6.217ZM172.09-18h3.691l-3.246,3.633h-2.754Zm10.559,5.32.105,1.465a4.427,4.427,0,0,1,3.645-1.7,3.679,3.679,0,0,1,3,1.184,5.522,5.522,0,0,1,1.008,3.539V0H187.02V-8.109a2.2,2.2,0,0,0-.469-1.564,2.1,2.1,0,0,0-1.559-.486,2.33,2.33,0,0,0-2.145,1.219V0h-3.387V-12.68ZM-169.986,28.566a7.641,7.641,0,0,1,1.33-4.723,4.316,4.316,0,0,1,3.639-1.758,3.884,3.884,0,0,1,3.059,1.383V17h3.4V35h-3.059l-.164-1.348a3.985,3.985,0,0,1-3.258,1.582,4.3,4.3,0,0,1-3.592-1.764A7.887,7.887,0,0,1-169.986,28.566Zm3.387.252a5.005,5.005,0,0,0,.621,2.735,2.023,2.023,0,0,0,1.8.951,2.266,2.266,0,0,0,2.215-1.326V26.166a2.234,2.234,0,0,0-2.191-1.326Q-166.6,24.84-166.6,28.819Zm16.5,6.416a6.225,6.225,0,0,1-4.541-1.711,6.082,6.082,0,0,1-1.752-4.559v-.328a7.66,7.66,0,0,1,.738-3.416,5.418,5.418,0,0,1,2.092-2.32,5.871,5.871,0,0,1,3.088-.814,5.262,5.262,0,0,1,4.1,1.641,6.667,6.667,0,0,1,1.494,4.652v1.383h-8.074a3.146,3.146,0,0,0,.99,1.992,2.993,2.993,0,0,0,2.092.75,3.656,3.656,0,0,0,3.059-1.418l1.664,1.863a5.084,5.084,0,0,1-2.062,1.682A6.767,6.767,0,0,1-150.1,35.234Zm-.387-10.418a2.116,2.116,0,0,0-1.635.683,3.535,3.535,0,0,0-.8,1.954h4.711v-.271a2.521,2.521,0,0,0-.609-1.748A2.183,2.183,0,0,0-150.486,24.816ZM-133.412,35h-3.4V17h3.4Zm10.137,0a3.761,3.761,0,0,1-.34-1.137,4.1,4.1,0,0,1-3.2,1.371,4.5,4.5,0,0,1-3.088-1.078,3.467,3.467,0,0,1-1.225-2.719,3.583,3.583,0,0,1,1.494-3.094,7.373,7.373,0,0,1,4.318-1.09h1.559v-.727a2.089,2.089,0,0,0-.451-1.406,1.775,1.775,0,0,0-1.424-.527,2.018,2.018,0,0,0-1.342.41,1.393,1.393,0,0,0-.486,1.125h-3.387a3.4,3.4,0,0,1,.68-2.039,4.493,4.493,0,0,1,1.922-1.471,7,7,0,0,1,2.789-.533,5.534,5.534,0,0,1,3.721,1.178,4.12,4.12,0,0,1,1.377,3.311v5.5a6.062,6.062,0,0,0,.5,2.73V35Zm-2.8-2.355a2.917,2.917,0,0,0,1.383-.334,2.194,2.194,0,0,0,.938-.9v-2.18h-1.266q-2.543,0-2.707,1.758l-.012.2a1.356,1.356,0,0,0,.445,1.043A1.73,1.73,0,0,0-126.076,32.645ZM-108.205,35h-3.4V22.32h3.4Zm-3.6-15.961a1.668,1.668,0,0,1,.51-1.254,1.915,1.915,0,0,1,1.389-.492,1.919,1.919,0,0,1,1.383.492,1.658,1.658,0,0,1,.516,1.254,1.663,1.663,0,0,1-.521,1.266,1.924,1.924,0,0,1-1.377.492,1.924,1.924,0,0,1-1.377-.492A1.663,1.663,0,0,1-111.8,19.039Zm9.5,3.281.105,1.465a4.427,4.427,0,0,1,3.645-1.7,3.679,3.679,0,0,1,3,1.184,5.522,5.522,0,0,1,1.008,3.539V35h-3.387V26.891a2.2,2.2,0,0,0-.469-1.564,2.1,2.1,0,0,0-1.559-.486,2.33,2.33,0,0,0-2.145,1.219V35h-3.387V22.32ZM-91.049,35V24.8h-1.887V22.32h1.887V21.242a4.377,4.377,0,0,1,1.225-3.311A4.743,4.743,0,0,1-86.4,16.754a7.917,7.917,0,0,1,1.723.234l-.035,2.625a4.318,4.318,0,0,0-1.031-.105q-1.91,0-1.91,1.793v1.02h2.52V24.8h-2.52V35Zm7.148-6.457a7.52,7.52,0,0,1,.727-3.363,5.319,5.319,0,0,1,2.092-2.285,6.1,6.1,0,0,1,3.17-.809,5.774,5.774,0,0,1,4.189,1.57,6.3,6.3,0,0,1,1.811,4.266l.023.867a6.627,6.627,0,0,1-1.629,4.682,5.662,5.662,0,0,1-4.371,1.764,5.69,5.69,0,0,1-4.377-1.758A6.744,6.744,0,0,1-83.9,28.7Zm3.387.24a4.74,4.74,0,0,0,.68,2.764,2.242,2.242,0,0,0,1.945.957,2.247,2.247,0,0,0,1.922-.945,5.186,5.186,0,0,0,.691-3.022,4.692,4.692,0,0,0-.691-2.746,2.248,2.248,0,0,0-1.945-.974,2.211,2.211,0,0,0-1.922.968A5.274,5.274,0,0,0-80.514,28.783ZM-62.678,25.5A9.2,9.2,0,0,0-63.9,25.4a2.481,2.481,0,0,0-2.52,1.3V35H-69.8V22.32h3.2l.094,1.512a3.138,3.138,0,0,1,2.824-1.746,3.549,3.549,0,0,1,1.055.152Zm4.8-3.176.105,1.418a4.456,4.456,0,0,1,3.645-1.652A3.382,3.382,0,0,1-50.76,24.02a4.354,4.354,0,0,1,3.809-1.934,3.782,3.782,0,0,1,3.07,1.2A5.521,5.521,0,0,1-42.873,26.9V35h-3.4V26.914a2.414,2.414,0,0,0-.422-1.576,1.87,1.87,0,0,0-1.488-.5,2.114,2.114,0,0,0-2.109,1.453L-50.279,35h-3.387V26.926a2.385,2.385,0,0,0-.434-1.594,1.888,1.888,0,0,0-1.477-.492,2.195,2.195,0,0,0-2.086,1.2V35h-3.387V22.32ZM-32.924,35a3.761,3.761,0,0,1-.34-1.137,4.1,4.1,0,0,1-3.2,1.371,4.5,4.5,0,0,1-3.088-1.078,3.467,3.467,0,0,1-1.225-2.719,3.583,3.583,0,0,1,1.494-3.094,7.373,7.373,0,0,1,4.318-1.09H-33.4v-.727a2.089,2.089,0,0,0-.451-1.406,1.775,1.775,0,0,0-1.424-.527,2.018,2.018,0,0,0-1.342.41,1.393,1.393,0,0,0-.486,1.125h-3.387a3.4,3.4,0,0,1,.68-2.039,4.493,4.493,0,0,1,1.922-1.471,7,7,0,0,1,2.789-.533,5.534,5.534,0,0,1,3.721,1.178,4.12,4.12,0,0,1,1.377,3.311v5.5a6.062,6.062,0,0,0,.5,2.73V35Zm-2.8-2.355a2.917,2.917,0,0,0,1.383-.334,2.194,2.194,0,0,0,.938-.9v-2.18H-34.67q-2.543,0-2.707,1.758l-.012.2a1.356,1.356,0,0,0,.445,1.043A1.73,1.73,0,0,0-35.725,32.645Zm13.594-.141a2.221,2.221,0,0,0,1.523-.516A1.807,1.807,0,0,0-20,30.617h3.176a4.344,4.344,0,0,1-.7,2.361,4.64,4.64,0,0,1-1.893,1.664,5.923,5.923,0,0,1-2.654.592,5.5,5.5,0,0,1-4.289-1.729,6.84,6.84,0,0,1-1.57-4.775v-.223a6.762,6.762,0,0,1,1.559-4.676A5.441,5.441,0,0,1-22.1,22.086a5.333,5.333,0,0,1,3.814,1.354,4.792,4.792,0,0,1,1.459,3.6H-20a2.327,2.327,0,0,0-.609-1.608,2.032,2.032,0,0,0-1.547-.619,2.04,2.04,0,0,0-1.787.863,5,5,0,0,0-.6,2.8v.352a5.063,5.063,0,0,0,.6,2.817A2.065,2.065,0,0,0-22.131,32.5ZM-11.314,35h-3.4V22.32h3.4Zm-3.6-15.961a1.668,1.668,0,0,1,.51-1.254,1.915,1.915,0,0,1,1.389-.492,1.919,1.919,0,0,1,1.383.492,1.658,1.658,0,0,1,.516,1.254,1.663,1.663,0,0,1-.521,1.266,1.924,1.924,0,0,1-1.377.492,1.924,1.924,0,0,1-1.377-.492A1.663,1.663,0,0,1-14.912,19.039Zm5.859,9.5a7.52,7.52,0,0,1,.727-3.363,5.319,5.319,0,0,1,2.092-2.285,6.1,6.1,0,0,1,3.17-.809,5.774,5.774,0,0,1,4.189,1.57,6.3,6.3,0,0,1,1.811,4.266l.023.867A6.627,6.627,0,0,1,1.33,33.471a5.662,5.662,0,0,1-4.371,1.764,5.69,5.69,0,0,1-4.377-1.758A6.744,6.744,0,0,1-9.053,28.7Zm3.387.24a4.74,4.74,0,0,0,.68,2.764,2.242,2.242,0,0,0,1.945.957,2.247,2.247,0,0,0,1.922-.945,5.186,5.186,0,0,0,.691-3.022,4.692,4.692,0,0,0-.691-2.746,2.248,2.248,0,0,0-1.945-.974,2.211,2.211,0,0,0-1.922.968A5.274,5.274,0,0,0-5.666,28.783ZM-2.4,17H1.295l-3.246,3.633H-4.705ZM8.162,22.32l.105,1.465a4.427,4.427,0,0,1,3.645-1.7,3.679,3.679,0,0,1,3,1.184,5.522,5.522,0,0,1,1.008,3.539V35H12.533V26.891a2.2,2.2,0,0,0-.469-1.564,2.1,2.1,0,0,0-1.559-.486,2.33,2.33,0,0,0-2.145,1.219V35H4.975V22.32Zm15.773,6.246a7.641,7.641,0,0,1,1.33-4.723A4.316,4.316,0,0,1,28.9,22.086a3.884,3.884,0,0,1,3.059,1.383V17h3.4V35H32.3l-.164-1.348a3.985,3.985,0,0,1-3.258,1.582,4.3,4.3,0,0,1-3.592-1.764A7.887,7.887,0,0,1,23.936,28.566Zm3.387.252a5.005,5.005,0,0,0,.621,2.735,2.023,2.023,0,0,0,1.8.951,2.266,2.266,0,0,0,2.215-1.326V26.166a2.234,2.234,0,0,0-2.191-1.326Q27.322,24.84,27.322,28.819Zm10.137-.276a7.52,7.52,0,0,1,.727-3.363,5.319,5.319,0,0,1,2.092-2.285,6.1,6.1,0,0,1,3.17-.809,5.774,5.774,0,0,1,4.189,1.57,6.3,6.3,0,0,1,1.811,4.266l.023.867a6.627,6.627,0,0,1-1.629,4.682,5.662,5.662,0,0,1-4.371,1.764,5.69,5.69,0,0,1-4.377-1.758A6.744,6.744,0,0,1,37.459,28.7Zm3.387.24a4.74,4.74,0,0,0,.68,2.764,2.442,2.442,0,0,0,3.867.012,5.186,5.186,0,0,0,.691-3.022,4.692,4.692,0,0,0-.691-2.746,2.248,2.248,0,0,0-1.945-.974,2.211,2.211,0,0,0-1.922.968A5.274,5.274,0,0,0,40.846,28.783ZM56.83,32.5a2.221,2.221,0,0,0,1.523-.516,1.807,1.807,0,0,0,.609-1.371h3.176a4.344,4.344,0,0,1-.7,2.361,4.64,4.64,0,0,1-1.893,1.664,5.923,5.923,0,0,1-2.654.592A5.5,5.5,0,0,1,52.6,33.506a6.84,6.84,0,0,1-1.57-4.775v-.223a6.762,6.762,0,0,1,1.559-4.676,5.441,5.441,0,0,1,4.277-1.746,5.333,5.333,0,0,1,3.814,1.354,4.792,4.792,0,0,1,1.459,3.6H58.963a2.327,2.327,0,0,0-.609-1.608,2.265,2.265,0,0,0-3.334.244,5,5,0,0,0-.6,2.8v.352a5.063,5.063,0,0,0,.6,2.817A2.065,2.065,0,0,0,56.83,32.5Zm14.836,1.207A4.247,4.247,0,0,1,68.2,35.234a4.005,4.005,0,0,1-3.111-1.172,5,5,0,0,1-1.1-3.434V22.32h3.387v8.2q0,1.983,1.8,1.983a2.445,2.445,0,0,0,2.367-1.2V22.32h3.4V35H71.76ZM80.678,22.32l.105,1.418a4.456,4.456,0,0,1,3.645-1.652,3.382,3.382,0,0,1,3.363,1.934A4.354,4.354,0,0,1,91.6,22.086a3.782,3.782,0,0,1,3.07,1.2A5.521,5.521,0,0,1,95.678,26.9V35h-3.4V26.914a2.414,2.414,0,0,0-.422-1.576,1.87,1.87,0,0,0-1.488-.5,2.114,2.114,0,0,0-2.109,1.453L88.271,35H84.885V26.926a2.385,2.385,0,0,0-.434-1.594,1.888,1.888,0,0,0-1.477-.492,2.195,2.195,0,0,0-2.086,1.2V35H77.5V22.32Zm23.438,12.914a6.225,6.225,0,0,1-4.541-1.711,6.082,6.082,0,0,1-1.752-4.559v-.328a7.66,7.66,0,0,1,.738-3.416,5.418,5.418,0,0,1,2.092-2.32,5.871,5.871,0,0,1,3.088-.814,5.262,5.262,0,0,1,4.1,1.641,6.667,6.667,0,0,1,1.494,4.652v1.383h-8.074a3.146,3.146,0,0,0,.99,1.992,2.993,2.993,0,0,0,2.092.75,3.656,3.656,0,0,0,3.059-1.418l1.664,1.863A5.084,5.084,0,0,1,107,34.631,6.767,6.767,0,0,1,104.115,35.234Zm-.387-10.418a2.116,2.116,0,0,0-1.635.683,3.535,3.535,0,0,0-.8,1.954H106v-.271a2.521,2.521,0,0,0-.609-1.748A2.183,2.183,0,0,0,103.729,24.816Zm10.641-2.5.105,1.465a4.427,4.427,0,0,1,3.645-1.7,3.679,3.679,0,0,1,3,1.184,5.522,5.522,0,0,1,1.008,3.539V35H118.74V26.891a2.2,2.2,0,0,0-.469-1.564,2.1,2.1,0,0,0-1.559-.486,2.33,2.33,0,0,0-2.145,1.219V35h-3.387V22.32ZM128.748,19.2V22.32h2.168V24.8h-2.168v6.328a1.511,1.511,0,0,0,.27,1.008,1.354,1.354,0,0,0,1.031.3,5.4,5.4,0,0,0,1-.082V34.93a6.972,6.972,0,0,1-2.051.3q-3.562,0-3.633-3.6V24.8H123.51V22.32h1.852V19.2ZM140.15,35a3.761,3.761,0,0,1-.34-1.137,4.1,4.1,0,0,1-3.2,1.371,4.5,4.5,0,0,1-3.088-1.078,3.467,3.467,0,0,1-1.225-2.719,3.583,3.583,0,0,1,1.494-3.094,7.373,7.373,0,0,1,4.318-1.09h1.559v-.727a2.089,2.089,0,0,0-.451-1.406,1.775,1.775,0,0,0-1.424-.527,2.018,2.018,0,0,0-1.342.41,1.393,1.393,0,0,0-.486,1.125H132.58a3.4,3.4,0,0,1,.68-2.039,4.493,4.493,0,0,1,1.922-1.471,7,7,0,0,1,2.789-.533,5.534,5.534,0,0,1,3.721,1.178,4.12,4.12,0,0,1,1.377,3.311v5.5a6.062,6.062,0,0,0,.5,2.73V35Zm-2.8-2.355a2.917,2.917,0,0,0,1.383-.334,2.194,2.194,0,0,0,.938-.9v-2.18H138.4q-2.543,0-2.707,1.758l-.012.2a1.356,1.356,0,0,0,.445,1.043A1.73,1.73,0,0,0,137.35,32.645Zm7.793-4.078a7.641,7.641,0,0,1,1.33-4.723,4.316,4.316,0,0,1,3.639-1.758,3.884,3.884,0,0,1,3.059,1.383V17h3.4V35H153.51l-.164-1.348a3.985,3.985,0,0,1-3.258,1.582,4.3,4.3,0,0,1-3.592-1.764A7.887,7.887,0,0,1,145.143,28.566Zm3.387.252a5.005,5.005,0,0,0,.621,2.735,2.023,2.023,0,0,0,1.8.951,2.266,2.266,0,0,0,2.215-1.326V26.166a2.234,2.234,0,0,0-2.191-1.326Q148.529,24.84,148.529,28.819ZM166.541,35a3.761,3.761,0,0,1-.34-1.137,4.1,4.1,0,0,1-3.2,1.371,4.5,4.5,0,0,1-3.088-1.078,3.467,3.467,0,0,1-1.225-2.719,3.583,3.583,0,0,1,1.494-3.094,7.373,7.373,0,0,1,4.318-1.09h1.559v-.727a2.089,2.089,0,0,0-.451-1.406,1.775,1.775,0,0,0-1.424-.527,2.018,2.018,0,0,0-1.342.41,1.393,1.393,0,0,0-.486,1.125h-3.387a3.4,3.4,0,0,1,.68-2.039,4.493,4.493,0,0,1,1.922-1.471,7,7,0,0,1,2.789-.533,5.534,5.534,0,0,1,3.721,1.178,4.12,4.12,0,0,1,1.377,3.311v5.5a6.062,6.062,0,0,0,.5,2.73V35Zm-2.8-2.355a2.917,2.917,0,0,0,1.383-.334,2.194,2.194,0,0,0,.938-.9v-2.18h-1.266q-2.543,0-2.707,1.758l-.012.2a1.356,1.356,0,0,0,.445,1.043A1.73,1.73,0,0,0,163.74,32.645Z" transform="translate(800 443.637)" fill="#fff"/>
    <path id="Trazado_169838" data-name="Trazado 169838" d="M390.389,261.765a1.157,1.157,0,0,1,0,1.809l-9.48,8.138a1.671,1.671,0,0,1-2.107,0,1.157,1.157,0,0,1,0-1.809l8.427-7.234c-9.008-7.733-9.008-8.543-8.427-9.043S380.328,253.129,390.389,261.765Zm-46.91-19.556h0Zm22.344,19.181h23.513v2.557H365.823ZM343.479,242.21c0,10.593,10,19.181,22.344,19.181v2.557c-13.985,0-25.323-9.733-25.323-21.739Z" transform="translate(28.844 400.402)" fill="#ffa629"/>
    <path id="Trazado_169859" data-name="Trazado 169859" d="M390.389,261.765a1.157,1.157,0,0,1,0,1.809l-9.48,8.138a1.671,1.671,0,0,1-2.107,0,1.157,1.157,0,0,1,0-1.809l8.427-7.234c-9.008-7.733-9.008-8.543-8.427-9.043S380.328,253.129,390.389,261.765Zm-46.91-19.556h0Zm22.344,19.181h23.513v2.557H365.823ZM343.479,242.21c0,10.593,10,19.181,22.344,19.181v2.557c-13.985,0-25.323-9.733-25.323-21.739Z" transform="translate(28.844 795.522)" fill="#ffa629"/>
    <path id="Trazado_169839" data-name="Trazado 169839" d="M340.5,132.208c0-.706.677-1.172,1.5-1.172s1.48.466,1.48,1.172Zm49.889,129.558a1.157,1.157,0,0,1,0,1.809l-9.48,8.138a1.671,1.671,0,0,1-2.107,0,1.157,1.157,0,0,1,0-1.809l8.427-7.234-8.427-7.234a1.157,1.157,0,0,1,0-1.809,1.671,1.671,0,0,1,2.107,0Zm-46.91-136.558v117H340.5V128.276Zm22.344,136.184h23.513v2.557H365.823ZM343.479,242.21c0,10.593,10,19.181,22.344,19.181v2.557c-13.985,0-25.323-9.733-25.323-21.739Z" transform="translate(28.844 470.945)" fill="#ffa629"/>
    <path id="Trazado_169857" data-name="Trazado 169857" d="M340.5,132.208c0-.706.677-1.172,1.5-1.172s1.48.466,1.48,1.172Zm49.889,129.558a1.157,1.157,0,0,1,0,1.809l-9.48,8.138a1.671,1.671,0,0,1-2.107,0,1.157,1.157,0,0,1,0-1.809l8.427-7.234-8.427-7.234a1.157,1.157,0,0,1,0-1.809,1.671,1.671,0,0,1,2.107,0Zm-46.91-136.558v117H340.5V128.276Zm22.344,136.184h23.513v2.557H365.823ZM343.479,242.21c0,10.593,10,19.181,22.344,19.181v2.557c-13.985,0-25.323-9.733-25.323-21.739Z" transform="translate(28.844 860.065)" fill="#ffa629"/>
    <path id="Trazado_169862" data-name="Trazado 169862" d="M390.389,261.765a1.157,1.157,0,0,1,0,1.809l-9.48,8.138a1.671,1.671,0,0,1-2.107,0,1.157,1.157,0,0,1,0-1.809l8.427-7.234-8.427-7.234a1.157,1.157,0,0,1,0-1.809,1.671,1.671,0,0,1,2.107,0Zm-46.91-70.151v50.6H340.5V198.315Zm22.344,69.777h23.513v2.557H365.823ZM343.479,242.21c0,10.593,10,19.181,22.344,19.181v2.557c-13.985,0-25.323-9.733-25.323-21.739Z" transform="translate(28.844 1221.525)" fill="#ffa629"/>
    <path id="Trazado_169840" data-name="Trazado 169840" d="M340.5,132.208a1.507,1.507,0,0,1,2.979,0Zm49.889,129.558a1.157,1.157,0,0,1,0,1.809l-9.48,8.138a1.671,1.671,0,0,1-2.107,0,1.157,1.157,0,0,1,0-1.809l8.427-7.234-8.427-7.234a1.157,1.157,0,0,1,0-1.809,1.671,1.671,0,0,1,2.107,0Zm-46.91-129.558v110H340.5v-110Zm22.344,129.184h23.513v2.557H365.823ZM343.479,242.21c0,10.593,10,19.181,22.344,19.181v2.557c-13.985,0-25.323-9.733-25.323-21.739Z" transform="translate(28.844 539.525)" fill="#ffa629"/>
    <path id="Trazado_169858" data-name="Trazado 169858" d="M340.5,132.208a1.507,1.507,0,0,1,2.979,0Zm49.889,129.558a1.157,1.157,0,0,1,0,1.809l-9.48,8.138a1.671,1.671,0,0,1-2.107,0,1.157,1.157,0,0,1,0-1.809l8.427-7.234-8.427-7.234a1.157,1.157,0,0,1,0-1.809,1.671,1.671,0,0,1,2.107,0Zm-46.91-129.558v110H340.5v-110Zm22.344,129.184h23.513v2.557H365.823ZM343.479,242.21c0,10.593,10,19.181,22.344,19.181v2.557c-13.985,0-25.323-9.733-25.323-21.739Z" transform="translate(28.844 925.645)" fill="#ffa629"/>
    <path id="Trazado_169842" data-name="Trazado 169842" d="M340.5,132.208a1.507,1.507,0,0,1,2.979,0Zm49.889,129.558a1.157,1.157,0,0,1,0,1.809l-9.48,8.138a1.671,1.671,0,0,1-2.107,0,1.157,1.157,0,0,1,0-1.809l8.427-7.234-8.427-7.234a1.157,1.157,0,0,1,0-1.809,1.671,1.671,0,0,1,2.107,0Zm-46.91-129.558v110H340.5v-110Zm22.344,129.184h23.513v2.557H365.823ZM343.479,242.21c0,10.593,10,19.181,22.344,19.181v2.557c-13.985,0-25.323-9.733-25.323-21.739Z" transform="translate(28.844 608.475)" fill="#ffa629"/>
    <path id="Trazado_169841" data-name="Trazado 169841" d="M249.922,1052.92h0ZM431.953,1012h0ZM409.2,1033.739H272.676v-2.558H409.2Zm-136.523,0c-11.781,0-21.332,8.585-21.332,19.181H248.5c0-12,10.824-21.739,24.176-21.739ZM433.375,1012c0,12-10.824,21.739-24.176,21.739v-2.558c11.781,0,21.332-8.585,21.332-19.181Z" transform="translate(120.844 -453.443)" fill="#ffa629"/>
    <path id="Trazado_169860" data-name="Trazado 169860" d="M249.922,1052.92h0ZM431.953,1012h0ZM409.2,1033.739H272.676v-2.558H409.2Zm-136.523,0c-11.781,0-21.332,8.585-21.332,19.181H248.5c0-12,10.824-21.739,24.176-21.739ZM433.375,1012c0,12-10.824,21.739-24.176,21.739v-2.558c11.781,0,21.332-8.585,21.332-19.181Z" transform="translate(120.844 -62.324)" fill="#ffa629"/>
    <path id="Trazado_169864" data-name="Trazado 169864" d="M249.922,1052.92h0ZM431.953,1012h0ZM409.2,1033.739H272.676v-2.558H409.2Zm-136.523,0c-11.781,0-21.332,8.585-21.332,19.181H248.5c0-12,10.824-21.739,24.176-21.739ZM433.375,1012c0,12-10.824,21.739-24.176,21.739v-2.558c11.781,0,21.332-8.585,21.332-19.181Z" transform="translate(120.844 367.137)" fill="#ffa629"/>
    <g id="Grupo_120921" data-name="Grupo 120921" transform="translate(0 43.973)">
      <rect id="Rectángulo_43519" data-name="Rectángulo 43519" width="252.364" height="42" rx="6" transform="translate(431.252 597.938)" fill="none" stroke="#242ca3" stroke-linecap="round" stroke-width="4"/>
      <text id="Humano" transform="translate(462.435 610.48)" font-size="14" font-family="Roboto-Bold, Roboto" font-weight="700"><tspan x="-26.554" y="15">Humano</tspan></text>
    </g>
    <g id="Grupo_120924" data-name="Grupo 120924" transform="translate(484.757 43.973)">
      <rect id="Rectángulo_43519-2" data-name="Rectángulo 43519" width="252.364" height="42" rx="6" transform="translate(431.252 597.938)" fill="none" stroke="#242ca3" stroke-linecap="round" stroke-width="4"/>
      <text id="Archivo_de_gestión" data-name="Archivo de gestión" transform="translate(462.435 610.48)" font-size="14" font-family="Roboto-Bold, Roboto" font-weight="700"><tspan x="-58.758" y="15">Archivo de gestión</tspan></text>
    </g>
    <g id="Grupo_120925" data-name="Grupo 120925" transform="translate(484.757 113.938)">
      <rect id="Rectángulo_43519-3" data-name="Rectángulo 43519" width="252.364" height="42" rx="6" transform="translate(431.252 597.938)" fill="none" stroke="#242ca3" stroke-linecap="round" stroke-width="4"/>
      <text id="Archivo_central" data-name="Archivo central" transform="translate(462.435 610.48)" font-size="14" font-family="Roboto-Bold, Roboto" font-weight="700"><tspan x="-47.588" y="15">Archivo central</tspan></text>
    </g>
    <g id="Grupo_120919" data-name="Grupo 120919" transform="translate(431.252 712.187)">
      <rect id="Rectángulo_43518" data-name="Rectángulo 43518" width="252.364" height="42" rx="6" transform="translate(0)" fill="none" stroke="#242ca3" stroke-linecap="round" stroke-width="4"/>
      <text id="Materiales" transform="translate(16 13.947)" font-size="14" font-family="Roboto-Bold, Roboto" font-weight="700"><tspan x="-33.435" y="15">Materiales</tspan></text>
    </g>
    <g id="Grupo_120918" data-name="Grupo 120918" transform="translate(431.252 781.374)">
      <rect id="Rectángulo_43517" data-name="Rectángulo 43517" width="252.364" height="42" rx="6" transform="translate(0)" fill="none" stroke="#242ca3" stroke-linecap="round" stroke-width="4"/>
      <text id="Financieros" transform="translate(12 13)" font-size="14" font-family="Roboto-Bold, Roboto" font-weight="700"><tspan x="-36.562" y="15">Financieros</tspan></text>
    </g>
    <g id="Grupo_120913" data-name="Grupo 120913" transform="translate(431.252 850.562)">
      <rect id="Rectángulo_43516" data-name="Rectángulo 43516" width="252.364" height="42" rx="6" transform="translate(0)" fill="none" stroke="#242ca3" stroke-linecap="round" stroke-width="4"/>
      <text id="Intangilbles" transform="translate(12 13.108)" font-size="14" font-family="Roboto-Bold, Roboto" font-weight="700"><tspan x="-36.887" y="15">Intangilbles</tspan></text>
    </g>
    <g id="Grupo_120914" data-name="Grupo 120914" transform="translate(431.252 1035.36)">
      <rect id="Rectángulo_43516-2" data-name="Rectángulo 43516" width="252.364" height="42" rx="6" transform="translate(0)" fill="none" stroke="#242ca3" stroke-linecap="round" stroke-width="4"/>
      <text id="Estratégicos" transform="translate(12 13.108)" font-size="14" font-family="Roboto-Bold, Roboto" font-weight="700"><tspan x="-39.313" y="15">Estratégicos</tspan></text>
    </g>
    <g id="Grupo_120915" data-name="Grupo 120915" transform="translate(431.252 1100.36)">
      <rect id="Rectángulo_43516-3" data-name="Rectángulo 43516" width="252.364" height="42" rx="6" transform="translate(0)" fill="none" stroke="#242ca3" stroke-linecap="round" stroke-width="4"/>
      <text id="Misionales" transform="translate(12 13.108)" font-size="14" font-family="Roboto-Bold, Roboto" font-weight="700"><tspan x="-34.313" y="15">Misionales</tspan></text>
    </g>
    <g id="Grupo_120916" data-name="Grupo 120916" transform="translate(431.252 1165.36)">
      <rect id="Rectángulo_43516-4" data-name="Rectángulo 43516" width="252.364" height="42" rx="6" transform="translate(0)" fill="none" stroke="#242ca3" stroke-linecap="round" stroke-width="4"/>
      <text id="De_apoyo" data-name="De apoyo" transform="translate(12 13.108)" font-size="14" font-family="Roboto-Bold, Roboto" font-weight="700"><tspan x="-29.2" y="15">De apoyo</tspan></text>
    </g>
    <g id="Grupo_120917" data-name="Grupo 120917" transform="translate(16.423 531.56)">
      <rect id="Rectángulo_43516-5" data-name="Rectángulo 43516" width="252.364" height="42" rx="6" transform="translate(414.829 931.104)" fill="none" stroke="#242ca3" stroke-linecap="round" stroke-width="4"/>
      <text id="Clases_de_matrices" data-name="Clases de matrices" transform="translate(426.829 944.212)" font-size="14" font-family="Roboto-Bold, Roboto" font-weight="700"><tspan x="-60.006" y="15">Clases de matrices</tspan></text>
    </g>
    <g id="Grupo_120912" data-name="Grupo 120912" transform="translate(431.252 541.303)">
      <g id="Grupo_114625" data-name="Grupo 114625" transform="translate(0)">
        <rect id="Rectángulo_41617" data-name="Rectángulo 41617" width="252.364" height="74.182" rx="24.215" fill="url(#linear-gradient)"/>
        <rect id="Rectángulo_41618" data-name="Rectángulo 41618" width="252.364" height="74.182" fill="#febf10"/>
      </g>
      <text id="Recursos" transform="translate(84.182 43.585)" fill="#12263f" font-size="20" font-family="Roboto-Bold, Roboto" font-weight="700"><tspan x="0" y="0">Recursos</tspan></text>
    </g>
    <path id="Trazado_162163" data-name="Trazado 162163" d="M332.79-181.793a1.531,1.531,0,0,0-1.532,1.532v15.288a21.468,21.468,0,0,1-21.444,21.444H222.575a6.63,6.63,0,0,0-6.444-5.107A6.639,6.639,0,0,0,209.492-142a6.639,6.639,0,0,0,6.639,6.639,6.629,6.629,0,0,0,6.444-5.107h87.239a24.536,24.536,0,0,0,24.508-24.508v-15.288A1.53,1.53,0,0,0,332.79-181.793Z" transform="translate(467.678 721.076)" fill="#5c50e5"/>
    <path id="Trazado_169844" data-name="Trazado 169844" d="M332.79-181.793a1.531,1.531,0,0,0-1.532,1.532v15.288a21.468,21.468,0,0,1-21.444,21.444H222.575a6.63,6.63,0,0,0-6.444-5.107A6.639,6.639,0,0,0,209.492-142a6.639,6.639,0,0,0,6.639,6.639,6.629,6.629,0,0,0,6.444-5.107h87.239a24.536,24.536,0,0,0,24.508-24.508v-15.288A1.53,1.53,0,0,0,332.79-181.793Z" transform="translate(467.678 1429.258)" fill="#5c50e5"/>
    <path id="Trazado_164473" data-name="Trazado 164473" d="M340.936,261.765a1.157,1.157,0,0,0,0,1.809l9.48,8.138a1.671,1.671,0,0,0,2.107,0,1.157,1.157,0,0,0,0-1.809L344.1,262.67l8.427-7.234a1.157,1.157,0,0,0,0-1.809,1.671,1.671,0,0,0-2.107,0Zm46.91-65.987V242.21h2.979V195.779ZM365.5,261.391H341.99v2.557H365.5Zm22.344-19.181c0,10.593-10,19.181-22.344,19.181v2.557c13.985,0,25.323-9.733,25.323-21.739Z" transform="translate(838.112 400.35)" fill="#ffa629"/>
    <path id="Trazado_169849" data-name="Trazado 169849" d="M340.936,261.765a1.157,1.157,0,0,0,0,1.809l9.48,8.138a1.671,1.671,0,0,0,2.107,0,1.157,1.157,0,0,0,0-1.809L344.1,262.67l8.427-7.234a1.157,1.157,0,0,0,0-1.809,1.671,1.671,0,0,0-2.107,0Zm46.91-65.987V242.21h2.979V195.779ZM365.5,261.391H341.99v2.557H365.5Zm22.344-19.181c0,10.593-10,19.181-22.344,19.181v2.557c13.985,0,25.323-9.733,25.323-21.739Z" transform="translate(838.112 722.326)" fill="#ffa629"/>
    <path id="Trazado_169852" data-name="Trazado 169852" d="M340.936,261.765a1.157,1.157,0,0,0,0,1.809l9.48,8.138a1.671,1.671,0,0,0,2.107,0,1.157,1.157,0,0,0,0-1.809L344.1,262.67l8.427-7.234a1.157,1.157,0,0,0,0-1.809,1.671,1.671,0,0,0-2.107,0Zm46.91-65.987V242.21h2.979V195.779ZM365.5,261.391H341.99v2.557H365.5Zm22.344-19.181c0,10.593-10,19.181-22.344,19.181v2.557c13.985,0,25.323-9.733,25.323-21.739Z" transform="translate(903.945 1081.418)" fill="#ffa629"/>
    <path id="Trazado_164475" data-name="Trazado 164475" d="M390.825,132.208a1.507,1.507,0,0,0-2.979,0ZM340.936,261.765a1.157,1.157,0,0,0,0,1.809l9.48,8.138a1.671,1.671,0,0,0,2.107,0,1.157,1.157,0,0,0,0-1.809L344.1,262.67l8.427-7.234a1.157,1.157,0,0,0,0-1.809,1.671,1.671,0,0,0-2.107,0Zm46.91-129.558v110h2.979v-110ZM365.5,261.391H341.99v2.557H365.5Zm22.344-19.181c0,10.593-10,19.181-22.344,19.181v2.557c13.985,0,25.323-9.733,25.323-21.739Z" transform="translate(838.112 471.928)" fill="#ffa629"/>
    <path id="Trazado_169850" data-name="Trazado 169850" d="M390.825,132.208a1.507,1.507,0,0,0-2.979,0ZM340.936,261.765a1.157,1.157,0,0,0,0,1.809l9.48,8.138a1.671,1.671,0,0,0,2.107,0,1.157,1.157,0,0,0,0-1.809L344.1,262.67l8.427-7.234a1.157,1.157,0,0,0,0-1.809,1.671,1.671,0,0,0-2.107,0Zm46.91-129.558v110h2.979v-110ZM365.5,261.391H341.99v2.557H365.5Zm22.344-19.181c0,10.593-10,19.181-22.344,19.181v2.557c13.985,0,25.323-9.733,25.323-21.739Z" transform="translate(838.112 793.904)" fill="#ffa629"/>
    <path id="Trazado_169853" data-name="Trazado 169853" d="M390.825,132.208a1.507,1.507,0,0,0-2.979,0ZM340.936,261.765a1.157,1.157,0,0,0,0,1.809l9.48,8.138a1.671,1.671,0,0,0,2.107,0,1.157,1.157,0,0,0,0-1.809L344.1,262.67l8.427-7.234a1.157,1.157,0,0,0,0-1.809,1.671,1.671,0,0,0-2.107,0Zm46.91-129.558v110h2.979v-110ZM365.5,261.391H341.99v2.557H365.5Zm22.344-19.181c0,10.593-10,19.181-22.344,19.181v2.557c13.985,0,25.323-9.733,25.323-21.739Z" transform="translate(903.945 1152.996)" fill="#ffa629"/>
    <path id="Trazado_164476" data-name="Trazado 164476" d="M390.825,132.208a1.507,1.507,0,0,0-2.979,0ZM340.936,261.765a1.157,1.157,0,0,0,0,1.809l9.48,8.138a1.671,1.671,0,0,0,2.107,0,1.157,1.157,0,0,0,0-1.809L344.1,262.67l8.427-7.234a1.157,1.157,0,0,0,0-1.809,1.671,1.671,0,0,0-2.107,0Zm46.91-129.558v110h2.979v-110ZM365.5,261.391H341.99v2.557H365.5Zm22.344-19.181c0,10.593-10,19.181-22.344,19.181v2.557c13.985,0,25.323-9.733,25.323-21.739Z" transform="translate(838.112 539.992)" fill="#ffa629"/>
    <path id="Trazado_169851" data-name="Trazado 169851" d="M390.825,132.208a1.507,1.507,0,0,0-2.979,0ZM340.936,261.765a1.157,1.157,0,0,0,0,1.809l9.48,8.138a1.671,1.671,0,0,0,2.107,0,1.157,1.157,0,0,0,0-1.809L344.1,262.67l8.427-7.234a1.157,1.157,0,0,0,0-1.809,1.671,1.671,0,0,0-2.107,0Zm46.91-129.558v110h2.979v-110ZM365.5,261.391H341.99v2.557H365.5Zm22.344-19.181c0,10.593-10,19.181-22.344,19.181v2.557c13.985,0,25.323-9.733,25.323-21.739Z" transform="translate(838.112 879.484)" fill="#ffa629"/>
    <path id="Trazado_164474" data-name="Trazado 164474" d="M431.953,1052.92h0ZM249.922,1012h0Zm22.754,21.739H409.2v-2.558H272.676Zm136.523,0c11.781,0,21.332,8.585,21.332,19.181h2.844c0-12-10.824-21.739-24.176-21.739ZM248.5,1012c0,12,10.824,21.739,24.176,21.739v-2.558c-11.781,0-21.332-8.585-21.332-19.181Z" transform="translate(795.563 -454.5)" fill="#ffa629"/>
    <path id="Trazado_169848" data-name="Trazado 169848" d="M431.953,1052.92h0ZM249.922,1012h0Zm22.754,21.739H409.2v-2.558H272.676Zm136.523,0c11.781,0,21.332,8.585,21.332,19.181h2.844c0-12-10.824-21.739-24.176-21.739ZM248.5,1012c0,12,10.824,21.739,24.176,21.739v-2.558c-11.781,0-21.332-8.585-21.332-19.181Z" transform="translate(795.563 -132.523)" fill="#ffa629"/>
    <path id="Trazado_169855" data-name="Trazado 169855" d="M431.953,1052.92h0ZM249.922,1012h0Zm22.754,21.739H409.2v-2.558H272.676Zm136.523,0c11.781,0,21.332,8.585,21.332,19.181h2.844c0-12-10.824-21.739-24.176-21.739ZM248.5,1012c0,12,10.824,21.739,24.176,21.739v-2.558c-11.781,0-21.332-8.585-21.332-19.181Z" transform="translate(861.396 225.568)" fill="#ffa629"/>
    <g id="Grupo_120926" data-name="Grupo 120926" transform="translate(484.757 183.363)">
      <rect id="Rectángulo_43519-4" data-name="Rectángulo 43519" width="252.364" height="42" rx="6" transform="translate(431.252 597.938)" fill="none" stroke="#242ca3" stroke-linecap="round" stroke-width="4"/>
      <text id="Archivo_histórico" data-name="Archivo histórico" transform="translate(462.435 610.48)" font-size="14" font-family="Roboto-Bold, Roboto" font-weight="700"><tspan x="-53.522" y="15">Archivo histórico</tspan></text>
    </g>
    <g id="Grupo_120928" data-name="Grupo 120928" transform="translate(484.757 366.49)">
      <rect id="Rectángulo_43519-5" data-name="Rectángulo 43519" width="252.364" height="42" rx="6" transform="translate(431.252 597.938)" fill="none" stroke="#242ca3" stroke-linecap="round" stroke-width="4"/>
      <text id="Etapas" transform="translate(462.435 610.48)" font-size="14" font-family="Roboto-Bold, Roboto" font-weight="700"><tspan x="-21.349" y="15">Etapas</tspan></text>
    </g>
    <g id="Grupo_120929" data-name="Grupo 120929" transform="translate(484.757 435.916)">
      <rect id="Rectángulo_43519-6" data-name="Rectángulo 43519" width="252.364" height="42" rx="6" transform="translate(431.252 597.938)" fill="none" stroke="#242ca3" stroke-linecap="round" stroke-width="4"/>
      <text id="Software" transform="translate(462.435 610.48)" font-size="14" font-family="Roboto-Bold, Roboto" font-weight="700"><tspan x="-28.369" y="15">Software</tspan></text>
    </g>
    <g id="Grupo_120931" data-name="Grupo 120931" transform="translate(916.009 1322.404)">
      <rect id="Rectángulo_43519-7" data-name="Rectángulo 43519" width="321.678" height="42" rx="6" transform="translate(0)" fill="none" stroke="#242ca3" stroke-linecap="round" stroke-width="4"/>
      <text id="Mantenimiento_preventivo" data-name="Mantenimiento preventivo" transform="translate(31.183 12.543)" font-size="14" font-family="Roboto-Bold, Roboto" font-weight="700"><tspan x="-82.455" y="15">Mantenimiento preventivo</tspan></text>
    </g>
    <g id="Grupo_120932" data-name="Grupo 120932" transform="translate(916.009 1390.832)">
      <rect id="Rectángulo_43519-8" data-name="Rectángulo 43519" width="321.678" height="42" rx="6" transform="translate(0)" fill="none" stroke="#242ca3" stroke-linecap="round" stroke-width="4"/>
      <text id="Mantenimiento_correctivo" data-name="Mantenimiento correctivo" transform="translate(31.183 12.543)" font-size="14" font-family="Roboto-Bold, Roboto" font-weight="700"><tspan x="-81.129" y="15">Mantenimiento correctivo</tspan></text>
    </g>
    <g id="Grupo_120930" data-name="Grupo 120930" transform="translate(484.757 505.342)">
      <rect id="Rectángulo_43519-9" data-name="Rectángulo 43519" width="252.364" height="78" rx="6" transform="translate(431.252 597.938)" fill="none" stroke="#242ca3" stroke-linecap="round" stroke-width="4"/>
      <text id="Listado_maestro_y_conservación_de_la_información_documentada" data-name="Listado maestro y conservación de la información documentada" transform="translate(462.435 610.48)" font-size="14" font-family="Roboto-Bold, Roboto" font-weight="700"><tspan x="-56.215" y="15">Listado maestro y </tspan><tspan x="-58.974" y="33">conservación de la </tspan><tspan x="-82.787" y="51">información documentada</tspan></text>
    </g>
    <g id="Grupo_120923" data-name="Grupo 120923" transform="translate(-64.991 -54.635)">
      <g id="Grupo_120906" data-name="Grupo 120906" transform="translate(981 595.938)">
        <rect id="Rectángulo_41617-2" data-name="Rectángulo 41617" width="252.078" height="74.182" rx="24.215" fill="url(#linear-gradient)"/>
        <rect id="Rectángulo_41618-2" data-name="Rectángulo 41618" width="252.078" height="74.182" fill="#febf10"/>
      </g>
      <text id="Ciclo_de_vida_del_documento" data-name="Ciclo de vida
del documento" transform="translate(1105.439 629.023)" fill="#12263f" font-size="20" font-family="Roboto-Bold, Roboto" font-weight="700"><tspan x="-57.437" y="0">Ciclo de vida</tspan><tspan x="-66.831" y="25">del documento</tspan></text>
    </g>
    <g id="Grupo_120909" data-name="Grupo 120909" transform="translate(-287.048 369.125)">
      <g id="Grupo_120908" data-name="Grupo 120908" transform="translate(1203.057 852.671)">
        <rect id="Rectángulo_41617-3" data-name="Rectángulo 41617" width="321.678" height="74.182" rx="24.215" fill="url(#linear-gradient)"/>
        <rect id="Rectángulo_41618-3" data-name="Rectángulo 41618" width="321.678" height="74.182" fill="#febf10"/>
      </g>
      <text id="Mantenimiento_y_conservación_de_la_información_documentada" data-name="Mantenimiento y conservación
de la información documentada" transform="translate(1367.146 885.757)" fill="#12263f" font-size="20" font-family="Roboto-Bold, Roboto" font-weight="700"><tspan x="-138.174" y="0">Mantenimiento y conservación</tspan><tspan x="-142.3" y="25">de la información documentada</tspan></text>
    </g>
    <path id="Trazado_162164" data-name="Trazado 162164" d="M696.5-148.9a6.632,6.632,0,0,0-6.445,5.107l-86.486.26a21.468,21.468,0,0,1-21.444-21.444v-15.288a1.531,1.531,0,0,0-1.532-1.532,1.531,1.531,0,0,0-1.532,1.532v15.288a24.536,24.536,0,0,0,24.508,24.508l86.486-.26a6.63,6.63,0,0,0,6.445,5.107,6.639,6.639,0,0,0,6.64-6.639A6.639,6.639,0,0,0,696.5-148.9Z" transform="translate(219.751 721.27)" fill="#5c50e5"/>
    <g id="Grupo_120927" data-name="Grupo 120927" transform="translate(915.723 863.818)">
      <g id="Grupo_114625-2" data-name="Grupo 114625" transform="translate(0)">
        <rect id="Rectángulo_41617-4" data-name="Rectángulo 41617" width="252.364" height="74.182" rx="24.215" fill="url(#linear-gradient)"/>
        <rect id="Rectángulo_41618-4" data-name="Rectángulo 41618" width="252.364" height="74.182" fill="#febf10"/>
      </g>
      <text id="Control_y_conservación_de_los_documentos" data-name="Control y conservación
de los documentos" transform="translate(125.182 31.591)" fill="#12263f" font-size="20" font-family="Roboto-Bold, Roboto" font-weight="700"><tspan x="-103.169" y="0">Control y conservación</tspan><tspan x="-85.259" y="25">de los documentos</tspan></text>
    </g>
    <path id="Trazado_169846" data-name="Trazado 169846" d="M696.5-148.9a6.632,6.632,0,0,0-6.445,5.107l-86.486.26a21.468,21.468,0,0,1-21.444-21.444v-15.288a1.531,1.531,0,0,0-1.532-1.532,1.531,1.531,0,0,0-1.532,1.532v15.288a24.536,24.536,0,0,0,24.508,24.508l86.486-.26a6.63,6.63,0,0,0,6.445,5.107,6.639,6.639,0,0,0,6.64-6.639A6.639,6.639,0,0,0,696.5-148.9Z" transform="translate(219.751 1045.288)" fill="#5c50e5"/>
    <path id="Trazado_169847" data-name="Trazado 169847" d="M696.5-148.9a6.632,6.632,0,0,0-6.445,5.107l-86.486.26a21.468,21.468,0,0,1-21.444-21.444v-15.288a1.531,1.531,0,0,0-1.532-1.532,1.531,1.531,0,0,0-1.532,1.532v15.288a24.536,24.536,0,0,0,24.508,24.508l86.486-.26a6.63,6.63,0,0,0,6.445,5.107,6.639,6.639,0,0,0,6.64-6.639A6.639,6.639,0,0,0,696.5-148.9Z" transform="translate(219.751 1402.267)" fill="#5c50e5"/>
    <g id="Grupo_120910" data-name="Grupo 120910" transform="translate(431.005 1361.583)">
      <g id="Grupo_110801" data-name="Grupo 110801" transform="translate(-0.001)">
        <rect id="Rectángulo_41617-5" data-name="Rectángulo 41617" width="252.577" height="74.182" rx="24.215" fill="url(#linear-gradient)"/>
        <rect id="Rectángulo_41618-5" data-name="Rectángulo 41618" width="252.577" height="74.182" fill="#febf10"/>
      </g>
      <text id="Matriz_para_la_gestión_de_la_información" data-name="Matriz para la gestión
de la información" transform="translate(126.288 33.086)" fill="#12263f" font-size="20" font-family="Roboto-Bold, Roboto" font-weight="700"><tspan x="-97.764" y="0">Matriz para la gestión</tspan><tspan x="-78.311" y="25">de la información</tspan></text>
    </g>
    <path id="Trazado_169845" data-name="Trazado 169845" d="M332.79-181.793a1.531,1.531,0,0,0-1.532,1.532v15.288a21.468,21.468,0,0,1-21.444,21.444H222.575a6.63,6.63,0,0,0-6.444-5.107A6.639,6.639,0,0,0,209.492-142a6.639,6.639,0,0,0,6.639,6.639,6.629,6.629,0,0,0,6.444-5.107h87.239a24.536,24.536,0,0,0,24.508-24.508v-15.288A1.53,1.53,0,0,0,332.79-181.793Z" transform="translate(467.678 1543.377)" fill="#5c50e5"/>
    <g id="Grupo_120920" data-name="Grupo 120920" transform="translate(431.252 932.749)">
      <rect id="Rectángulo_43512" data-name="Rectángulo 43512" width="252.33" height="74.016" transform="translate(0)" fill="#febf10"/>
      <text id="Procesos" transform="translate(84.226 44.418)" fill="#12263f" font-size="20" font-family="Roboto-Bold, Roboto" font-weight="700"><tspan x="0" y="0">Procesos</tspan></text>
    </g>
    <path id="Trazado_169843" data-name="Trazado 169843" d="M332.79-181.793a1.531,1.531,0,0,0-1.532,1.532v15.288a21.468,21.468,0,0,1-21.444,21.444H222.575a6.63,6.63,0,0,0-6.444-5.107A6.639,6.639,0,0,0,209.492-142a6.639,6.639,0,0,0,6.639,6.639,6.629,6.629,0,0,0,6.444-5.107h87.239a24.536,24.536,0,0,0,24.508-24.508v-15.288A1.53,1.53,0,0,0,332.79-181.793Z" transform="translate(467.678 1114.459)" fill="#5c50e5"/>
  </g>
</svg>
