<svg xmlns="http://www.w3.org/2000/svg" xmlns:xlink="http://www.w3.org/1999/xlink" width="100" height="100" viewBox="0 0 100 100">
  <defs>
    <filter id="Rect치ngulo_41489" x="0" y="0" width="100" height="100" filterUnits="userSpaceOnUse">
      <feOffset dy="3" input="SourceAlpha"/>
      <feGaussianBlur stdDeviation="3" result="blur"/>
      <feFlood flood-opacity="0.161"/>
      <feComposite operator="in" in2="blur"/>
      <feComposite in="SourceGraphic"/>
    </filter>
  </defs>
  <g id="Grupo_118686" data-name="Grupo 118686" transform="translate(-944.333 -259)">
    <g transform="matrix(1, 0, 0, 1, 944.33, 259)" filter="url(#Rect치ngulo_41489)">
      <rect id="Rect치ngulo_41489-2" data-name="Rect치ngulo 41489" width="82" height="82" rx="23" transform="translate(9 6)" fill="#fff"/>
    </g>
    <g id="Grupo_116723" data-name="Grupo 116723" transform="translate(902.066 253.903)">
      <path id="Trazado_164961" data-name="Trazado 164961" d="M132.3,232.7H89.75c-.037-.215-.217-.225-.378-.286a4.11,4.11,0,0,1-1.209-.706,4.811,4.811,0,0,1-1.625-3.949q0-15.354,0-30.709a13.856,13.856,0,0,1,.141-2.364,4.834,4.834,0,0,1,1.661-2.879c.575-.505,1.343-.624,1.926-1.088a7.456,7.456,0,0,1,1.534.056c2.721-.018,5.442-.011,8.162-.006a5.6,5.6,0,0,1,1.343.087,4.781,4.781,0,0,1,3.47,3.05c.269.677.523,1.359.8,2.033a4.8,4.8,0,0,0,4.8,3.191c5.442.014,10.883.006,16.325,0,.792,0,1.584-.018,2.377-.028a15.739,15.739,0,0,1,3.646.276,4.859,4.859,0,0,1,3.138,4.781q.017,11.948,0,23.9a4.5,4.5,0,0,1-1.83,3.843A10.345,10.345,0,0,1,132.3,232.7Z" transform="translate(-17.458 -147.887)" fill="#fed05c"/>
      <path id="Trazado_164962" data-name="Trazado 164962" d="M69.721,232.709a6.2,6.2,0,0,1-2.186-1.268,4.553,4.553,0,0,1-1.261-3.269q-.013-16.225,0-32.45a4.81,4.81,0,0,1,4.386-4.984,14.047,14.047,0,0,1,2.143-.01c-.583.464-1.351.583-1.926,1.088a4.834,4.834,0,0,0-1.661,2.879,13.856,13.856,0,0,0-.141,2.364q.01,15.354,0,30.709a4.811,4.811,0,0,0,1.625,3.949,4.109,4.109,0,0,0,1.209.706c.161.061.341.072.378.286Z" transform="translate(0 -147.892)" fill="#ecbb4e"/>
      <path id="Trazado_164963" data-name="Trazado 164963" d="M99.842,42.835a14.048,14.048,0,0,0-2.143.01c-.014-.256-.041-.512-.042-.768q0-11.114,0-22.227c0-.848,0-.85.844-.85h39.316c.847,0,.847,0,.849.845q0,1.317,0,2.634,0,4.138-.006,8.277-.006,10.233-.012,20.467c-.792.01-1.584.028-2.377.028-5.442,0-10.883.011-16.325,0a4.8,4.8,0,0,1-4.8-3.191c-.274-.674-.529-1.357-.8-2.033a4.781,4.781,0,0,0-3.47-3.05,5.594,5.594,0,0,0-1.343-.087c-2.721,0-5.442-.012-8.162.006A7.456,7.456,0,0,0,99.842,42.835Zm8.753-8.939.511-.232a1.5,1.5,0,0,0,.679-.154,4.574,4.574,0,0,0,2.777-4.846,4.416,4.416,0,0,0-3.183-3.632,2.247,2.247,0,0,0-1.423-.249,4.348,4.348,0,0,0-4.1,2.75,4.53,4.53,0,0,0,.891,4.925,5.02,5.02,0,0,0,2.924,1.428,4.6,4.6,0,0,0-4.122,3.944c-.054.509.082.606.56.6,2.569-.022,5.139-.01,7.708-.01.824,0,.875-.063.708-.875A4.64,4.64,0,0,0,108.595,33.9Zm17.281-8.878q-3.373,0-6.746,0a4.43,4.43,0,0,0-.641.021.957.957,0,0,0-.907.989.968.968,0,0,0,.85,1.043,3.06,3.06,0,0,0,.64.03q6.81,0,13.621,0a3.071,3.071,0,0,0,.7-.038.958.958,0,0,0,.807-1.072.946.946,0,0,0-.875-.947,4.112,4.112,0,0,0-.641-.024Q129.281,25.017,125.876,25.018Zm.053,5.145h-5.4c-.643,0-1.286-.016-1.927.012a.993.993,0,0,0-1.029,1.008,1.019,1.019,0,0,0,.993,1.052c.17.017.342.01.514.01q6.811,0,13.622,0a2.908,2.908,0,0,0,.7-.039.959.959,0,0,0,.794-1.082.942.942,0,0,0-.884-.938,4.471,4.471,0,0,0-.641-.022Q129.3,30.162,125.93,30.163Zm.013,5.145h-6.811a4.532,4.532,0,0,0-.641.019,1.027,1.027,0,0,0-.062,2.031,3,3,0,0,0,.64.031q6.843,0,13.686,0a2.7,2.7,0,0,0,.639-.036.962.962,0,0,0,.809-1.072.946.946,0,0,0-.873-.95,4.063,4.063,0,0,0-.641-.022Q129.316,35.307,125.943,35.308Zm0,5.145h-6.811c-.193,0-.387-.007-.578.012a1,1,0,0,0-.977,1,1.016,1.016,0,0,0,.98,1.062,4.182,4.182,0,0,0,.449.012q6.907,0,13.814,0a2.381,2.381,0,0,0,.575-.035.966.966,0,0,0,.808-1.073.95.95,0,0,0-.874-.951,3.948,3.948,0,0,0-.641-.021Q129.315,40.452,125.942,40.453Zm4.245,5.145c-.94,0-1.88-.01-2.82,0-.763.01-1.189.4-1.184,1.046s.434,1.024,1.2,1.029q2.82.015,5.64,0c.755,0,1.189-.408,1.184-1.048s-.442-1.019-1.2-1.027C132.067,45.591,131.127,45.6,130.187,45.6Z" transform="translate(-27.039)" fill="#f7edd6"/>
      <path id="Trazado_164964" data-name="Trazado 164964" d="M393.4,72.829q.006-10.233.012-20.467,0-4.138.006-8.277l2.7,0c.921,0,.922,0,.922.893q0,7.45,0,14.9,0,6.615.008,13.229A15.738,15.738,0,0,0,393.4,72.829Z" transform="translate(-281.789 -21.607)" fill="#d5c7af"/>
      <path id="Trazado_164965" data-name="Trazado 164965" d="M163.992,62.514a4.417,4.417,0,0,1,3.183,3.633,4.574,4.574,0,0,1-2.777,4.846,1.5,1.5,0,0,1-.679.154c-.088-.372-.459-.423-.707-.6a4.424,4.424,0,0,1-1.946-4.019A4.543,4.543,0,0,1,163.992,62.514Z" transform="translate(-81.652 -37.482)" fill="#dacdb9"/>
      <path id="Trazado_164966" data-name="Trazado 164966" d="M249.694,62.415q3.405,0,6.811,0a4.111,4.111,0,0,1,.641.024.946.946,0,0,1,.875.947.958.958,0,0,1-.807,1.072,3.071,3.071,0,0,1-.7.038q-6.81,0-13.621,0a3.06,3.06,0,0,1-.64-.03.968.968,0,0,1-.85-1.043.957.957,0,0,1,.907-.989,4.43,4.43,0,0,1,.641-.021Q246.321,62.413,249.694,62.415Z" transform="translate(-150.857 -37.396)" fill="#34aadf"/>
      <path id="Trazado_164967" data-name="Trazado 164967" d="M249.715,99.511q3.373,0,6.747,0a4.471,4.471,0,0,1,.641.022.942.942,0,0,1,.884.938.959.959,0,0,1-.794,1.082,2.908,2.908,0,0,1-.7.039q-6.811,0-13.622,0c-.171,0-.344.007-.514-.01a1.019,1.019,0,0,1-.993-1.052.993.993,0,0,1,1.029-1.008c.641-.028,1.285-.012,1.927-.012Z" transform="translate(-150.825 -69.347)" fill="#34aadf"/>
      <path id="Trazado_164968" data-name="Trazado 164968" d="M249.76,136.645q3.373,0,6.746,0a4.062,4.062,0,0,1,.641.022.946.946,0,0,1,.873.95.962.962,0,0,1-.809,1.072,2.7,2.7,0,0,1-.639.036q-6.843,0-13.686,0a3,3,0,0,1-.64-.031,1.027,1.027,0,0,1,.062-2.031,4.531,4.531,0,0,1,.641-.019Z" transform="translate(-150.857 -101.336)" fill="#34aadf"/>
      <path id="Trazado_164969" data-name="Trazado 164969" d="M249.726,173.757q3.373,0,6.747,0a3.946,3.946,0,0,1,.641.021.95.95,0,0,1,.874.951.966.966,0,0,1-.808,1.073,2.381,2.381,0,0,1-.575.035q-6.907,0-13.814,0a4.185,4.185,0,0,1-.449-.011,1.016,1.016,0,0,1-.98-1.062,1,1,0,0,1,.977-1c.191-.019.385-.012.578-.012Z" transform="translate(-150.823 -133.304)" fill="#34aadf"/>
      <path id="Trazado_164970" data-name="Trazado 164970" d="M145.117,126.4a4.64,4.64,0,0,1,3.925,3.65c.167.812.117.875-.708.875-2.569,0-5.139-.011-7.708.01-.478,0-.614-.093-.56-.6a4.6,4.6,0,0,1,4.122-3.944Z" transform="translate(-63.561 -92.505)" fill="#fe535d"/>
      <path id="Trazado_164971" data-name="Trazado 164971" d="M144.749,69.785l-.928-.01a5.02,5.02,0,0,1-2.924-1.428,4.53,4.53,0,0,1-.891-4.925,4.348,4.348,0,0,1,4.1-2.75,2.248,2.248,0,0,1,1.423.249,4.542,4.542,0,0,0-2.926,4.013,4.424,4.424,0,0,0,1.946,4.019c.249.178.62.228.707.6Z" transform="translate(-63.193 -35.889)" fill="#d6c8b0"/>
      <path id="Trazado_164972" data-name="Trazado 164972" d="M307.458,210.865c.94,0,1.88-.008,2.82,0,.761.008,1.2.392,1.2,1.027s-.429,1.044-1.184,1.048q-2.82.016-5.64,0c-.769,0-1.2-.389-1.2-1.029s.421-1.036,1.184-1.046C305.578,210.855,306.519,210.865,307.458,210.865Z" transform="translate(-204.31 -165.266)" fill="#35abdf"/>
    </g>
  </g>
</svg>
