<svg xmlns="http://www.w3.org/2000/svg" width="295" height="345.936" viewBox="0 0 295 345.936">
  <g id="Grupo_121682" data-name="Grupo 121682" transform="translate(-180 -1725)">
    <path id="Trazado_171128" data-name="Trazado 171128" d="M21,0H274a21,21,0,0,1,21,21V324.936a21,21,0,0,1-21,21H21a21,21,0,0,1-21-21V21A21,21,0,0,1,21,0Z" transform="translate(180 1725)" fill="#c6c8e9"/>
    <path id="Trazado_171129" data-name="Trazado 171129" d="M25.483,19H22.407V6.2h3.076Zm1.635-4.825a5.809,5.809,0,0,1,.976-3.56,3.211,3.211,0,0,1,2.725-1.3,2.731,2.731,0,0,1,2.145,1V5.5h2.971V19H33.27l-.149-1.02a2.8,2.8,0,0,1-2.32,1.2,3.205,3.205,0,0,1-2.689-1.3A5.993,5.993,0,0,1,27.118,14.175Zm2.962.185q0,2.531,1.477,2.531a1.458,1.458,0,0,0,1.406-.826V12.443a1.419,1.419,0,0,0-1.389-.844q-1.371,0-1.485,2.215Zm12.138,4.816a4.889,4.889,0,0,1-3.542-1.305,4.507,4.507,0,0,1-1.354-3.4v-.246a5.84,5.84,0,0,1,.541-2.575A3.955,3.955,0,0,1,39.44,9.925,4.763,4.763,0,0,1,41.9,9.314a4.117,4.117,0,0,1,3.164,1.244,4.887,4.887,0,0,1,1.16,3.467v1.151H40.336a2.135,2.135,0,0,0,.694,1.257,2.066,2.066,0,0,0,1.389.457,2.662,2.662,0,0,0,2.2-.984l1.354,1.6A3.784,3.784,0,0,1,44.4,18.723,5.3,5.3,0,0,1,42.217,19.176ZM41.883,11.6q-1.3,0-1.547,1.723h2.988v-.229a1.467,1.467,0,0,0-.36-1.1A1.434,1.434,0,0,0,41.883,11.6ZM50.136,9.49l.1,1.116a3.225,3.225,0,0,1,2.716-1.292,2.713,2.713,0,0,1,2.219.888,4.226,4.226,0,0,1,.76,2.672V19H52.958V13a1.6,1.6,0,0,0-.29-1.059,1.342,1.342,0,0,0-1.055-.338,1.413,1.413,0,0,0-1.292.686V19H47.359V9.49ZM61.017,7.126V9.49h1.564v2.057H61.017V15.9a1.111,1.111,0,0,0,.193.747,1.037,1.037,0,0,0,.765.211,4.345,4.345,0,0,0,.738-.053v2.118a5.466,5.466,0,0,1-1.67.255,3.1,3.1,0,0,1-2.259-.721,2.954,2.954,0,0,1-.729-2.188v-4.72H56.842V9.49h1.213V7.126ZM66.871,19H63.9V9.49h2.971ZM63.724,7.038A1.322,1.322,0,0,1,64.181,6a1.943,1.943,0,0,1,2.373,0,1.322,1.322,0,0,1,.457,1.037,1.322,1.322,0,0,1-.457,1.037,1.943,1.943,0,0,1-2.373,0A1.322,1.322,0,0,1,63.724,7.038ZM69.384,19V11.547H68V9.49h1.38V9.174a3.631,3.631,0,0,1,1.248-2.909,4.987,4.987,0,0,1,3.243-.949,11.509,11.509,0,0,1,3.094.51l-.4,2.338-.492-.132a7.832,7.832,0,0,0-2.021-.255q-1.7,0-1.7,1.547V9.49h1.863v2.057H72.355V19Zm8.947,0H75.352V9.49h2.979Zm5.827-2.109a1.317,1.317,0,0,0,.967-.338,1.241,1.241,0,0,0,.334-.945h2.777a3.288,3.288,0,0,1-1.121,2.566,4.168,4.168,0,0,1-2.887,1,4.22,4.22,0,0,1-3.27-1.3,5.125,5.125,0,0,1-1.2-3.6v-.123A5.792,5.792,0,0,1,80.3,11.6a3.872,3.872,0,0,1,1.534-1.7A4.573,4.573,0,0,1,84.2,9.314a4.116,4.116,0,0,1,2.944,1.028,3.647,3.647,0,0,1,1.09,2.786H85.459A1.626,1.626,0,0,0,85.1,12a1.244,1.244,0,0,0-.967-.4q-1.151,0-1.345,1.468a10.357,10.357,0,0,0-.062,1.283,4.068,4.068,0,0,0,.343,1.986A1.187,1.187,0,0,0,84.159,16.891ZM94.846,19a3.344,3.344,0,0,1-.281-.853,2.754,2.754,0,0,1-2.285,1.028,3.374,3.374,0,0,1-2.285-.813,2.588,2.588,0,0,1-.94-2.043A2.66,2.66,0,0,1,90.2,13.981a5.821,5.821,0,0,1,3.322-.791h.914v-.5q0-1.316-1.134-1.316a.927.927,0,0,0-1.055,1.042H89.283a2.655,2.655,0,0,1,1.173-2.239,4.931,4.931,0,0,1,2.993-.86,4.323,4.323,0,0,1,2.874.888A3.086,3.086,0,0,1,97.4,12.637v4.21a4.311,4.311,0,0,0,.4,2V19Zm-1.854-1.934a1.652,1.652,0,0,0,.918-.237,1.487,1.487,0,0,0,.523-.536V14.772h-.861q-1.547,0-1.547,1.389a.848.848,0,0,0,.272.655A.986.986,0,0,0,92.992,17.066Zm10.072-.176a1.317,1.317,0,0,0,.967-.338,1.241,1.241,0,0,0,.334-.945h2.777a3.288,3.288,0,0,1-1.121,2.566,4.168,4.168,0,0,1-2.887,1,4.22,4.22,0,0,1-3.27-1.3,5.125,5.125,0,0,1-1.2-3.6v-.123A5.792,5.792,0,0,1,99.2,11.6a3.872,3.872,0,0,1,1.534-1.7,4.573,4.573,0,0,1,2.373-.593,4.116,4.116,0,0,1,2.944,1.028,3.647,3.647,0,0,1,1.09,2.786h-2.777A1.626,1.626,0,0,0,104,12a1.244,1.244,0,0,0-.967-.4q-1.151,0-1.345,1.468a10.357,10.357,0,0,0-.062,1.283,4.068,4.068,0,0,0,.343,1.986A1.187,1.187,0,0,0,103.064,16.891ZM111.519,19h-2.971V9.49h2.971ZM108.373,7.038A1.322,1.322,0,0,1,108.83,6,1.943,1.943,0,0,1,111.2,6a1.322,1.322,0,0,1,.457,1.037,1.322,1.322,0,0,1-.457,1.037,1.943,1.943,0,0,1-2.373,0A1.322,1.322,0,0,1,108.373,7.038Zm4.6,7.119a5.613,5.613,0,0,1,.554-2.536,3.96,3.96,0,0,1,1.591-1.709,4.791,4.791,0,0,1,2.435-.6,4.373,4.373,0,0,1,3.366,1.323,5.076,5.076,0,0,1,1.23,3.6v.105a4.925,4.925,0,0,1-1.235,3.529,4.384,4.384,0,0,1-3.344,1.305,4.434,4.434,0,0,1-3.261-1.217,4.761,4.761,0,0,1-1.327-3.3Zm2.962.185a3.538,3.538,0,0,0,.413,1.934,1.376,1.376,0,0,0,1.222.615q1.582,0,1.617-2.435v-.3q0-2.558-1.635-2.558-1.485,0-1.608,2.206ZM117.953,5.5h3.129l-2.443,2.76-2.417,0Zm8.218,3.99.1,1.116a3.225,3.225,0,0,1,2.716-1.292,2.713,2.713,0,0,1,2.219.888,4.226,4.226,0,0,1,.76,2.672V19h-2.971V13a1.6,1.6,0,0,0-.29-1.059,1.342,1.342,0,0,0-1.055-.338,1.413,1.413,0,0,0-1.292.686V19h-2.962V9.49ZM37.155,39.175a5.809,5.809,0,0,1,.976-3.56,3.211,3.211,0,0,1,2.725-1.3,2.731,2.731,0,0,1,2.145,1V30.5H45.97V44H43.307l-.149-1.02a2.8,2.8,0,0,1-2.32,1.2,3.205,3.205,0,0,1-2.689-1.3A5.993,5.993,0,0,1,37.155,39.175Zm2.962.185q0,2.531,1.477,2.531A1.458,1.458,0,0,0,43,41.064V37.443a1.419,1.419,0,0,0-1.389-.844q-1.371,0-1.485,2.215Zm12.138,4.816a4.889,4.889,0,0,1-3.542-1.305,4.507,4.507,0,0,1-1.354-3.4v-.246a5.84,5.84,0,0,1,.541-2.575,3.955,3.955,0,0,1,1.578-1.727,4.763,4.763,0,0,1,2.461-.611A4.117,4.117,0,0,1,55.1,35.558a4.887,4.887,0,0,1,1.16,3.467v1.151H50.374a2.135,2.135,0,0,0,.694,1.257,2.066,2.066,0,0,0,1.389.457,2.662,2.662,0,0,0,2.2-.984l1.354,1.6a3.784,3.784,0,0,1-1.569,1.217A5.3,5.3,0,0,1,52.254,44.176ZM51.92,36.6q-1.3,0-1.547,1.723h2.988v-.229a1.467,1.467,0,0,0-.36-1.1A1.434,1.434,0,0,0,51.92,36.6ZM60.578,44H57.607V30.5h2.971Zm12.059-6.829-.976-.07a1.752,1.752,0,0,0-1.793.879V44H66.906V34.49h2.777l.1,1.222a2.294,2.294,0,0,1,2.083-1.4,2.888,2.888,0,0,1,.826.105ZM76.829,44H73.858V34.49h2.971ZM73.682,32.038A1.322,1.322,0,0,1,74.139,31a1.943,1.943,0,0,1,2.373,0,1.405,1.405,0,0,1,0,2.074,1.943,1.943,0,0,1-2.373,0A1.322,1.322,0,0,1,73.682,32.038Zm9.571,12.138a4.889,4.889,0,0,1-3.542-1.305,4.507,4.507,0,0,1-1.354-3.4v-.246a5.84,5.84,0,0,1,.541-2.575,3.955,3.955,0,0,1,1.578-1.727,4.763,4.763,0,0,1,2.461-.611A4.117,4.117,0,0,1,86.1,35.558a4.887,4.887,0,0,1,1.16,3.467v1.151H81.373a2.135,2.135,0,0,0,.694,1.257,2.066,2.066,0,0,0,1.389.457,2.662,2.662,0,0,0,2.2-.984l1.354,1.6a3.784,3.784,0,0,1-1.569,1.217A5.3,5.3,0,0,1,83.253,44.176ZM82.919,36.6q-1.3,0-1.547,1.723h2.988v-.229a1.467,1.467,0,0,0-.36-1.1A1.434,1.434,0,0,0,82.919,36.6Zm10.512,4.729a.684.684,0,0,0-.4-.606,6.016,6.016,0,0,0-1.5-.475A6.853,6.853,0,0,1,89.7,39.6a3.062,3.062,0,0,1-1.1-.971,2.319,2.319,0,0,1-.378-1.31,2.628,2.628,0,0,1,1.081-2.158,4.453,4.453,0,0,1,2.83-.848,4.934,4.934,0,0,1,3.023.853,2.666,2.666,0,0,1,1.143,2.241H93.334q0-1.143-1.2-1.143a1.194,1.194,0,0,0-.782.259.8.8,0,0,0-.316.646.737.737,0,0,0,.387.642,3.654,3.654,0,0,0,1.235.4,10.671,10.671,0,0,1,1.49.378,2.706,2.706,0,0,1,2.145,2.646,2.491,2.491,0,0,1-1.156,2.118,5.068,5.068,0,0,1-2.993.817,5.172,5.172,0,0,1-2.18-.439,3.645,3.645,0,0,1-1.494-1.2,2.707,2.707,0,0,1-.536-1.591H90.7a1.145,1.145,0,0,0,.439.962,1.808,1.808,0,0,0,1.081.3,1.422,1.422,0,0,0,.91-.246A.787.787,0,0,0,93.431,41.328Zm3.894-2.153a6.421,6.421,0,0,1,.475-2.549,3.821,3.821,0,0,1,1.362-1.709,3.591,3.591,0,0,1,2.065-.6,2.855,2.855,0,0,1,2.32,1l.105-.826h2.689V43.64a4.009,4.009,0,0,1-.584,2.184,3.75,3.75,0,0,1-1.692,1.424,6.219,6.219,0,0,1-2.566.5,5.365,5.365,0,0,1-2.026-.4,3.657,3.657,0,0,1-1.5-1.028l1.239-1.74a2.716,2.716,0,0,0,2.18.976,1.764,1.764,0,0,0,1.969-2.021v-.3a2.781,2.781,0,0,1-2.153.94A3.437,3.437,0,0,1,98.4,42.844a5.517,5.517,0,0,1-1.072-3.564Zm2.971.185a3.383,3.383,0,0,0,.439,1.85,1.387,1.387,0,0,0,1.23.681,1.573,1.573,0,0,0,1.4-.642v-4a1.534,1.534,0,0,0-1.38-.65,1.4,1.4,0,0,0-1.239.708A3.858,3.858,0,0,0,100.3,39.359Zm7.356-.2a5.613,5.613,0,0,1,.554-2.536,3.96,3.96,0,0,1,1.591-1.709,4.791,4.791,0,0,1,2.435-.6,4.373,4.373,0,0,1,3.366,1.323,5.076,5.076,0,0,1,1.23,3.6v.105a4.925,4.925,0,0,1-1.235,3.529,4.384,4.384,0,0,1-3.344,1.305,4.434,4.434,0,0,1-3.261-1.217,4.761,4.761,0,0,1-1.327-3.3Zm2.962.185a3.538,3.538,0,0,0,.413,1.934,1.376,1.376,0,0,0,1.222.615q1.582,0,1.617-2.435v-.3q0-2.558-1.635-2.558-1.485,0-1.608,2.206Z" transform="translate(251.652 1977.76)" fill="#12263f"/>
    <path id="Trazado_170729" data-name="Trazado 170729" d="M87.952,1.781c-12.034,2.02-57.811,9.01-78.361,50.5-19.833,40.041-7.8,95.912,25.934,118.049,54.145,35.528,147.221-31.411,143.2-59.931-1.507-10.678-21.87-15.212-24.194-29.795-3.674-23.056,28.008-35.482,25.07-52.632C176.206,8.181,128.062-4.952,87.952,1.781" transform="translate(238.381 1761.972)" fill="#eeeffb"/>
    <path id="Trazado_170730" data-name="Trazado 170730" d="M201.189,223.046c0-15.88-5.988-39.526-34.828-38.089,1.625-20.111-14.159-47.748-48.544-45.221-16.6,1.219-20,15.36-21.8,14.653-23.148-9.095-53.811,11.359-47.518,43.7-12.862,1.541-21.1,14.072-20.8,29.735.195,10.176,5.519,18,14.154,18H181.779c10.435,0,19.136-9.717,19.4-22.013q.008-.38.008-.763" transform="translate(213.426 1636.173)" fill="#fff"/>
    <path id="Trazado_170731" data-name="Trazado 170731" d="M53.661,786H38.886a12.756,12.756,0,0,1-10.5-5.315,22.437,22.437,0,0,1-3.978-13.007,29.982,29.982,0,0,1,6.752-19.912,25.905,25.905,0,0,1,16.759-9.218.326.326,0,1,1,.078.648c-13.355,1.6-23.216,13.839-22.936,28.47.2,10.576,5.759,17.681,13.827,17.681H53.661a.327.327,0,0,1,0,.653" transform="translate(216.39 1096.325)" fill="#fff"/>
    <path id="Trazado_170732" data-name="Trazado 170732" d="M261.028,245.435c0-15.472-8.445-45.83-36.683-44.43-6.132-30.506-19.091-39.429-42.158-39.655-22.527-.221-26.673,17.7-28.407,16.925-24.236-10.83-49.856,13.284-44.933,41.72-12.593,1.5-19.274,14.368-19.274,29.537q0,.1,0,.2c.058,9.916,6.987,17.89,15.441,17.89H242.023c10.217,0,18.736-9.467,19-21.448q.008-.371.008-.744" transform="translate(157.649 1616.549)" fill="#4c53b5"/>
    <path id="Trazado_170733" data-name="Trazado 170733" d="M239.772,1428.651a.328.328,0,0,1-.107-.018c-18.385-6.35-29.074-15.7-34.8-22.422-6.222-7.3-8.114-13.2-8.132-13.255a.327.327,0,0,1,.623-.2c.018.058,1.883,5.851,8.032,13.057,5.676,6.652,16.268,15.9,34.494,22.2a.326.326,0,0,1-.107.635" transform="translate(61.083 506.885)" fill="#12263f"/>
    <path id="Trazado_170734" data-name="Trazado 170734" d="M178.737,1406.661a.325.325,0,0,1-.135-.029c-17.669-8.031-27.37-18.161-32.4-25.244-5.461-7.694-6.751-13.582-6.763-13.64a.327.327,0,0,1,.639-.135c.012.058,1.285,5.841,6.681,13.432,4.981,7.007,14.6,17.032,32.111,24.994a.326.326,0,0,1-.135.624" transform="translate(112.708 529.577)" fill="#12263f"/>
    <path id="Trazado_170735" data-name="Trazado 170735" d="M774.238,63.972a.327.327,0,0,1-.134-.624c15.021-6.761,36.936-4.437,37.156-4.413a.327.327,0,1,1-.072.649c-.218-.024-21.959-2.328-36.816,4.359a.327.327,0,0,1-.134.029" transform="translate(-459.144 1709.217)" fill="#12263f"/>
    <path id="Trazado_170736" data-name="Trazado 170736" d="M746.87,36a.327.327,0,0,1-.157-.613c11.238-6.156,30.748-5.955,30.945-5.952a.327.327,0,0,1,0,.653h0c-.2,0-19.535-.2-30.622,5.872a.325.325,0,0,1-.157.04" transform="translate(-434.478 1735.44)" fill="#12263f"/>
    <path id="Trazado_170737" data-name="Trazado 170737" d="M735.882,107.59a1.466,1.466,0,0,1-.749-2.727,1.466,1.466,0,1,1,.749,2.727m0-2.28a.813.813,0,1,0,.79,1.014.815.815,0,0,0-.79-1.014m-1.1.533h0Z" transform="translate(-423.546 1667.645)" fill="#12263f"/>
    <path id="Trazado_170738" data-name="Trazado 170738" d="M1202.483,72.281a.327.327,0,0,1-.325-.3l-.326-3.636a.327.327,0,0,1,.466-.324L1206.2,69.9a.327.327,0,0,1,0,.587l-3.58,1.765a.328.328,0,0,1-.144.034m.051-3.42.232,2.59,2.551-1.258Z" transform="translate(-844.827 1700.689)" fill="#12263f"/>
    <path id="Trazado_170739" data-name="Trazado 170739" d="M364.381,388.175l-13.955-6.849a148.344,148.344,0,0,1-31.531-20.84l-.685-4.242s-4.732.052-5.744-.006a4.746,4.746,0,0,0-3.6,1.349,148.351,148.351,0,0,1-35.13,25.493l-9.125,4.761c-2.12,1.106-2.9,3.056-2.262,5.859l11.925,50.375c5.19,14.093,26.095,32.951,37.862,42.768a11.347,11.347,0,0,0,7.36,2.642c1.154-.007,5.938.145,5.938.145a15.584,15.584,0,0,1,2.352-3.376c10.574-10.744,29.127-31.426,32.889-47.712l6.243-45.026a4.755,4.755,0,0,0-2.538-5.339" transform="translate(2.12 1440.902)" fill="#757ac6"/>
    <path id="Trazado_170740" data-name="Trazado 170740" d="M424.5,393.187l-13.846-6.8a147.192,147.192,0,0,1-31.286-20.678l-3.567-3.077a4.718,4.718,0,0,0-6.381.2,147.193,147.193,0,0,1-34.857,25.294l-9.054,4.724a4.718,4.718,0,0,0-2.245,5.813l11.832,49.982c5.15,13.983,26.115,32.871,37.79,42.611a11.308,11.308,0,0,0,15.3-.761c10.492-10.66,28.9-31.181,32.633-47.341l6.194-44.676a4.718,4.718,0,0,0-2.518-5.3" transform="translate(-52.709 1436.16)" fill="#fff"/>
    <path id="Trazado_170741" data-name="Trazado 170741" d="M497.808,503.11l-11.464-5.627a121.869,121.869,0,0,1-25.9-17.12l-2.954-2.548a3.906,3.906,0,0,0-5.284.166,121.876,121.876,0,0,1-28.86,20.943l-7.5,3.911a3.906,3.906,0,0,0-1.858,4.813l9.8,41.384c4.264,11.578,21.622,27.216,31.289,35.281a9.362,9.362,0,0,0,12.672-.63c8.687-8.826,23.929-25.817,27.019-39.2l5.129-36.99a3.907,3.907,0,0,0-2.085-4.386" transform="translate(-134.527 1332.172)" fill="#c6c8e9"/>
    <path id="Trazado_170742" data-name="Trazado 170742" d="M377.148,491.129a11.585,11.585,0,0,1-7.439-2.7c-11.938-9.959-32.734-28.755-37.888-42.749a.341.341,0,0,1-.011-.038l-11.828-49.964a5.056,5.056,0,0,1,2.407-6.2l9.053-4.724a146.761,146.761,0,0,0,34.779-25.238,5.014,5.014,0,0,1,6.823-.214l3.567,3.077a146.96,146.96,0,0,0,31.217,20.632l13.846,6.8a5.023,5.023,0,0,1,2.7,5.649l-2.656,19.157a.326.326,0,1,1-.646-.09l2.658-19.171c0-.01,0-.019.005-.029a4.373,4.373,0,0,0-2.344-4.93l-13.846-6.8a147.607,147.607,0,0,1-31.355-20.724l-3.568-3.077a4.365,4.365,0,0,0-5.94.187,147.425,147.425,0,0,1-34.934,25.351l-9.054,4.724a4.4,4.4,0,0,0-2.089,5.411.385.385,0,0,1,.011.038l11.828,49.963c5.113,13.849,25.8,32.542,37.686,42.455a11.045,11.045,0,0,0,14.862-.739c10.561-10.731,28.83-31.127,32.545-47.172l1.6-11.534a.326.326,0,1,1,.647.09l-1.6,11.549c0,.01,0,.019-.005.029-3.742,16.2-22.106,36.713-32.719,47.5a11.621,11.621,0,0,1-7.722,3.465q-.293.015-.586.015" transform="translate(-49.746 1439.241)" fill="#12263f"/>
    <path id="Trazado_170743" data-name="Trazado 170743" d="M724.8,626.863l.211-13.256a8.15,8.15,0,1,1,16.295.376l-.094,4.113a2.486,2.486,0,1,0,4.971.093l.057-3.906a13.083,13.083,0,0,0-13.721-13.491v.007a13.471,13.471,0,0,0-12.545,12.88l-.167,13.388Z" transform="translate(-410.381 1220.488)" fill="#fff"/>
    <path id="Trazado_170744" data-name="Trazado 170744" d="M716.826,624.411a.326.326,0,0,1-.326-.331l.167-13.387a13.841,13.841,0,0,1,12.793-13.2.312.312,0,0,1,.065-.01,13.409,13.409,0,0,1,14.061,13.824l-.057,3.9a2.813,2.813,0,0,1-4.783,1.966,2.785,2.785,0,0,1-.841-2.07l.094-4.113a7.892,7.892,0,0,0-2.368-5.806,7.737,7.737,0,0,0-5.813-2.222,7.861,7.861,0,0,0-7.461,7.667l-.211,13.254a.326.326,0,0,1-.313.321l-4.993.2h-.013m4.993-.529h0Zm7.8-25.747a.3.3,0,0,1-.063.009,13.166,13.166,0,0,0-12.231,12.561l-.163,13.039,4.34-.176.206-12.948a8.517,8.517,0,0,1,8.084-8.307,8.377,8.377,0,0,1,6.3,2.407,8.548,8.548,0,0,1,2.565,6.288l-.094,4.113a2.16,2.16,0,0,0,2.247,2.207,2.16,2.16,0,0,0,2.072-2.126l.057-3.905a12.755,12.755,0,0,0-13.318-13.162" transform="translate(-407.399 1223.47)" fill="#12263f"/>
    <path id="Trazado_170745" data-name="Trazado 170745" d="M645.551,889.429l5.592.221c7.743-.193,14.588-9.448,13.854-20.324l-1.175-17.4-32.912-.264a5.245,5.245,0,0,0-5.167,5.507l1.016,14.7a18.835,18.835,0,0,0,18.792,17.566" transform="translate(-325.59 994.37)" fill="#4c53b5"/>
    <path id="Trazado_170746" data-name="Trazado 170746" d="M699.34,893.928h0a18.835,18.835,0,0,0,18.792-20.1l-1.14-16.868H682.2a2.765,2.765,0,0,0-2.759,2.952l1.112,16.457a18.835,18.835,0,0,0,18.792,17.564" transform="translate(-373.988 989.599)" fill="#fff"/>
    <path id="Trazado_170747" data-name="Trazado 170747" d="M696.307,891.273A19.214,19.214,0,0,1,677.189,873.4l-1.118-16.543a3.011,3.011,0,0,1,3-3.214h32.159a3.251,3.251,0,0,1,3.235,3.023l.156,2.305a.326.326,0,0,1-.3.348.321.321,0,0,1-.348-.3l-.156-2.305a2.6,2.6,0,0,0-2.583-2.414H679.075a2.358,2.358,0,0,0-2.352,2.517l1.118,16.543a18.511,18.511,0,0,0,36.782,1.443.326.326,0,1,1,.646.094,19.169,19.169,0,0,1-18.963,16.376" transform="translate(-370.954 992.58)" fill="#12263f"/>
    <path id="Trazado_170748" data-name="Trazado 170748" d="M863.863,975.6h0a1.538,1.538,0,0,0,1.535-1.636l-.836-13.113a1.538,1.538,0,1,0-3.071.2l.836,13.113a1.538,1.538,0,0,0,1.535,1.441" transform="translate(-538.078 897.26)" fill="#12263f"/>
    <path id="Trazado_170749" data-name="Trazado 170749" d="M822.69,934.358a5.664,5.664,0,1,0,5.664-5.664,5.664,5.664,0,0,0-5.664,5.664" transform="translate(-503.108 924.94)" fill="#12263f"/>
    <path id="Trazado_170750" data-name="Trazado 170750" d="M1295.846,955.629s-1.106,3.794,15.406,4.718S1325,956.58,1325,956.58l-17.336-5.051Z" transform="translate(-929.549 904.359)" fill="#12263f"/>
    <path id="Trazado_170751" data-name="Trazado 170751" d="M1441.475,1585.912c-.442-.021,1.51,9.81,1.51,9.81l-4.182.5-2.274-11.062Z" transform="translate(-1056.36 333.271)" fill="#fff"/>
    <path id="Trazado_170752" data-name="Trazado 170752" d="M1435.821,1593.566a.327.327,0,0,1-.32-.261l-2.274-11.062a.326.326,0,0,1,.369-.388l4.946.755a.326.326,0,0,1,.212.519,88.972,88.972,0,0,0,1.569,9.551.327.327,0,0,1-.282.388l-4.181.5-.039,0m-1.86-11,2.119,10.309,3.534-.42c-.145-.743-.5-2.574-.826-4.414a36.211,36.211,0,0,1-.684-4.843Zm4.516.687h0Z" transform="translate(-1053.378 336.252)" fill="#12263f"/>
    <path id="Trazado_170753" data-name="Trazado 170753" d="M1367.731,1662.515c-.355-2.115-.9-4.958-1.361-5.536-.749-.942-2.785,1.112-2.785,1.112s-.929-3.039-2.94-2.637c-1.514.3-6.6,4-9.284,6.936a1.5,1.5,0,0,0,1.118,2.508h13.236a2.045,2.045,0,0,0,2.017-2.383" transform="translate(-979.245 269.946)" fill="#4c53b5"/>
    <path id="Trazado_170754" data-name="Trazado 170754" d="M1362.727,1662.229h-13.236a1.828,1.828,0,0,1-1.359-3.054c2.576-2.823,7.793-6.7,9.462-7.036,1.762-.353,2.761,1.48,3.139,2.385a3.745,3.745,0,0,1,2.183-1.111.964.964,0,0,1,.722.369c.148.187.6.755,1.427,5.685a2.371,2.371,0,0,1-2.339,2.764m-4.716-9.479a1.475,1.475,0,0,0-.289.029c-1.418.283-6.459,3.933-9.107,6.836a1.137,1.137,0,0,0-.2,1.256,1.169,1.169,0,0,0,1.08.705h13.236a1.718,1.718,0,0,0,1.7-2c-.722-4.3-1.146-5.2-1.295-5.386a.313.313,0,0,0-.247-.123h-.031a4.229,4.229,0,0,0-2.02,1.263.323.323,0,0,1-.31.087.326.326,0,0,1-.234-.221c-.008-.026-.77-2.442-2.275-2.442" transform="translate(-976.258 272.941)" fill="#12263f"/>
    <path id="Trazado_170755" data-name="Trazado 170755" d="M1383.974,1725.7h-13.146a.327.327,0,0,1,0-.653h13.146a.327.327,0,0,1,0,.653" transform="translate(-996.849 207.189)" fill="#fff"/>
    <path id="Trazado_170756" data-name="Trazado 170756" d="M1663.453,1591.019l4.784,9.482,2.675-.275-2.379-10.159Z" transform="translate(-1260.887 328.846)" fill="#fff"/>
    <path id="Trazado_170757" data-name="Trazado 170757" d="M1665.256,1597.844a.326.326,0,0,1-.291-.179l-4.784-9.482a.327.327,0,0,1,.231-.468l5.081-.951a.325.325,0,0,1,.378.246l2.379,10.159a.326.326,0,0,1-.285.4l-2.675.274-.033,0m-4.3-9.568,4.487,8.893,2.083-.214-2.223-9.494Z" transform="translate(-1257.906 331.829)" fill="#12263f"/>
    <path id="Trazado_170758" data-name="Trazado 170758" d="M1669.113,1665.7a2.406,2.406,0,0,1,3.585-.49s3.258,7.3,3.918,12.948a1.875,1.875,0,0,1-2.936,1.744,24.548,24.548,0,0,1-9.676-12.833,9.625,9.625,0,0,1,3.106-3.1Z" transform="translate(-1261.384 262.245)" fill="#4c53b5"/>
    <path id="Trazado_170759" data-name="Trazado 170759" d="M1671.767,1677.583a2.185,2.185,0,0,1-1.255-.4,24.669,24.669,0,0,1-9.8-13.009.327.327,0,0,1,.036-.264,9.835,9.835,0,0,1,3.239-3.224.326.326,0,0,1,.358.046l1.747,1.513a2.857,2.857,0,0,1,1.545-.9,2.93,2.93,0,0,1,2.271.614.323.323,0,0,1,.109.133c.033.073,3.287,7.412,3.945,13.043a2.165,2.165,0,0,1-1.056,2.132,2.213,2.213,0,0,1-1.136.318m-10.388-13.45a24.069,24.069,0,0,0,9.507,12.515,1.549,1.549,0,0,0,2.425-1.439c-.609-5.212-3.5-11.949-3.856-12.77a2.266,2.266,0,0,0-1.7-.454,2.3,2.3,0,0,0-1.351.908.327.327,0,0,1-.487.068l-1.834-1.588a9.4,9.4,0,0,0-2.7,2.761" transform="translate(-1258.402 265.228)" fill="#12263f"/>
    <path id="Trazado_170760" data-name="Trazado 170760" d="M1682.4,1707.849h-.013c-.221-.009-5.458-.335-10.622-11.25a.326.326,0,0,1,.59-.279c5,10.56,10.007,10.875,10.057,10.876a.327.327,0,0,1-.012.653" transform="translate(-1268.349 233.249)" fill="#fff"/>
    <path id="Trazado_170761" data-name="Trazado 170761" d="M1382.522,1039.5l8.025-.268L1379.6,995.965a67.368,67.368,0,0,0-8.425-19.566l-16.773-.01s-6.187,23.616,5.155,62.48h8.389s-3.266-35.458-3-45.646c0,0,7.885,29.125,17.571,46.272" transform="translate(-980.822 881.953)" fill="#12263f"/>
    <path id="Trazado_170762" data-name="Trazado 170762" d="M1435.251,1089.855a.327.327,0,0,1-.314-.238l-2.911-10.349-2.1-.64a.326.326,0,0,1,.191-.625l2.267.692a.326.326,0,0,1,.219.224l2.959,10.521a.327.327,0,0,1-.314.415" transform="translate(-1050.204 790.381)" fill="#caddff"/>
    <path id="Trazado_170763" data-name="Trazado 170763" d="M1048.344,693.59l6.2,3.345s3.8,9.908,9.237,10.505,10.818-6.925,10.818-6.925l3.61,7.724s-5.3,8.2-13.707,6.875-10.7-13.949-10.7-13.949a2.717,2.717,0,0,1-2.741-1.744,4.575,4.575,0,0,1-.372-2.625s-2.987-1.594-2.346-3.206" transform="translate(-706.409 1136.84)" fill="#fff"/>
    <path id="Trazado_170764" data-name="Trazado 170764" d="M1063.322,712.6a11.888,11.888,0,0,1-1.859-.146c-7.937-1.247-10.513-12.006-10.913-13.935-.085,0-.184-.013-.3-.028a2.964,2.964,0,0,1-2.479-1.936,5.506,5.506,0,0,1-.427-2.572c-.708-.42-2.928-1.892-2.29-3.5a.327.327,0,0,1,.458-.167l6.2,3.345a.326.326,0,0,1,.15.17c.037.1,3.791,9.729,8.969,10.3s10.464-6.717,10.517-6.791a.321.321,0,0,1,.3-.135.327.327,0,0,1,.266.187l3.61,7.724a.326.326,0,0,1-.022.315c-.05.078-4.729,7.167-12.173,7.167m-12.506-14.744a.351.351,0,0,1,.052,0,.326.326,0,0,1,.269.264c.023.124,2.349,12.415,10.427,13.685,7.488,1.177,12.52-5.5,13.282-6.583l-3.3-7.062c-1.272,1.638-5.945,7.15-10.788,6.619-5.317-.583-9-9.43-9.463-10.6l-5.7-3.076c.039,1,1.588,2.058,2.261,2.417a.326.326,0,0,1,.161.374,4.394,4.394,0,0,0,.362,2.421,2.39,2.39,0,0,0,2.381,1.54.343.343,0,0,1,.055,0" transform="translate(-703.421 1139.819)" fill="#12263f"/>
    <path id="Trazado_170765" data-name="Trazado 170765" d="M1081.837,722.48a.33.33,0,0,1-.1-.014,2.207,2.207,0,0,1-1.518-1.59,1.76,1.76,0,0,0-.528-.976,1.8,1.8,0,0,1-.533-1.286v-.24a.327.327,0,0,1,.448-.3l2.09.833a.327.327,0,1,1-.242.607l-1.616-.644a1.151,1.151,0,0,0,.313.571,2.407,2.407,0,0,1,.715,1.35c.1.752,1.053,1.052,1.063,1.055a.327.327,0,0,1-.1.639" transform="translate(-734.265 1114.796)" fill="#12263f"/>
    <path id="Trazado_170766" data-name="Trazado 170766" d="M1530.026,772.616s3.822,8.6,10.054,10.354,10.573-3.551,10.545-9.029l-2.118-.7s-2.174,5.614-7.023,4.154-7.1-12.881-7.1-12.881Z" transform="translate(-1140.629 1072.919)" fill="#fff"/>
    <path id="Trazado_170767" data-name="Trazado 170767" d="M1539.492,780.663a9.131,9.131,0,0,1-2.484-.359c-6.307-1.777-10.105-10.178-10.264-10.535a.326.326,0,0,1,.011-.287l4.359-8.106a.326.326,0,0,1,.608.091c.022.112,2.268,11.244,6.873,12.632,4.5,1.357,6.54-3.741,6.625-3.959a.326.326,0,0,1,.407-.192l2.119.7a.326.326,0,0,1,.224.308,10.216,10.216,0,0,1-3.77,8.1,7.683,7.683,0,0,1-4.707,1.6m-12.084-11.016c.532,1.121,4.2,8.458,9.778,10.029a7.25,7.25,0,0,0,6.618-1.133,9.525,9.525,0,0,0,3.511-7.347l-1.612-.534c-.545,1.16-2.875,5.395-7.3,4.063-4.232-1.275-6.494-9.522-7.135-12.262Z" transform="translate(-1137.646 1075.898)" fill="#12263f"/>
    <path id="Trazado_170768" data-name="Trazado 170768" d="M1295.974,724.382s3.832-5,14.659-4.067c12.928,1.116,13.914,3.67,13.914,3.67l-3.375,6.838,3.961,17.259s-2.706,2.241-9.045.983-17.232-2.8-20.112-1.933l4.016-16.469Z" transform="translate(-929.679 1112.857)" fill="#caddff"/>
    <path id="Trazado_170769" data-name="Trazado 170769" d="M1316.777,746.779a19.2,19.2,0,0,1-3.735-.392c-6.419-1.275-17.2-2.772-19.954-1.941a.326.326,0,0,1-.411-.39l3.982-16.333-3.942-6.164a.327.327,0,0,1,.016-.374c.161-.21,4.065-5.134,14.946-4.194,12.763,1.1,14.082,3.6,14.19,3.878a.325.325,0,0,1-.012.262l-3.323,6.734,3.934,17.146a.326.326,0,0,1-.11.325c-.09.074-1.8,1.443-5.582,1.443m-21.143-3.221a110.893,110.893,0,0,1,17.535,2.188c5.28,1.049,7.963-.379,8.614-.8l-3.912-17.046a.327.327,0,0,1,.026-.218l3.292-6.671c-.39-.455-2.681-2.428-13.566-3.368-9.392-.81-13.434,2.922-14.224,3.772l3.885,6.075a.327.327,0,0,1,.042.253l-3.891,15.957a13.786,13.786,0,0,1,2.2-.141" transform="translate(-926.697 1115.854)" fill="#12263f"/>
    <path id="Trazado_170770" data-name="Trazado 170770" d="M1558.95,745.185l-15.431.624a.668.668,0,0,1-.569-1.017l9.992-18.26a1.051,1.051,0,0,1,.9-.5l15.6.356Z" transform="translate(-1152.188 1107.601)" fill="#caddff"/>
    <path id="Trazado_170771" data-name="Trazado 170771" d="M1565.124,745.809h-16.656l10.925-19.778h16.656Z" transform="translate(-1157.25 1107.601)" fill="#757ac6"/>
    <path id="Trazado_170772" data-name="Trazado 170772" d="M1562.142,743.153h-16.656a.327.327,0,0,1-.286-.484l10.925-19.778a.327.327,0,0,1,.286-.169h16.656a.327.327,0,0,1,.286.485l-10.925,19.778a.327.327,0,0,1-.286.169m-16.1-.653h15.91l10.564-19.125H1556.6Z" transform="translate(-1154.269 1110.583)" fill="#12263f"/>
    <path id="Trazado_170773" data-name="Trazado 170773" d="M1719.83,848.788a7.315,7.315,0,0,1,0-2.734,26.859,26.859,0,0,1,2.809-5.03c.554-.681,1.025,6.591-2.809,7.764" transform="translate(-1311.573 1003.998)" fill="#fff"/>
    <path id="Trazado_170774" data-name="Trazado 170774" d="M1716.848,846.136a.327.327,0,0,1-.321-.265,7.561,7.561,0,0,1,.007-2.885,27.189,27.189,0,0,1,2.869-5.146.4.4,0,0,1,.462-.14c.448.167.51,1.286.483,2.195-.075,2.53-1.01,5.495-3.405,6.228a.329.329,0,0,1-.1.014m2.791-7.512a26.728,26.728,0,0,0-2.477,4.541,6.125,6.125,0,0,0-.052,2.2,4.07,4.07,0,0,0,2.031-2.47,9.676,9.676,0,0,0,.5-4.269" transform="translate(-1308.591 1006.976)" fill="#12263f"/>
    <path id="Trazado_170775" data-name="Trazado 170775" d="M1106.138,527.014a5.635,5.635,0,0,0-2.455,3.924c-.329,2.771,1.643,5.638,3.8,6.067,1.842.367,2.478-1.318,4.792-1.209,2.579.122,2.834,2.266,5.292,2.806,3.625.8,5.1-3.42,9.269-3.125,3.2.227,3.625,2.816,7.117,2.848a7.624,7.624,0,0,0,5.61-2.443,7.455,7.455,0,0,0,.589-8.574c-.16-.253-1.863-2.878-4.119-2.814-1.415.04-1.7,1.1-3.044,1.077-2.073-.036-2.489-2.564-4.3-2.67-2.1-.123-2.564,3.193-5.388,3.663-2.131.354-2.734-1.39-5.023-.988-2.372.417-2.488,2.424-4.5,2.489-1.927.061-2.457-1.759-4.952-1.774a5.149,5.149,0,0,0-2.68.723" transform="translate(-756.334 1290.685)" fill="#12263f"/>
    <path id="Trazado_170776" data-name="Trazado 170776" d="M1425.969,583.265c.144-.228-.539-1.461-.563-1.91s.327-.826.474-1.3a3.5,3.5,0,0,0-.017-1.311c-.2-5.627-6.331-4.292-6.331-4.292a4.319,4.319,0,0,0-2.508,3.059,8.585,8.585,0,0,0,.443,4.5c-.041.092-1.046,6.682-1.091,6.767-.637,1.224,3.632,2.025,4.975.792.454-.417-.127-3.477,0-3.481.5-.013,1.119.526,1.753.358.934-.248,1.637-2.587,1.771-2.761a1.125,1.125,0,0,1,.507-.182c.25-.057.511-.119.587-.239" transform="translate(-1038.139 1244.34)" fill="#fff"/>
    <path id="Trazado_170777" data-name="Trazado 170777" d="M1416.194,587.508a4.993,4.993,0,0,1-2.757-.711.9.9,0,0,1-.366-1.138c.053-.265.334-2.052.56-3.5.34-2.167.453-2.875.5-3.129a8.684,8.684,0,0,1-.42-4.607,4.689,4.689,0,0,1,2.729-3.29l.025-.007c.125-.027,3.093-.651,5.066.881a4.647,4.647,0,0,1,1.66,3.692,3.613,3.613,0,0,1,0,1.446,3.5,3.5,0,0,1-.246.558,1.335,1.335,0,0,0-.214.625,4.2,4.2,0,0,0,.273.812c.276.692.4,1.035.24,1.29h0a1.207,1.207,0,0,1-.789.382,3.221,3.221,0,0,0-.328.086c-.028.062-.073.174-.113.276-.327.819-.937,2.343-1.826,2.579a2.034,2.034,0,0,1-1.277-.19c-.079-.031-.157-.062-.23-.087.012.121.027.26.041.391.185,1.725.21,2.6-.149,2.935a3.6,3.6,0,0,1-2.382.7m-1.409-8.412c-.037.171-.287,1.762-.507,3.167-.56,3.568-.566,3.58-.607,3.66-.03.058-.086.165.165.357.824.631,3.392.877,4.3.044a8.37,8.37,0,0,0-.058-2.384c-.086-.8-.1-.924.027-1.068a.344.344,0,0,1,.243-.115,2,2,0,0,1,.808.2,1.476,1.476,0,0,0,.87.167c.573-.152,1.164-1.632,1.387-2.19a2.09,2.09,0,0,1,.209-.454,1.124,1.124,0,0,1,.675-.3,3.533,3.533,0,0,0,.359-.1,6.615,6.615,0,0,0-.252-.7,3.94,3.94,0,0,1-.319-1.019,1.847,1.847,0,0,1,.286-.959,2.9,2.9,0,0,0,.2-.453,3.137,3.137,0,0,0-.026-1.151.328.328,0,0,1-.006-.051,4.04,4.04,0,0,0-1.406-3.223c-1.672-1.3-4.319-.8-4.517-.763a4.036,4.036,0,0,0-2.273,2.823,8.307,8.307,0,0,0,.431,4.3.328.328,0,0,1,.01.21m8.188,1.163h0Z" transform="translate(-1035.143 1247.346)" fill="#12263f"/>
    <path id="Trazado_170778" data-name="Trazado 170778" d="M1431.551,570.193c-.616-.624-1.243,0-3.692-.345-2.037-.286-2.625-.861-4.167-.606a4.36,4.36,0,0,0-1.972.759,4.873,4.873,0,0,0-1.777,2.859,8.592,8.592,0,0,0,.356,4.414.417.417,0,0,0,.433.284,10.847,10.847,0,0,0,1.374-.2.315.315,0,0,0,.228-.426,1.512,1.512,0,0,1-.053-.155,1.187,1.187,0,1,1,2.264-.645,1.52,1.52,0,0,1,.034.148c.9-.681,1.362-1.452,2.193-1.866a3.03,3.03,0,0,1,1.2-.273c1.445-.051,1.926.805,2.61.64,1.194-.289,2.072-3.467.965-4.59" transform="translate(-1041.265 1248.971)" fill="#12263f"/>
    <path id="Trazado_170779" data-name="Trazado 170779" d="M1443.843,672.215a.326.326,0,0,1-.1-.015,3.523,3.523,0,0,1-2.633-2.292.326.326,0,0,1,.638-.14c.013.055.312,1.219,2.192,1.81a.327.327,0,0,1-.1.638" transform="translate(-1060.483 1158.541)" fill="#12263f"/>
    <path id="Trazado_170780" data-name="Trazado 170780" d="M36.8,143.28l3.569-2.7-2.022-4.452a18.544,18.544,0,0,0,1.919-2.459l4.808.861,1.74-4.125-3.978-2.846a18.788,18.788,0,0,0,.426-3.086l4.6-1.661-.556-4.442-4.861-.475A18.555,18.555,0,0,0,41.27,115l3.153-3.737-2.7-3.569-4.452,2.022a18.577,18.577,0,0,0-2.459-1.919l.861-4.807-4.125-1.74L28.7,105.231a18.8,18.8,0,0,0-3.086-.426l-1.66-4.6-4.443.556-.475,4.861a18.551,18.551,0,0,0-2.888,1.18l-3.737-3.153-3.569,2.7,2.022,4.452a18.551,18.551,0,0,0-1.919,2.459L4.137,112.4,2.4,116.527l3.978,2.846a18.811,18.811,0,0,0-.426,3.086l-4.6,1.66.556,4.442,4.861.475a18.54,18.54,0,0,0,1.18,2.887l-3.153,3.738,2.7,3.569,4.452-2.022a18.542,18.542,0,0,0,2.459,1.919l-.861,4.807,4.125,1.74,2.846-3.978a18.784,18.784,0,0,0,3.086.426l1.661,4.6,4.442-.556.475-4.861a18.54,18.54,0,0,0,2.887-1.18ZM15.419,130.421a11.525,11.525,0,1,1,16.146,2.231,11.525,11.525,0,0,1-16.146-2.231" transform="translate(237.166 1671.657)" fill="#757ac6"/>
    <path id="Trazado_170781" data-name="Trazado 170781" d="M25.334,121.962a.326.326,0,0,1-.307-.216l-1.588-4.4a19.167,19.167,0,0,1-2.712-.374l-2.721,3.8a.326.326,0,0,1-.392.111l-4.125-1.74a.326.326,0,0,1-.195-.358l.823-4.6a18.936,18.936,0,0,1-2.161-1.687L7.7,114.44a.328.328,0,0,1-.4-.1L4.6,110.77a.326.326,0,0,1,.011-.407l3.014-3.573a18.932,18.932,0,0,1-1.037-2.537L1.944,103.8a.327.327,0,0,1-.292-.284L1.1,99.071a.326.326,0,0,1,.213-.348l4.4-1.587a19.153,19.153,0,0,1,.375-2.712L2.278,91.7a.326.326,0,0,1-.111-.392l1.74-4.125a.327.327,0,0,1,.358-.195l4.6.823a18.937,18.937,0,0,1,1.687-2.161L8.615,81.4a.327.327,0,0,1,.1-.4l3.569-2.7a.326.326,0,0,1,.408.011l3.573,3.015A18.892,18.892,0,0,1,18.8,80.287l.454-4.647a.326.326,0,0,1,.284-.292l4.442-.556a.326.326,0,0,1,.348.213l1.588,4.4a19.186,19.186,0,0,1,2.711.375l2.721-3.8a.327.327,0,0,1,.392-.111l4.125,1.74a.327.327,0,0,1,.195.358l-.823,4.6A18.961,18.961,0,0,1,37.4,84.245l4.256-1.933a.327.327,0,0,1,.4.1l2.7,3.569a.327.327,0,0,1-.011.408L41.73,89.962A18.96,18.96,0,0,1,42.768,92.5l4.647.454a.327.327,0,0,1,.292.284l.556,4.442a.327.327,0,0,1-.213.348l-4.4,1.587a19.181,19.181,0,0,1-.374,2.712l3.8,2.721a.326.326,0,0,1,.111.392l-1.74,4.125a.327.327,0,0,1-.358.195l-4.6-.823A18.937,18.937,0,0,1,38.81,111.1l1.933,4.257a.327.327,0,0,1-.1.4l-3.569,2.7a.327.327,0,0,1-.408-.011l-3.573-3.014a18.947,18.947,0,0,1-2.537,1.038l-.454,4.647a.326.326,0,0,1-.284.292l-4.442.556-.041,0m-4.747-5.68a.326.326,0,0,1,.071.008,18.529,18.529,0,0,0,3.033.419.327.327,0,0,1,.289.215l1.572,4.355,3.924-.491.449-4.6a.326.326,0,0,1,.228-.28,18.292,18.292,0,0,0,2.836-1.16.326.326,0,0,1,.359.041l3.538,2.985,3.153-2.388-1.914-4.215a.327.327,0,0,1,.057-.357,18.283,18.283,0,0,0,1.885-2.416.328.328,0,0,1,.331-.143l4.551.815,1.537-3.644-3.766-2.694a.326.326,0,0,1-.129-.337,18.5,18.5,0,0,0,.419-3.032.327.327,0,0,1,.215-.289L47.582,97.5l-.491-3.924-4.6-.449a.326.326,0,0,1-.28-.228,18.3,18.3,0,0,0-1.16-2.837.327.327,0,0,1,.041-.359l2.985-3.538L41.69,83.014l-4.215,1.914a.327.327,0,0,1-.357-.058A18.276,18.276,0,0,0,34.7,82.986a.327.327,0,0,1-.143-.331l.815-4.55L31.73,76.567l-2.694,3.766a.327.327,0,0,1-.337.129,18.53,18.53,0,0,0-3.032-.419.326.326,0,0,1-.289-.215l-1.572-4.355-3.924.491-.449,4.6a.326.326,0,0,1-.228.28A18.237,18.237,0,0,0,16.367,82a.327.327,0,0,1-.359-.041l-3.538-2.985L9.318,81.365l1.914,4.215a.326.326,0,0,1-.057.356,18.3,18.3,0,0,0-1.885,2.416.329.329,0,0,1-.331.143l-4.551-.815L2.871,91.325l3.766,2.694a.327.327,0,0,1,.129.337,18.51,18.51,0,0,0-.419,3.032.327.327,0,0,1-.215.29L1.776,99.249l.491,3.924,4.6.449a.326.326,0,0,1,.28.228,18.279,18.279,0,0,0,1.159,2.836.326.326,0,0,1-.041.359l-2.985,3.538,2.388,3.153,4.215-1.914a.327.327,0,0,1,.356.057,18.284,18.284,0,0,0,2.416,1.885.326.326,0,0,1,.143.331l-.815,4.55,3.644,1.537,2.694-3.766a.327.327,0,0,1,.266-.137M24.7,110.23a12.053,12.053,0,0,1-1.647-.114,11.81,11.81,0,1,1,1.647.114m-8.953-5.093a11.2,11.2,0,1,0,2.167-15.689,11.126,11.126,0,0,0-2.167,15.689" transform="translate(237.396 1694.563)" fill="#12263f"/>
    <path id="Trazado_170782" data-name="Trazado 170782" d="M467.212,47.726l1.594-1.207-.9-1.988a8.28,8.28,0,0,0,.857-1.1l2.147.385.777-1.842L469.907,40.7a8.394,8.394,0,0,0,.19-1.378l2.055-.742L471.9,36.6l-2.171-.212a8.3,8.3,0,0,0-.527-1.29l1.408-1.669-1.207-1.594-1.989.9a8.289,8.289,0,0,0-1.1-.857l.385-2.147-1.842-.777-1.271,1.777a8.393,8.393,0,0,0-1.378-.19l-.742-2.055-1.984.248-.212,2.171a8.289,8.289,0,0,0-1.29.527l-1.669-1.408-1.594,1.207.9,1.988a8.286,8.286,0,0,0-.857,1.1l-2.147-.385-.777,1.842,1.777,1.271a8.393,8.393,0,0,0-.19,1.378l-2.055.742.248,1.984,2.171.212a8.277,8.277,0,0,0,.527,1.289l-1.408,1.669,1.207,1.594,1.988-.9a8.279,8.279,0,0,0,1.1.857l-.385,2.147,1.842.777,1.271-1.777a8.381,8.381,0,0,0,1.378.19l.742,2.055,1.984-.248.212-2.171a8.275,8.275,0,0,0,1.29-.527Zm-9.551-5.743a5.147,5.147,0,1,1,7.211,1,5.147,5.147,0,0,1-7.211-1" transform="translate(-168.443 1736.295)" fill="#fff"/>
    <path id="Trazado_170783" data-name="Trazado 170783" d="M468.577,37.853l1.594-1.207-.9-1.989a8.276,8.276,0,0,0,.857-1.1l2.147.385.777-1.842-1.777-1.271a8.391,8.391,0,0,0,.19-1.378l2.055-.742-.248-1.984-2.171-.212a8.281,8.281,0,0,0-.527-1.29l1.408-1.669-1.207-1.594-1.988.9a8.291,8.291,0,0,0-1.1-.857l.385-2.147-1.842-.777-1.271,1.777a8.392,8.392,0,0,0-1.378-.19l-.742-2.055-1.984.248-.212,2.171a8.288,8.288,0,0,0-1.29.527l-1.669-1.408-1.594,1.207.9,1.989a8.28,8.28,0,0,0-.857,1.1l-2.147-.384L453.21,25.9l1.777,1.271a8.393,8.393,0,0,0-.19,1.378l-2.055.742.248,1.984,2.171.212a8.274,8.274,0,0,0,.527,1.289l-1.408,1.669,1.207,1.594,1.988-.9a8.275,8.275,0,0,0,1.1.857l-.385,2.147,1.842.777,1.271-1.777a8.384,8.384,0,0,0,1.378.19l.742,2.055,1.984-.248.212-2.171a8.281,8.281,0,0,0,1.29-.527Zm-9.551-5.743a5.147,5.147,0,1,1,7.211,1,5.147,5.147,0,0,1-7.211-1" transform="translate(-169.674 1745.193)" fill="#757ac6"/>
    <path id="Trazado_170784" data-name="Trazado 170784" d="M460.439,36.735a.326.326,0,0,1-.307-.216l-.669-1.854a8.814,8.814,0,0,1-1-.138l-1.147,1.6a.326.326,0,0,1-.393.111l-1.842-.777a.327.327,0,0,1-.195-.358l.347-1.937a8.665,8.665,0,0,1-.8-.624l-1.794.815a.327.327,0,0,1-.4-.1l-1.207-1.594a.326.326,0,0,1,.011-.407l1.27-1.506a8.622,8.622,0,0,1-.384-.938l-1.959-.191a.327.327,0,0,1-.292-.284l-.248-1.984a.326.326,0,0,1,.213-.348l1.854-.669a8.8,8.8,0,0,1,.138-1l-1.6-1.147a.327.327,0,0,1-.111-.392l.777-1.843a.327.327,0,0,1,.359-.194l1.937.347a8.661,8.661,0,0,1,.624-.8l-.815-1.794a.327.327,0,0,1,.1-.4L454.5,16.91a.326.326,0,0,1,.408.011l1.506,1.27a8.623,8.623,0,0,1,.938-.384l.191-1.959a.326.326,0,0,1,.284-.292l1.984-.248a.326.326,0,0,1,.348.213l.669,1.854a8.791,8.791,0,0,1,1,.138l1.147-1.6a.327.327,0,0,1,.393-.111l1.843.777a.326.326,0,0,1,.194.358l-.347,1.937a8.684,8.684,0,0,1,.8.624l1.794-.814a.327.327,0,0,1,.4.1l1.207,1.594a.327.327,0,0,1-.011.408l-1.27,1.506a8.647,8.647,0,0,1,.384.938l1.959.191a.327.327,0,0,1,.292.284l.248,1.984a.327.327,0,0,1-.213.348l-1.854.669a8.777,8.777,0,0,1-.138,1l1.6,1.147a.326.326,0,0,1,.111.392l-.777,1.842a.328.328,0,0,1-.358.195l-1.937-.347a8.668,8.668,0,0,1-.624.8l.815,1.794a.327.327,0,0,1-.1.4l-1.594,1.207a.326.326,0,0,1-.408-.011l-1.506-1.271a8.608,8.608,0,0,1-.938.384l-.191,1.959a.327.327,0,0,1-.284.292l-1.984.248-.041,0m-2.12-2.9a.325.325,0,0,1,.071.008,8.09,8.09,0,0,0,1.325.183.327.327,0,0,1,.29.215l.653,1.809,1.466-.183.187-1.911a.326.326,0,0,1,.228-.28,7.984,7.984,0,0,0,1.239-.506.326.326,0,0,1,.359.041l1.47,1.24,1.178-.892-.8-1.751a.326.326,0,0,1,.057-.357,7.978,7.978,0,0,0,.823-1.055.328.328,0,0,1,.331-.143l1.89.339.574-1.361L468.1,28.113a.326.326,0,0,1-.129-.337,8.107,8.107,0,0,0,.183-1.324.326.326,0,0,1,.215-.289l1.809-.653-.184-1.466-1.911-.186a.326.326,0,0,1-.28-.228,7.986,7.986,0,0,0-.507-1.239.327.327,0,0,1,.041-.359l1.24-1.469-.892-1.178-1.751.795a.327.327,0,0,1-.356-.057,8.016,8.016,0,0,0-1.055-.823.327.327,0,0,1-.143-.331l.339-1.89-1.361-.574-1.119,1.565a.327.327,0,0,1-.337.129,8.085,8.085,0,0,0-1.325-.183.327.327,0,0,1-.289-.215l-.653-1.809-1.466.183-.187,1.911a.326.326,0,0,1-.228.28,7.961,7.961,0,0,0-1.239.506.327.327,0,0,1-.359-.041l-1.47-1.24-1.178.892.8,1.751a.326.326,0,0,1-.057.356,8,8,0,0,0-.823,1.055.327.327,0,0,1-.331.143l-1.89-.339-.574,1.361,1.564,1.119a.326.326,0,0,1,.129.337,8.093,8.093,0,0,0-.183,1.325.326.326,0,0,1-.215.289l-1.809.653L450.3,28l1.911.186a.327.327,0,0,1,.28.228A7.968,7.968,0,0,0,453,29.65a.326.326,0,0,1-.041.359l-1.24,1.47.892,1.178,1.751-.8a.328.328,0,0,1,.357.057,8,8,0,0,0,1.055.823.326.326,0,0,1,.143.331l-.339,1.89,1.361.574,1.119-1.565a.327.327,0,0,1,.266-.137m1.839-2.342a5.573,5.573,0,0,1-.761-.053,5.453,5.453,0,1,1,.761.053M456.3,28.931a4.821,4.821,0,1,0-.932-3.57,4.789,4.789,0,0,0,.932,3.57" transform="translate(-166.691 1748.176)" fill="#12263f"/>
    <path id="Trazado_170785" data-name="Trazado 170785" d="M1636.457,386.74a9.457,9.457,0,0,1,8.2-10.5,9.326,9.326,0,0,1,10.438,8.15,9.456,9.456,0,0,1-8.2,10.5,9.327,9.327,0,0,1-10.439-8.15" transform="translate(-1236.494 1422.932)" fill="#4c53b5"/>
    <path id="Trazado_170786" data-name="Trazado 170786" d="M1686.69,434.516l-9.035,1.138a.867.867,0,0,1-.971-.758l-.75-6.243a.879.879,0,0,1,.762-.976l9.035-1.138a.867.867,0,0,1,.97.758l.75,6.243a.88.88,0,0,1-.762.976" transform="translate(-1272.13 1377.539)" fill="#fff"/>
    <path id="Trazado_170787" data-name="Trazado 170787" d="M1698.143,456.924a.325.325,0,0,1-.144-.033l-3.73-1.833a.327.327,0,0,1,.288-.586l3.73,1.833a.327.327,0,0,1-.144.62" transform="translate(-1288.496 1352.387)" fill="#4c53b5"/>
    <path id="Trazado_170788" data-name="Trazado 170788" d="M1732.452,448.937a.327.327,0,0,1-.212-.575l3.185-2.7a.327.327,0,1,1,.423.5l-3.185,2.7a.325.325,0,0,1-.211.078" transform="translate(-1322.781 1360.37)" fill="#4c53b5"/>
    <path id="Trazado_170789" data-name="Trazado 170789" d="M1530.8,152.913a9.457,9.457,0,0,1,1.293-13.257,9.327,9.327,0,0,1,13.181,1.284,9.457,9.457,0,0,1-1.293,13.257,9.327,9.327,0,0,1-13.181-1.284" transform="translate(-1139.411 1638.034)" fill="#4c53b5"/>
    <path id="Trazado_170790" data-name="Trazado 170790" d="M1574.264,204.434l1.949-3.3a.27.27,0,0,1,.414-.063l1.881,1.706a.27.27,0,0,0,.408-.053l2.829-4.355a.27.27,0,0,1,.469.029l2.807,5.765a.27.27,0,0,1-.235.388l-10.282.286a.27.27,0,0,1-.24-.407" transform="translate(-1180.467 1583.288)" fill="#fff"/>
    <path id="Trazado_170791" data-name="Trazado 170791" d="M1608.02,185.93a1.106,1.106,0,1,1-.751-1.372,1.106,1.106,0,0,1,.751,1.372" transform="translate(-1208.971 1595.67)" fill="#fff"/>
    <path id="Trazado_170792" data-name="Trazado 170792" d="M1297.6,31.429a9.457,9.457,0,0,1,1.068-13.277,9.327,9.327,0,0,1,13.2,1.061A9.456,9.456,0,0,1,1310.8,32.49a9.327,9.327,0,0,1-13.2-1.061" transform="translate(-929.131 1747.638)" fill="#4c53b5"/>
    <path id="Trazado_170793" data-name="Trazado 170793" d="M1361.406,82.489l-.168-7.023a.484.484,0,0,1,.687-.451l7.11,3.3a.483.483,0,0,1,.025.865l-6.942,3.728a.484.484,0,0,1-.713-.414" transform="translate(-988.5 1694.4)" fill="#fff"/>
    <path id="Trazado_171130" data-name="Trazado 171130" d="M0,0H180.744V180.839H0Z" transform="translate(238.381 1761.971)" fill="none"/>
  </g>
</svg>
