<svg xmlns="http://www.w3.org/2000/svg" xmlns:xlink="http://www.w3.org/1999/xlink" width="295" height="345.936" viewBox="0 0 295 345.936">
  <defs>
    <clipPath id="clip-path">
      <rect id="Rectángulo_43623" data-name="Rectángulo 43623" width="180.519" height="180.519" fill="none"/>
    </clipPath>
  </defs>
  <g id="Grupo_121683" data-name="Grupo 121683" transform="translate(-810.955 -1725)">
    <rect id="Rectángulo_43576" data-name="Rectángulo 43576" width="295" height="345.936" rx="21" transform="translate(810.955 1725)" fill="#e9eef4"/>
    <g id="Grupo_121558" data-name="Grupo 121558" transform="translate(879.76 1977.76)">
      <g id="Grupo_20708" data-name="Grupo 20708">
        <path id="Trazado_171132" data-name="Trazado 171132" d="M42.015,13.568H37.164v3.059h5.73V19H34.079V6.2h8.833V8.585H37.164v2.7h4.852Zm5.563,1.907,1.5-5.985H52.2L49.1,19H46.076l-3.1-9.51H46.1ZM58.31,19a3.344,3.344,0,0,1-.281-.853,2.754,2.754,0,0,1-2.285,1.028,3.374,3.374,0,0,1-2.285-.813,2.588,2.588,0,0,1-.94-2.043,2.66,2.66,0,0,1,1.143-2.338,5.821,5.821,0,0,1,3.322-.791H57.9v-.5q0-1.316-1.134-1.316a.927.927,0,0,0-1.055,1.042H52.747a2.655,2.655,0,0,1,1.173-2.239,4.931,4.931,0,0,1,2.993-.86,4.323,4.323,0,0,1,2.874.888,3.086,3.086,0,0,1,1.081,2.435v4.21a4.311,4.311,0,0,0,.4,2V19Zm-1.854-1.934a1.652,1.652,0,0,0,.918-.237,1.487,1.487,0,0,0,.523-.536V14.772h-.861q-1.547,0-1.547,1.389a.848.848,0,0,0,.272.655A.986.986,0,0,0,56.456,17.066ZM65.631,19H62.661V5.5h2.971Zm7.488-1.028a3.054,3.054,0,0,1-2.54,1.2,3,3,0,0,1-2.369-.91,3.826,3.826,0,0,1-.8-2.615V9.49h2.962v6.179a1.065,1.065,0,0,0,1.187,1.222,1.548,1.548,0,0,0,1.45-.729V9.49h2.979V19H73.208ZM82.963,19a3.344,3.344,0,0,1-.281-.853A2.754,2.754,0,0,1,80.4,19.176a3.374,3.374,0,0,1-2.285-.813,2.588,2.588,0,0,1-.94-2.043,2.66,2.66,0,0,1,1.143-2.338,5.821,5.821,0,0,1,3.322-.791h.914v-.5q0-1.316-1.134-1.316a.927.927,0,0,0-1.055,1.042H77.4a2.655,2.655,0,0,1,1.173-2.239,4.931,4.931,0,0,1,2.993-.86,4.323,4.323,0,0,1,2.874.888,3.086,3.086,0,0,1,1.081,2.435v4.21a4.311,4.311,0,0,0,.4,2V19Zm-1.854-1.934a1.652,1.652,0,0,0,.918-.237,1.487,1.487,0,0,0,.523-.536V14.772h-.861q-1.547,0-1.547,1.389a.848.848,0,0,0,.272.655A.986.986,0,0,0,81.109,17.066Zm10.072-.176a1.317,1.317,0,0,0,.967-.338,1.241,1.241,0,0,0,.334-.945h2.777a3.288,3.288,0,0,1-1.121,2.566,4.168,4.168,0,0,1-2.887,1,4.22,4.22,0,0,1-3.27-1.3,5.125,5.125,0,0,1-1.2-3.6v-.123a5.792,5.792,0,0,1,.532-2.544,3.872,3.872,0,0,1,1.534-1.7,4.573,4.573,0,0,1,2.373-.593,4.116,4.116,0,0,1,2.944,1.028,3.647,3.647,0,0,1,1.09,2.786H92.482A1.626,1.626,0,0,0,92.122,12a1.244,1.244,0,0,0-.967-.4Q90,11.6,89.81,13.067a10.357,10.357,0,0,0-.062,1.283,4.068,4.068,0,0,0,.343,1.986A1.187,1.187,0,0,0,91.181,16.891ZM99.636,19H96.666V9.49h2.971ZM96.49,7.038A1.322,1.322,0,0,1,96.947,6,1.943,1.943,0,0,1,99.32,6a1.322,1.322,0,0,1,.457,1.037,1.322,1.322,0,0,1-.457,1.037,1.943,1.943,0,0,1-2.373,0A1.322,1.322,0,0,1,96.49,7.038Zm4.6,7.119a5.613,5.613,0,0,1,.554-2.536,3.96,3.96,0,0,1,1.591-1.709,4.791,4.791,0,0,1,2.435-.6,4.373,4.373,0,0,1,3.366,1.323,5.076,5.076,0,0,1,1.23,3.6v.105a4.925,4.925,0,0,1-1.235,3.529,4.384,4.384,0,0,1-3.344,1.305,4.434,4.434,0,0,1-3.261-1.217,4.761,4.761,0,0,1-1.327-3.3Zm2.962.185a3.538,3.538,0,0,0,.413,1.934,1.376,1.376,0,0,0,1.222.615q1.582,0,1.617-2.435v-.3q0-2.558-1.635-2.558-1.485,0-1.608,2.206ZM106.07,5.5H109.2l-2.443,2.76-2.417,0Zm8.218,3.99.1,1.116A3.225,3.225,0,0,1,117.1,9.314a2.713,2.713,0,0,1,2.219.888,4.226,4.226,0,0,1,.76,2.672V19h-2.971V13a1.6,1.6,0,0,0-.29-1.059,1.342,1.342,0,0,0-1.055-.338,1.413,1.413,0,0,0-1.292.686V19H111.51V9.49ZM37.155,39.175a5.809,5.809,0,0,1,.976-3.56,3.211,3.211,0,0,1,2.725-1.3,2.731,2.731,0,0,1,2.145,1V30.5H45.97V44H43.307l-.149-1.02a2.8,2.8,0,0,1-2.32,1.2,3.205,3.205,0,0,1-2.689-1.3A5.993,5.993,0,0,1,37.155,39.175Zm2.962.185q0,2.531,1.477,2.531A1.458,1.458,0,0,0,43,41.064V37.443a1.419,1.419,0,0,0-1.389-.844q-1.371,0-1.485,2.215Zm12.138,4.816a4.889,4.889,0,0,1-3.542-1.305,4.507,4.507,0,0,1-1.354-3.4v-.246a5.84,5.84,0,0,1,.541-2.575,3.955,3.955,0,0,1,1.578-1.727,4.763,4.763,0,0,1,2.461-.611A4.117,4.117,0,0,1,55.1,35.558a4.887,4.887,0,0,1,1.16,3.467v1.151H50.374a2.135,2.135,0,0,0,.694,1.257,2.066,2.066,0,0,0,1.389.457,2.662,2.662,0,0,0,2.2-.984l1.354,1.6a3.784,3.784,0,0,1-1.569,1.217A5.3,5.3,0,0,1,52.254,44.176ZM51.92,36.6q-1.3,0-1.547,1.723h2.988v-.229a1.467,1.467,0,0,0-.36-1.1A1.434,1.434,0,0,0,51.92,36.6ZM60.578,44H57.607V30.5h2.971Zm12.059-6.829-.976-.07a1.752,1.752,0,0,0-1.793.879V44H66.906V34.49h2.777l.1,1.222a2.294,2.294,0,0,1,2.083-1.4,2.888,2.888,0,0,1,.826.105ZM76.829,44H73.858V34.49h2.971ZM73.682,32.038A1.322,1.322,0,0,1,74.139,31a1.943,1.943,0,0,1,2.373,0,1.405,1.405,0,0,1,0,2.074,1.943,1.943,0,0,1-2.373,0A1.322,1.322,0,0,1,73.682,32.038Zm9.571,12.138a4.889,4.889,0,0,1-3.542-1.305,4.507,4.507,0,0,1-1.354-3.4v-.246a5.84,5.84,0,0,1,.541-2.575,3.955,3.955,0,0,1,1.578-1.727,4.763,4.763,0,0,1,2.461-.611A4.117,4.117,0,0,1,86.1,35.558a4.887,4.887,0,0,1,1.16,3.467v1.151H81.373a2.135,2.135,0,0,0,.694,1.257,2.066,2.066,0,0,0,1.389.457,2.662,2.662,0,0,0,2.2-.984l1.354,1.6a3.784,3.784,0,0,1-1.569,1.217A5.3,5.3,0,0,1,83.253,44.176ZM82.919,36.6q-1.3,0-1.547,1.723h2.988v-.229a1.467,1.467,0,0,0-.36-1.1A1.434,1.434,0,0,0,82.919,36.6Zm10.512,4.729a.684.684,0,0,0-.4-.606,6.016,6.016,0,0,0-1.5-.475A6.853,6.853,0,0,1,89.7,39.6a3.062,3.062,0,0,1-1.1-.971,2.319,2.319,0,0,1-.378-1.31,2.628,2.628,0,0,1,1.081-2.158,4.453,4.453,0,0,1,2.83-.848,4.934,4.934,0,0,1,3.023.853,2.666,2.666,0,0,1,1.143,2.241H93.334q0-1.143-1.2-1.143a1.194,1.194,0,0,0-.782.259.8.8,0,0,0-.316.646.737.737,0,0,0,.387.642,3.654,3.654,0,0,0,1.235.4,10.671,10.671,0,0,1,1.49.378,2.706,2.706,0,0,1,2.145,2.646,2.491,2.491,0,0,1-1.156,2.118,5.068,5.068,0,0,1-2.993.817,5.172,5.172,0,0,1-2.18-.439,3.645,3.645,0,0,1-1.494-1.2,2.707,2.707,0,0,1-.536-1.591H90.7a1.145,1.145,0,0,0,.439.962,1.808,1.808,0,0,0,1.081.3,1.422,1.422,0,0,0,.91-.246A.787.787,0,0,0,93.431,41.328Zm3.894-2.153a6.421,6.421,0,0,1,.475-2.549,3.821,3.821,0,0,1,1.362-1.709,3.591,3.591,0,0,1,2.065-.6,2.855,2.855,0,0,1,2.32,1l.105-.826h2.689V43.64a4.009,4.009,0,0,1-.584,2.184,3.75,3.75,0,0,1-1.692,1.424,6.219,6.219,0,0,1-2.566.5,5.365,5.365,0,0,1-2.026-.4,3.657,3.657,0,0,1-1.5-1.028l1.239-1.74a2.716,2.716,0,0,0,2.18.976,1.764,1.764,0,0,0,1.969-2.021v-.3a2.781,2.781,0,0,1-2.153.94A3.437,3.437,0,0,1,98.4,42.844a5.517,5.517,0,0,1-1.072-3.564Zm2.971.185a3.383,3.383,0,0,0,.439,1.85,1.387,1.387,0,0,0,1.23.681,1.573,1.573,0,0,0,1.4-.642v-4a1.534,1.534,0,0,0-1.38-.65,1.4,1.4,0,0,0-1.239.708A3.858,3.858,0,0,0,100.3,39.359Zm7.356-.2a5.613,5.613,0,0,1,.554-2.536,3.96,3.96,0,0,1,1.591-1.709,4.791,4.791,0,0,1,2.435-.6,4.373,4.373,0,0,1,3.366,1.323,5.076,5.076,0,0,1,1.23,3.6v.105a4.925,4.925,0,0,1-1.235,3.529,4.384,4.384,0,0,1-3.344,1.305,4.434,4.434,0,0,1-3.261-1.217,4.761,4.761,0,0,1-1.327-3.3Zm2.962.185a3.538,3.538,0,0,0,.413,1.934,1.376,1.376,0,0,0,1.222.615q1.582,0,1.617-2.435v-.3q0-2.558-1.635-2.558-1.485,0-1.608,2.206Z" fill="#12263f"/>
      </g>
    </g>
    <g id="Grupo_121575" data-name="Grupo 121575" transform="translate(867.5 1762.293)">
      <g id="Grupo_121574" data-name="Grupo 121574" clip-path="url(#clip-path)">
        <path id="Trazado_170894" data-name="Trazado 170894" d="M43.709,45.591c18.883-19,13.477-30.916,26.4-39.715,19.881-13.539,56.986-1.891,78.877,16.732C175.8,45.417,189.628,87.064,173.87,124.74c-16.782,40.124-60.936,60.952-100.336,54.675C38.351,173.81,3.764,146.081.3,112.823c-.376-3.6-2.034-23.091,9.6-39.891,9.613-13.886,18.846-12.276,33.815-27.341" transform="translate(-0.001 0)" fill="#bec6d0"/>
        <path id="Trazado_170895" data-name="Trazado 170895" d="M260.135,596.5l-150.266-4.64c-3.574,0-6.481,2.325-6.481,5.183v83.894c0,2.858,2.907,5.183,6.481,5.183l54.3-2.942-6.971,20.348-7.376.047c-2.3,0-4.171,1.5-4.171,3.336s1.871,3.336,4.171,3.336l61.77-2.356c2.3,0-2-21.769-2-21.769s54.125-89.62,50.551-89.62" transform="translate(-93.196 -533.512)" fill="#939eac"/>
        <path id="Trazado_170896" data-name="Trazado 170896" d="M721.014,1439.245H682.7l-10.871,31.732h60.06Z" transform="translate(-605.597 -1297.366)" fill="#fff"/>
        <path id="Trazado_170897" data-name="Trazado 170897" d="M297.5,594.829h-153c-3.377,0-6.115,2.189-6.115,4.89v83.894c0,2.7,2.738,4.89,6.115,4.89h153c3.377,0,6.115-2.189,6.115-4.89V599.719c0-2.7-2.738-4.89-6.115-4.89" transform="translate(-124.739 -536.191)" fill="#fff"/>
        <path id="Trazado_170898" data-name="Trazado 170898" d="M294.515,685.845h-153c-3.552,0-6.441-2.34-6.441-5.216V596.735c0-2.876,2.889-5.216,6.441-5.216h153c3.551,0,6.441,2.34,6.441,5.216v83.894c0,2.876-2.889,5.216-6.441,5.216m-153-93.674c-3.192,0-5.789,2.047-5.789,4.564v83.894c0,2.516,2.6,4.564,5.789,4.564h153c3.192,0,5.788-2.047,5.788-4.564V596.735c0-2.517-2.6-4.564-5.788-4.564Z" transform="translate(-121.756 -533.208)" fill="#12263f"/>
        <path id="Trazado_170899" data-name="Trazado 170899" d="M643.975,1728.066h-73.1c-2.1,0-3.8,1.362-3.8,3.043s1.7,3.043,3.8,3.043h73.1c2.1,0,3.8-1.362,3.8-3.043s-1.7-3.043-3.8-3.043" transform="translate(-511.165 -1557.716)" fill="#fff"/>
        <path id="Trazado_170900" data-name="Trazado 170900" d="M1237.58,1634.153l-3.054-8.916Z" transform="translate(-1112.828 -1465.023)" fill="#fff"/>
        <path id="Trazado_170901" data-name="Trazado 170901" d="M1234.6,1631.491a.327.327,0,0,1-.309-.22l-3.054-8.916a.326.326,0,1,1,.617-.212l3.054,8.916a.326.326,0,0,1-.309.432" transform="translate(-1109.843 -1462.035)" fill="#12263f"/>
        <path id="Trazado_170902" data-name="Trazado 170902" d="M1207.471,1731.5a.326.326,0,0,1,0-.653c1.918,0,3.479-1.219,3.479-2.716s-1.56-2.717-3.479-2.717h-14.959a.326.326,0,1,1,0-.652h14.959c2.278,0,4.131,1.511,4.131,3.369s-1.853,3.369-4.131,3.369" transform="translate(-1074.661 -1554.733)" fill="#12263f"/>
        <path id="Trazado_170903" data-name="Trazado 170903" d="M1113.987,1787.142H1094.7a.326.326,0,0,1,0-.652h19.284a.326.326,0,1,1,0,.652" transform="translate(-986.495 -1610.38)" fill="#12263f"/>
        <path id="Trazado_170904" data-name="Trazado 170904" d="M193.517,1174.05c0,1.343,1.361,2.431,3.04,2.431H344.839c1.679,0,3.04-1.088,3.04-2.431v-33.055Z" transform="translate(-174.44 -1028.517)" fill="#fff"/>
        <path id="Trazado_170905" data-name="Trazado 170905" d="M341.855,1173.824H193.574c-1.856,0-3.367-1.237-3.367-2.758a.326.326,0,0,1,.652,0c0,1.161,1.218,2.105,2.714,2.105H341.855c1.5,0,2.714-.944,2.714-2.105v-33.055a.326.326,0,0,1,.653,0v33.055c0,1.521-1.51,2.758-3.367,2.758" transform="translate(-171.457 -1025.533)" fill="#12263f"/>
        <path id="Trazado_170906" data-name="Trazado 170906" d="M193.517,705.114v0Z" transform="translate(-174.44 -635.605)" fill="#fff"/>
        <path id="Trazado_170907" data-name="Trazado 170907" d="M190.534,707.615a.326.326,0,0,1-.326-.326V702.13a.326.326,0,1,1,.652,0v5.158a.326.326,0,0,1-.326.326" transform="translate(-171.458 -632.621)" fill="#12263f"/>
        <path id="Trazado_170908" data-name="Trazado 170908" d="M205.376,638.924h-8.818c-1.679,0-3.04,1.089-3.04,2.432Z" transform="translate(-174.44 -575.94)" fill="#fff"/>
        <path id="Trazado_170909" data-name="Trazado 170909" d="M190.534,638.7a.326.326,0,0,1-.326-.326c0-1.521,1.51-2.758,3.367-2.758h8.818a.326.326,0,1,1,0,.652h-8.818c-1.5,0-2.714.945-2.714,2.105a.326.326,0,0,1-.326.326" transform="translate(-171.458 -572.957)" fill="#12263f"/>
        <path id="Trazado_170910" data-name="Trazado 170910" d="M1648.665,645.449v-4.094c0-1.343-1.361-2.432-3.04-2.432h-9.068Z" transform="translate(-1475.226 -575.94)" fill="#fff"/>
        <path id="Trazado_170911" data-name="Trazado 170911" d="M1645.683,642.792a.326.326,0,0,1-.326-.326v-4.094c0-1.161-1.218-2.105-2.714-2.105h-9.068a.326.326,0,0,1,0-.652h9.068c1.856,0,3.367,1.237,3.367,2.758v4.094a.326.326,0,0,1-.326.326" transform="translate(-1472.245 -572.957)" fill="#12263f"/>
        <path id="Trazado_170912" data-name="Trazado 170912" d="M1759.391,768.892v0Z" transform="translate(-1585.952 -687.956)" fill="#fff"/>
        <path id="Trazado_170913" data-name="Trazado 170913" d="M1756.408,766.235a.326.326,0,0,1-.326-.326v-5.7a.326.326,0,1,1,.652,0v5.7a.326.326,0,0,1-.326.326" transform="translate(-1582.969 -684.973)" fill="#12263f"/>
        <rect id="Rectángulo_43589" data-name="Rectángulo 43589" width="131.041" height="84.449" transform="translate(37.734 63.197)" fill="#bec6d0"/>
        <rect id="Rectángulo_43590" data-name="Rectángulo 43590" width="63.258" height="2.108" transform="translate(47.41 68.244)" fill="#939eac"/>
        <rect id="Rectángulo_43591" data-name="Rectángulo 43591" width="73.942" height="2.194" transform="translate(68.689 71.819)" fill="#fff"/>
        <rect id="Rectángulo_43592" data-name="Rectángulo 43592" width="73.942" height="2.194" transform="translate(85.157 75.437)" fill="#fff"/>
        <rect id="Rectángulo_43593" data-name="Rectángulo 43593" width="38.219" height="2.194" transform="translate(111.964 79.054)" fill="#fff"/>
        <rect id="Rectángulo_43594" data-name="Rectángulo 43594" width="63.258" height="2.108" transform="translate(47.41 97.187)" fill="#939eac"/>
        <rect id="Rectángulo_43595" data-name="Rectángulo 43595" width="73.942" height="2.194" transform="translate(68.689 100.762)" fill="#fff"/>
        <rect id="Rectángulo_43596" data-name="Rectángulo 43596" width="73.942" height="2.194" transform="translate(85.157 104.379)" fill="#fff"/>
        <rect id="Rectángulo_43597" data-name="Rectángulo 43597" width="47.135" height="2.194" transform="translate(111.964 107.997)" fill="#fff"/>
        <rect id="Rectángulo_43598" data-name="Rectángulo 43598" width="73.942" height="2.194" transform="translate(68.689 82.672)" fill="#fff"/>
        <rect id="Rectángulo_43599" data-name="Rectángulo 43599" width="73.942" height="2.194" transform="translate(85.157 86.29)" fill="#fff"/>
        <rect id="Rectángulo_43600" data-name="Rectángulo 43600" width="29.303" height="2.194" transform="translate(111.964 93.526)" fill="#fff"/>
        <rect id="Rectángulo_43601" data-name="Rectángulo 43601" width="47.135" height="2.194" transform="translate(111.964 89.908)" fill="#fff"/>
        <rect id="Rectángulo_43602" data-name="Rectángulo 43602" width="63.258" height="2.108" transform="translate(47.41 111.658)" fill="#939eac"/>
        <rect id="Rectángulo_43603" data-name="Rectángulo 43603" width="34.772" height="2.194" transform="translate(107.86 115.233)" fill="#fff"/>
        <rect id="Rectángulo_43604" data-name="Rectángulo 43604" width="63.743" height="2.194" transform="translate(92.978 118.851)" fill="#fff"/>
        <rect id="Rectángulo_43605" data-name="Rectángulo 43605" width="47.135" height="2.194" transform="translate(111.964 122.469)" fill="#939eac"/>
        <rect id="Rectángulo_43606" data-name="Rectángulo 43606" width="39.954" height="2.194" transform="translate(85.157 140.558)" fill="#939eac"/>
        <rect id="Rectángulo_43607" data-name="Rectángulo 43607" width="73.942" height="2.194" transform="translate(68.689 126.086)" fill="#fff"/>
        <rect id="Rectángulo_43608" data-name="Rectángulo 43608" width="73.942" height="2.194" transform="translate(85.157 129.704)" fill="#fff"/>
        <rect id="Rectángulo_43609" data-name="Rectángulo 43609" width="47.135" height="2.194" transform="translate(111.964 136.94)" fill="#fff"/>
        <rect id="Rectángulo_43610" data-name="Rectángulo 43610" width="26.985" height="2.194" transform="translate(111.964 133.322)" fill="#fff"/>
        <path id="Trazado_170914" data-name="Trazado 170914" d="M446.882,74.909H386.56a3.876,3.876,0,0,0-3.876,3.876V103.9a3.876,3.876,0,0,0,3.876,3.876h60.322a3.876,3.876,0,0,0,3.876-3.876V78.785a3.876,3.876,0,0,0-3.876-3.876" transform="translate(-344.959 -67.525)" fill="#3d4e63"/>
        <rect id="Rectángulo_43611" data-name="Rectángulo 43611" width="45.737" height="3.911" transform="translate(44.957 12.372)" fill="#fff"/>
        <rect id="Rectángulo_43612" data-name="Rectángulo 43612" width="42.759" height="2.711" transform="translate(55.807 21.003)" fill="#bec6d0"/>
        <rect id="Rectángulo_43613" data-name="Rectángulo 43613" width="42.759" height="2.711" transform="translate(55.807 26.78)" fill="#bec6d0"/>
        <rect id="Rectángulo_43614" data-name="Rectángulo 43614" width="42.759" height="2.711" transform="translate(55.807 32.556)" fill="#bec6d0"/>
        <path id="Trazado_170915" data-name="Trazado 170915" d="M446.882,460.769H386.56a3.876,3.876,0,0,0-3.876,3.876v25.119a3.876,3.876,0,0,0,3.876,3.876h60.322a3.876,3.876,0,0,0,3.876-3.876V464.645a3.875,3.875,0,0,0-3.876-3.876" transform="translate(-344.959 -415.347)" fill="#3d4e63"/>
        <rect id="Rectángulo_43615" data-name="Rectángulo 43615" width="45.737" height="3.911" transform="translate(44.957 50.41)" fill="#fff"/>
        <rect id="Rectángulo_43616" data-name="Rectángulo 43616" width="42.759" height="2.711" transform="translate(55.807 59.041)" fill="#bec6d0"/>
        <rect id="Rectángulo_43617" data-name="Rectángulo 43617" width="42.759" height="2.711" transform="translate(55.807 64.817)" fill="#bec6d0"/>
        <rect id="Rectángulo_43618" data-name="Rectángulo 43618" width="42.759" height="2.711" transform="translate(55.807 70.594)" fill="#bec6d0"/>
        <path id="Trazado_170916" data-name="Trazado 170916" d="M446.882,846.63H386.56a3.876,3.876,0,0,0-3.876,3.876v25.119a3.876,3.876,0,0,0,3.876,3.876h60.322a3.876,3.876,0,0,0,3.876-3.876V850.506a3.875,3.875,0,0,0-3.876-3.876" transform="translate(-344.959 -763.17)" fill="#3d4e63"/>
        <rect id="Rectángulo_43619" data-name="Rectángulo 43619" width="45.737" height="3.911" transform="translate(44.957 88.448)" fill="#fff"/>
        <rect id="Rectángulo_43620" data-name="Rectángulo 43620" width="42.759" height="2.711" transform="translate(55.807 97.078)" fill="#bec6d0"/>
        <rect id="Rectángulo_43621" data-name="Rectángulo 43621" width="42.759" height="2.711" transform="translate(55.807 102.855)" fill="#bec6d0"/>
        <rect id="Rectángulo_43622" data-name="Rectángulo 43622" width="42.759" height="2.711" transform="translate(55.807 108.632)" fill="#bec6d0"/>
        <path id="Trazado_170917" data-name="Trazado 170917" d="M903.987,1512.558h-23.11l15.967-26.349a2.8,2.8,0,0,1,2.412-1.322h18.755a1.525,1.525,0,0,1,1.379,2.253Z" transform="translate(-794.041 -1338.509)" fill="#12263f"/>
        <path id="Trazado_170918" data-name="Trazado 170918" d="M1112.9,1559.49a4.628,4.628,0,0,1-3.515,2.091c-1.241,0-1.68-.936-.98-2.091a4.628,4.628,0,0,1,3.515-2.091c1.241,0,1.68.936.98,2.091" transform="translate(-998.842 -1403.872)" fill="#bec6d0"/>
        <path id="Trazado_170919" data-name="Trazado 170919" d="M652.484,1766.146H603.133a.879.879,0,0,1-.879-.879v-1.944h51.109v1.944a.879.879,0,0,1-.879.879" transform="translate(-542.885 -1589.498)" fill="#12263f"/>
        <path id="Trazado_170920" data-name="Trazado 170920" d="M887.872,1763.214H864.42a.326.326,0,0,1,0-.652h23.452a.326.326,0,1,1,0,.652" transform="translate(-778.913 -1588.81)" fill="#fff"/>
        <path id="Trazado_170921" data-name="Trazado 170921" d="M321.05,1143.441a70.175,70.175,0,0,0-6.535-5.449c-1.754-1.028-3.939-5.247,1.956-7.831,1.911-.837,2.287-3.158,5.966-3.554s6.736,1.472,7.132,3.792-1.8,4.33-3.449,4.6-5.071,8.444-5.071,8.444" transform="translate(-281.806 -1015.499)" fill="#12263f"/>
        <path id="Trazado_170922" data-name="Trazado 170922" d="M342.493,1180.552l.512-.741-2.026-2.593-1.389-3.406c-3.926-.266-5.5.807-5.551,3.818-.033,1.931-1.05,1.977-1.05,1.977s-1.493-1.607-2.265.3,2.438,3.23,2.438,3.23a2.648,2.648,0,0,1-.26,2.7l-5.709,7.758s10.7,2.834,10.817,1.146a1.832,1.832,0,0,0-.38-1.227c-1.234-1.681,1-6.224,1-6.224l3.573-1.443a1.376,1.376,0,0,0,.806-1.661l-.707-2.431a1.42,1.42,0,0,1,.2-1.2" transform="translate(-294.939 -1058.064)" fill="#fff"/>
        <path id="Trazado_170923" data-name="Trazado 170923" d="M333.483,1192.62c-2.819,0-8.106-1.354-9.358-1.685a.326.326,0,0,1-.179-.509l5.709-7.758a2.319,2.319,0,0,0,.276-2.261c-.623-.282-3.293-1.628-2.493-3.6a1.6,1.6,0,0,1,1.131-1.116,1.937,1.937,0,0,1,1.532.578c.2-.094.607-.43.627-1.62a4.127,4.127,0,0,1,1.126-3.132c.919-.844,2.436-1.165,4.774-1.006a.326.326,0,0,1,.28.2l1.372,3.364,2,2.558a.326.326,0,0,1,.011.386l-.512.74a1.089,1.089,0,0,0-.151.927l.707,2.431a1.7,1.7,0,0,1-1,2.054l-3.456,1.4c-.618,1.3-1.86,4.566-.971,5.776a2.145,2.145,0,0,1,.443,1.442.7.7,0,0,1-.312.537,2.909,2.909,0,0,1-1.557.3m-8.726-2.195c3.548.911,9.011,2.007,9.9,1.369.04-.029.041-.043.041-.051a1.511,1.511,0,0,0-.318-1.012c-1.313-1.789.728-6.078.965-6.561a.326.326,0,0,1,.171-.159l3.573-1.443a1.047,1.047,0,0,0,.615-1.267L339,1178.87a1.739,1.739,0,0,1,.24-1.48h0l.376-.543-1.879-2.4a.324.324,0,0,1-.045-.078l-1.312-3.216c-2.031-.116-3.332.155-4.085.848a3.484,3.484,0,0,0-.915,2.663c-.038,2.212-1.307,2.294-1.361,2.3a.322.322,0,0,1-.254-.1c-.16-.17-.668-.6-1.08-.519-.252.047-.469.289-.643.719-.643,1.587,2.231,2.794,2.26,2.806a.327.327,0,0,1,.17.162,2.97,2.97,0,0,1-.292,3.036Z" transform="translate(-291.955 -1055.087)" fill="#12263f"/>
        <path id="Trazado_170924" data-name="Trazado 170924" d="M380.559,1206.347l2.716,3.673a3.963,3.963,0,0,0,4.986,1.175l1.475-.752,2.724,5.016a1.322,1.322,0,0,1-.821,1.76l-3.96,1.643a3.153,3.153,0,0,1-3.205-.788l-4.257-4.315s1.614-1.5.055-4.872.287-2.541.287-2.541" transform="translate(-342.221 -1087.344)" fill="#12263f"/>
        <path id="Trazado_170925" data-name="Trazado 170925" d="M97.705,1319.766l-7.756,1.135s-3.147,12.084-11.039,12.48a14.222,14.222,0,0,1-8.629-2.27,21.291,21.291,0,0,0-9.882-3.423l-14.183-1.168a19.67,19.67,0,0,0-18.995,10.384,208.151,208.151,0,0,0-11.939,26.157,2.5,2.5,0,0,0,2.347,3.332H55.268l8.281-20.737c4.126,1.757,10.484,3.307,19.415,2.484,18.882-1.739,14.741-28.376,14.741-28.376" transform="translate(-13.645 -1189.665)" fill="#3d4e63"/>
        <path id="Trazado_170926" data-name="Trazado 170926" d="M52.27,1363.736H14.632a2.821,2.821,0,0,1-2.655-3.767,210.19,210.19,0,0,1,11.958-26.2,19.98,19.98,0,0,1,19.31-10.557l14.183,1.168a21.7,21.7,0,0,1,10.034,3.475,13.855,13.855,0,0,0,8.435,2.217c7.566-.38,10.709-12.118,10.739-12.237a.326.326,0,0,1,.268-.241l7.756-1.135a.326.326,0,0,1,.37.273c.023.147,2.213,14.814-4.265,23.12A14.787,14.787,0,0,1,80,1345.483c-9.05.833-15.429-.8-19.265-2.38l-8.158,20.429a.326.326,0,0,1-.3.205M41.592,1323.8a19.319,19.319,0,0,0-17.08,10.278,209.6,209.6,0,0,0-11.919,26.113,2.168,2.168,0,0,0,2.04,2.9H52.049l8.2-20.531a.326.326,0,0,1,.431-.179c3.729,1.588,10.1,3.3,19.257,2.46a14.157,14.157,0,0,0,10.314-5.383c5.781-7.413,4.456-20.122,4.178-22.3l-7.219,1.057c-.474,1.678-3.727,12.135-11.281,12.514a14.488,14.488,0,0,1-8.824-2.323,21.044,21.044,0,0,0-9.731-3.371l-14.183-1.168c-.535-.044-1.07-.066-1.6-.066" transform="translate(-10.647 -1186.681)" fill="#12263f"/>
        <path id="Trazado_170927" data-name="Trazado 170927" d="M281.442,1523.222c-5.864-1.942-9.031-11.056-9.031-11.056l-17.266,3.477s11.967,19.1,20.214,20.845c5.14,1.09,15.467-3.759,22.519-7.568-.9-2-2.2-4.867-3.168-6.978-5.156,1.253-10.6,2.16-13.268,1.279" transform="translate(-229.993 -1363.099)" fill="#3d4e63"/>
        <path id="Trazado_170928" data-name="Trazado 170928" d="M274.01,1533.986a8.235,8.235,0,0,1-1.7-.162c-8.287-1.757-19.931-20.207-20.423-20.991a.326.326,0,1,1,.553-.347c.119.19,11.987,19,20.005,20.7,3.83.814,11.647-1.812,22.029-7.392-.87-1.923-2.03-4.482-2.931-6.454-6.473,1.555-10.909,1.962-13.185,1.208-5.948-1.969-9.106-10.88-9.237-11.258a.326.326,0,0,1,.616-.214c.031.09,3.184,8.985,8.826,10.853,2.159.715,6.684.27,13.088-1.286a.327.327,0,0,1,.374.181c.958,2.1,2.252,4.952,3.169,6.979a.326.326,0,0,1-.142.422c-6.773,3.657-15.589,7.762-21.039,7.762" transform="translate(-227.009 -1360.115)" fill="#12263f"/>
        <path id="Trazado_170929" data-name="Trazado 170929" d="M678.421,1585.318l-7.992-4.44a5.1,5.1,0,0,0-4.039-.4c-2.228.719-5.976,1.87-9.892,2.821.965,2.11,2.264,4.979,3.168,6.978,4.264-2.3,7.331-4.225,7.331-4.225l5.159,2.717s-.288,4.529.737,4.653,1.409-4.054,1.409-4.054.881,5.187,2.4,4.054l.584-6.265s1.01,2.774,1.59,2.889l.58.115Z" transform="translate(-591.781 -1424.457)" fill="#fff"/>
        <path id="Trazado_170930" data-name="Trazado 170930" d="M673.292,1590.944a.916.916,0,0,1-.344-.068c-.725-.291-1.236-1.555-1.555-2.674a4.663,4.663,0,0,1-.964,2.405.735.735,0,0,1-.558.173c-1.146-.139-1.121-3.239-1.036-4.786l-4.808-2.532c-.686.424-3.509,2.149-7.189,4.136a.326.326,0,0,1-.452-.153c-.917-2.026-2.21-4.881-3.168-6.976a.326.326,0,0,1,.22-.453c3.829-.931,7.48-2.044,9.869-2.815a5.443,5.443,0,0,1,4.3.422l7.992,4.44a.327.327,0,0,1,.161.217l1.037,4.846a.326.326,0,0,1-.382.388l-.58-.115c-.441-.087-.931-.946-1.327-1.835l-.458,4.921a.327.327,0,0,1-.13.232,1.034,1.034,0,0,1-.624.227m-1.973-4.868a.326.326,0,0,1,.322.271c.25,1.471.9,3.661,1.55,3.923a.262.262,0,0,0,.221-.007l.568-6.1a.326.326,0,0,1,.631-.081,8.156,8.156,0,0,0,1.363,2.686l.078.015-.9-4.219-7.862-4.368a4.786,4.786,0,0,0-3.781-.372c-2.319.748-5.824,1.818-9.531,2.734.887,1.942,2.009,4.419,2.861,6.3,4.047-2.2,6.975-4.029,7-4.047a.326.326,0,0,1,.325-.012l5.159,2.718a.326.326,0,0,1,.174.309c-.148,2.339.125,4.269.451,4.309a.115.115,0,0,0,.07-.032c.471-.38.854-2.408.976-3.727a.326.326,0,0,1,.312-.3h.013" transform="translate(-588.798 -1421.488)" fill="#12263f"/>
        <path id="Trazado_170931" data-name="Trazado 170931" d="M222.453,1338l.352-2.137a1.35,1.35,0,0,0-1.054-1.542c-3.529-.744-13.309-2.863-14.582-3.76-1.557-1.1-12.837,9.529-11.146,9.25A168.655,168.655,0,0,1,222.453,1338" transform="translate(-176.544 -1199.322)" fill="#3d4e63"/>
        <path id="Trazado_170932" data-name="Trazado 170932" d="M192.91,1337.108a.42.42,0,0,1-.4-.241c-.1-.209-.239-.525,1.824-2.639,1.184-1.213,2.758-2.656,4.209-3.859,4.674-3.876,5.493-3.3,5.762-3.11.984.694,8.116,2.37,14.461,3.707a1.674,1.674,0,0,1,1.308,1.914l-.352,2.137a.334.334,0,0,1-.328.273,169.652,169.652,0,0,0-26.37,1.807.683.683,0,0,1-.112.01m10.905-9.335a1.517,1.517,0,0,0-.526.13c-2.72,1.064-8.9,6.9-10,8.49a170.906,170.906,0,0,1,25.834-1.758l.306-1.86a1.023,1.023,0,0,0-.8-1.17c-4.951-1.044-13.445-2.926-14.7-3.813a.22.22,0,0,0-.112-.019" transform="translate(-173.49 -1196.289)" fill="#12263f"/>
        <path id="Trazado_170933" data-name="Trazado 170933" d="M777.915,1127.225a10.074,10.074,0,0,1,1.785-2.08l5.183-4.819s.674,2.322-.143,3.692a17.9,17.9,0,0,1,2.85.324s2.368-2.086,2.958-2.446a4.421,4.421,0,0,1,2.152-.919,3.14,3.14,0,0,1,1.583.618l-4.553,5.771-8.279,2.279.464,12.554-7.867-1.076Z" transform="translate(-697.742 -1009.885)" fill="#fff"/>
        <path id="Trazado_170934" data-name="Trazado 170934" d="M778.932,1139.539a.338.338,0,0,1-.044,0l-7.867-1.075a.326.326,0,0,1-.27-.411l3.868-13.9a.337.337,0,0,1,.023-.059,10.31,10.31,0,0,1,1.866-2.184l5.171-4.808a.326.326,0,0,1,.536.148,6.566,6.566,0,0,1,.044,3.48,18.577,18.577,0,0,1,2.255.275c.5-.437,2.347-2.047,2.882-2.373.081-.049.165-.1.252-.158a4.032,4.032,0,0,1,2.075-.809,3.451,3.451,0,0,1,1.778.686.326.326,0,0,1,.057.46L787,1124.582a.327.327,0,0,1-.17.112l-8.031,2.21.454,12.3a.326.326,0,0,1-.326.338m-7.453-1.674,7.112.972-.449-12.166a.327.327,0,0,1,.239-.327l8.176-2.25,4.267-5.408a2.424,2.424,0,0,0-1.111-.369H789.7a3.56,3.56,0,0,0-1.7.708c-.09.057-.177.112-.261.163-.464.283-2.26,1.838-2.912,2.412a.324.324,0,0,1-.284.074,17.7,17.7,0,0,0-2.792-.317.326.326,0,0,1-.269-.493,4.546,4.546,0,0,0,.231-2.9l-4.769,4.434-.027.022a10.059,10.059,0,0,0-1.675,1.94Z" transform="translate(-694.76 -1006.901)" fill="#12263f"/>
        <path id="Trazado_170935" data-name="Trazado 170935" d="M1252.391,27.684c2.038,3.477,6.822,4.162,7.895,4.282a12.551,12.551,0,0,0,8.449-2.219,16.741,16.741,0,0,0,9.944,2.516c3.776-.289,10.137-2.174,11.37-6.589,1.475-5.286-5.175-11.422-10.88-13.59-4.785-1.818-12.078-2.049-15.57,1.629-1.283,1.352-1.48,2.629-2.995,3.07-2.718.792-4.717-2.552-8.24-2.382a7.5,7.5,0,0,0-4.783,2.444c-2.6.859-4.194,2.586-4,3.974.2,1.446,2.317,2.324,2.73,2.495,2.141.888,3.278-.008,4.546.922,1.125.825.669,1.972,1.533,3.447" transform="translate(-1120.976 -9.74)" fill="#12263f"/>
        <path id="Trazado_170936" data-name="Trazado 170936" d="M977.865,66.17s-10.7,3.418-15.9,0c-2.446-1.607-11.55-12.957-13.524-14.006-1.2-.638-3.066-1.6-4.343-2.25a3.471,3.471,0,0,0-2.864-.134l-5.317,2.114a5.168,5.168,0,0,0,4.069.745,7.717,7.717,0,0,1,4.807.553l.1.048-4.776,1.486s.723,1.207,3.284.743a10.173,10.173,0,0,1,4.217.4l.087.045s4.566,12.677,11.263,16.645c9.744,5.773,19.983,2.144,19.983,2.144Z" transform="translate(-843.654 -44.65)" fill="#fff"/>
        <path id="Trazado_170937" data-name="Trazado 170937" d="M965.413,73.155a24.294,24.294,0,0,1-12.472-3.3c-6.425-3.806-10.816-15.224-11.354-16.679a9.836,9.836,0,0,0-3.989-.371c-2.75.5-3.587-.839-3.622-.9l-.213-.356,4.314-1.342a7.47,7.47,0,0,0-3.891-.237,5.463,5.463,0,0,1-4.336-.811l-.437-.351,5.837-2.321a3.8,3.8,0,0,1,3.133.147c1.324.677,3.153,1.617,4.348,2.252,1.045.555,3.807,3.65,6.731,6.927,2.773,3.107,5.64,6.32,6.819,7.1,5.011,3.293,15.518,0,15.623-.038l.373-.119,1.17,9.184-.248.088a25.986,25.986,0,0,1-7.787,1.127M938.6,52.073a12.7,12.7,0,0,1,3.244.5l.063.025.2.1.043.12c.045.126,4.6,12.613,11.123,16.475,8.663,5.133,17.843,2.69,19.459,2.2l-1-7.882c-1.979.582-11.027,2.988-15.806-.152-1.251-.822-4.018-3.923-6.948-7.206-2.757-3.089-5.608-6.284-6.55-6.785-1.191-.634-3.017-1.572-4.339-2.247a3.147,3.147,0,0,0-2.6-.122l-4.7,1.869a5.189,5.189,0,0,0,3.268.368,8.005,8.005,0,0,1,5.01.578l.858.407-5.044,1.569a3.55,3.55,0,0,0,2.6.276,6.3,6.3,0,0,1,1.118-.093" transform="translate(-837.793 -41.667)" fill="#12263f"/>
        <path id="Trazado_170938" data-name="Trazado 170938" d="M1386.768,427.905a33.989,33.989,0,0,1-22.292,4.458s1.755-3.39,4.756-4.607,17.536.149,17.536.149" transform="translate(-1229.967 -385.134)" fill="#12263f"/>
        <path id="Trazado_170939" data-name="Trazado 170939" d="M1423.029,418.207c-.578-14.174-8.749-19.4-8.749-19.4l-16.839,4.2-6.946,15.2Z" transform="translate(-1253.421 -359.495)" fill="#12263f"/>
        <path id="Trazado_170940" data-name="Trazado 170940" d="M1338.769,158.963l8.853-4.422a5.594,5.594,0,0,1,6.646,1.245c3.863,4.264,10.516,12.507,13.861,21.89,0,0-6.015,7.673-13.97,7.139s-12.643-1.046-15.456,1.189a174.182,174.182,0,0,1-2.813-22.155,5.2,5.2,0,0,1,2.878-4.886" transform="translate(-1204.196 -138.774)" fill="#3d4e63"/>
        <path id="Trazado_170941" data-name="Trazado 170941" d="M1365.719,302.153a.326.326,0,0,1-.324-.3c-.3-3.191-1.294-5.459-2.959-6.741a7.923,7.923,0,0,0-4.043-1.375,9.574,9.574,0,0,1-4.684-1.6,9.845,9.845,0,0,1-3.556-5.6.326.326,0,1,1,.629-.172,9.216,9.216,0,0,0,3.309,5.24,9.047,9.047,0,0,0,4.394,1.486,8.55,8.55,0,0,1,4.348,1.5c1.815,1.4,2.9,3.818,3.211,7.2a.326.326,0,0,1-.295.355h-.031" transform="translate(-1217.046 -257.922)" fill="#12263f"/>
        <path id="Trazado_170942" data-name="Trazado 170942" d="M1475.54,200.033l-18.7-38.222a3.125,3.125,0,0,1,5.449-3.04c2.494,3.952,7.27,11.908,8.342,16.495a31.567,31.567,0,0,0,4.9,11.385c.843,1.291,1.9,5.876,2.541,8.962a2.7,2.7,0,0,0,3.455,2.027l.005,0a4.458,4.458,0,0,1,4,.674l2.011,1.5a.278.278,0,0,1-.172.5Z" transform="translate(-1312.944 -141.806)" fill="#fff"/>
        <path id="Trazado_170943" data-name="Trazado 170943" d="M1484.42,197.633h-.015l-12.038-.281-.087-.178-18.7-38.221a3.451,3.451,0,0,1,6.018-3.358c2.672,4.234,7.314,12.019,8.384,16.595a31.018,31.018,0,0,0,4.718,11.064l.141.216c.848,1.3,1.875,5.651,2.588,9.074a2.374,2.374,0,0,0,3.037,1.783,4.8,4.8,0,0,1,4.3.722l2.011,1.5a.6.6,0,0,1-.36,1.09m-11.641-.925,11.491.269-1.89-1.405a4.146,4.146,0,0,0-3.708-.625,3.027,3.027,0,0,1-3.878-2.27c-.991-4.761-1.877-7.9-2.495-8.85l-.141-.215a31.61,31.61,0,0,1-4.808-11.273c-1.047-4.483-5.65-12.2-8.3-16.4a2.8,2.8,0,0,0-4.88,2.722Z" transform="translate(-1309.976 -138.803)" fill="#12263f"/>
        <path id="Trazado_170944" data-name="Trazado 170944" d="M1303.831,102.659c.014-.016.919-1.051.422-1.81s-1.49.248-1.49.248a3.136,3.136,0,0,0-2.755-1.4,3.269,3.269,0,0,1-2.906,1.849,25.074,25.074,0,0,0,1.181,2.295l.228,1.3a.285.285,0,0,0,.425.2.294.294,0,0,1,.384.078,4.8,4.8,0,0,0,1.627,1.494,1.6,1.6,0,0,0,1.977-.672c1.221,1.48,3.023,4,2.182,5.087,0,0,2.747.8,5.463-2.939Z" transform="translate(-1169.235 -89.866)" fill="#fff"/>
        <path id="Trazado_170945" data-name="Trazado 170945" d="M1301.208,108.739a2.925,2.925,0,0,1-.766-.087l-.46-.133.293-.38c.488-.631-.235-2.258-1.935-4.384a1.81,1.81,0,0,1-2.1.466,4.985,4.985,0,0,1-1.738-1.575.611.611,0,0,1-.886-.435l-.218-1.242a25.212,25.212,0,0,1-1.169-2.277l-.2-.46.5,0h.014a2.948,2.948,0,0,0,2.592-1.654l.083-.189.207-.006a3.466,3.466,0,0,1,2.819,1.25,1.589,1.589,0,0,1,1.034-.377.891.891,0,0,1,.673.429,1.794,1.794,0,0,1-.25,1.939l6.734,5.718-.178.245c-1.979,2.722-3.989,3.148-5.051,3.148m-.19-.656c.786.048,2.627-.153,4.533-2.633l-6.757-5.738.219-.249c.007-.009.746-.879.395-1.416a.249.249,0,0,0-.191-.137c-.251-.027-.65.288-.793.434l-.3.308-.215-.373a2.78,2.78,0,0,0-2.274-1.238,3.57,3.57,0,0,1-2.609,1.818c.2.422.544,1.109.967,1.834l.029.051.228,1.3a.621.621,0,0,1,.757.189,4.43,4.43,0,0,0,1.5,1.394,1.306,1.306,0,0,0,1.586-.575l.25-.32.258.313c1.9,2.3,2.708,3.992,2.416,5.038" transform="translate(-1164.661 -86.885)" fill="#12263f"/>
        <path id="Trazado_170946" data-name="Trazado 170946" d="M1353.172,149.288a.326.326,0,0,1-.249-.536,4.936,4.936,0,0,0,.658-1.423.326.326,0,0,1,.626.183,5.634,5.634,0,0,1-.785,1.66.326.326,0,0,1-.25.116" transform="translate(-1219.484 -132.595)" fill="#12263f"/>
        <path id="Trazado_170947" data-name="Trazado 170947" d="M1553.746,1282.491s4.334-1.355,11.432-15.129c5.993-11.627.65-22.865-.428-30.381a.733.733,0,0,0-1.419-.148c-1.8,5.05-4.687,14.233-4.219,19.887.674,8.148-5.366,25.771-5.366,25.771" transform="translate(-1400.579 -1114.464)" fill="#3d4e63"/>
        <path id="Trazado_170948" data-name="Trazado 170948" d="M1487.3,1104.371l1.543-12.206a27.838,27.838,0,0,0-2.5-15.49,27.845,27.845,0,0,1-.724-22.336l2.479-6.194a.753.753,0,0,0-1.25-.8l-3.482,3.831a33.018,33.018,0,0,0-6.985,32.218l6.416,20.109Z" transform="translate(-1329.434 -943.875)" fill="#3d4e63"/>
        <path id="Trazado_170949" data-name="Trazado 170949" d="M1605.962,1419.382l-.041,0a.327.327,0,0,1-.283-.365l.8-6.324a27.445,27.445,0,0,0-.47-9.572.326.326,0,0,1,.636-.145,28.106,28.106,0,0,1,.481,9.8l-.8,6.324a.326.326,0,0,1-.323.285" transform="translate(-1447.354 -1264.441)" fill="#bec6d0"/>
        <path id="Trazado_170950" data-name="Trazado 170950" d="M1409.451,1422.858l-5.355-13.677a13.585,13.585,0,0,0-8.7-8.066l-3.651-1.106a.841.841,0,0,0-.748,1.473l2.244,1.745a10.263,10.263,0,0,1,3.947,7.891h0a10.3,10.3,0,0,0,1.5,5.148l3.628,5.952Z" transform="translate(-1253.578 -1261.962)" fill="#3d4e63"/>
        <path id="Trazado_170951" data-name="Trazado 170951" d="M1527.9,1137.834h-.031a.326.326,0,0,1-.294-.355c.814-8.709-.936-14.319-2.48-19.269a52.728,52.728,0,0,1-1.8-6.8c-1.9-11.043,4.584-20.624,4.65-20.72a.326.326,0,0,1,.537.37c-.064.093-6.4,9.464-4.544,20.239a52.156,52.156,0,0,0,1.776,6.721c1.562,5.008,3.333,10.685,2.507,19.524a.326.326,0,0,1-.324.3" transform="translate(-1372.821 -983.039)" fill="#bec6d0"/>
        <path id="Trazado_170952" data-name="Trazado 170952" d="M1515.31,1470.485a.327.327,0,0,1-.31-.224,19.7,19.7,0,0,0-3.424-5.689.326.326,0,0,1,.505-.413,20.345,20.345,0,0,1,3.538,5.9.326.326,0,0,1-.31.429" transform="translate(-1362.501 -1319.717)" fill="#bec6d0"/>
        <path id="Trazado_170953" data-name="Trazado 170953" d="M1642.541,1303.167a.313.313,0,0,1-.055,0,.326.326,0,0,1-.267-.376c1.457-8.613.952-21.879.947-22.012a.326.326,0,0,1,.313-.339.321.321,0,0,1,.339.313c.005.134.513,13.467-.956,22.147a.326.326,0,0,1-.321.272" transform="translate(-1480.327 -1154.212)" fill="#bec6d0"/>
        <path id="Trazado_170954" data-name="Trazado 170954" d="M1431.673,1434.179a.326.326,0,0,1-.326-.323,18.254,18.254,0,0,0-8.7-15.4.326.326,0,0,1,.308-.575A18.919,18.919,0,0,1,1432,1433.85a.326.326,0,0,1-.323.329Z" transform="translate(-1282.245 -1278.077)" fill="#bec6d0"/>
        <path id="Trazado_170955" data-name="Trazado 170955" d="M1494.191,1309.717a.325.325,0,0,1-.258-.126,21.656,21.656,0,0,1-3.388-7.107.326.326,0,1,1,.633-.159,21.4,21.4,0,0,0,3.269,6.866.326.326,0,0,1-.257.526" transform="translate(-1343.601 -1173.721)" fill="#bec6d0"/>
        <path id="Trazado_170956" data-name="Trazado 170956" d="M1475.584,1617.809h0a10.144,10.144,0,0,1-10.144-10.144v-9.055h20.289v9.055a10.144,10.144,0,0,1-10.144,10.144" transform="translate(-1320.979 -1441.021)" fill="#939eac"/>
        <path id="Trazado_170957" data-name="Trazado 170957" d="M1498.938,1630.333h-16.311a.326.326,0,1,1,0-.652h16.311a.326.326,0,1,1,0,.652" transform="translate(-1336.178 -1469.028)" fill="#939eac"/>
        <path id="Trazado_170958" data-name="Trazado 170958" d="M33.883,269.486a.326.326,0,0,1-.231-.557l21.214-21.214a.326.326,0,0,1,.461.461L34.113,269.391a.325.325,0,0,1-.231.1" transform="translate(-30.248 -223.21)" fill="#12263f"/>
        <path id="Trazado_170959" data-name="Trazado 170959" d="M150.839,248.729a.326.326,0,0,1-.231-.557L169.977,228.8a.326.326,0,0,1,.461.461l-19.369,19.369a.326.326,0,0,1-.231.1" transform="translate(-135.675 -206.162)" fill="#12263f"/>
        <path id="Trazado_170960" data-name="Trazado 170960" d="M269.357,194.945a1.935,1.935,0,0,1-1.932-1.932.326.326,0,1,1,.652,0,1.28,1.28,0,1,0,1.28-1.28.326.326,0,1,1,0-.652,1.932,1.932,0,0,1,0,3.865" transform="translate(-241.063 -172.244)" fill="#12263f"/>
        <path id="Trazado_170961" data-name="Trazado 170961" d="M1165.2,397.349a.326.326,0,0,1-.231-.557l9.279-9.279a.326.326,0,1,1,.461.461l-9.279,9.279a.326.326,0,0,1-.231.1" transform="translate(-1050.04 -349.226)" fill="#12263f"/>
        <path id="Trazado_170962" data-name="Trazado 170962" d="M1137.1,469.628a.326.326,0,0,1-.231-.557l9.032-9.032a.326.326,0,1,1,.461.461l-9.032,9.032a.325.325,0,0,1-.231.1" transform="translate(-1024.708 -414.603)" fill="#12263f"/>
      </g>
    </g>
  </g>
</svg>
