<svg xmlns="http://www.w3.org/2000/svg" xmlns:xlink="http://www.w3.org/1999/xlink" width="295" height="345.936" viewBox="0 0 295 345.936">
  <defs>
    <clipPath id="clip-path">
      <rect id="Rect치ngulo_43624" data-name="Rect치ngulo 43624" width="180.589" height="180.84" transform="translate(0 0)" fill="none"/>
    </clipPath>
  </defs>
  <g id="Grupo_121684" data-name="Grupo 121684" transform="translate(-1125 -1725)">
    <rect id="Rect치ngulo_43576" data-name="Rect치ngulo 43576" width="295" height="345.936" rx="21" transform="translate(1125 1725)" fill="#ffbcd0"/>
    <g id="Grupo_121558" data-name="Grupo 121558" transform="translate(1186.48 1978.232)">
      <g id="Grupo_20708" data-name="Grupo 20708">
        <path id="Trazado_171133" data-name="Trazado 171133" d="M30.69,14.658V19H27.605V6.2h5.106a5.948,5.948,0,0,1,2.6.541,4.074,4.074,0,0,1,1.749,1.538,4.2,4.2,0,0,1,.62,2.263,3.7,3.7,0,0,1-1.34,2.993,5.561,5.561,0,0,1-3.678,1.121Zm0-2.382h2.021a1.906,1.906,0,0,0,1.367-.448,1.665,1.665,0,0,0,.47-1.266,2.059,2.059,0,0,0-.483-1.433,1.712,1.712,0,0,0-1.318-.545H30.69ZM42.31,19H39.339V5.5H42.31Zm7.181,0a3.344,3.344,0,0,1-.281-.853,2.754,2.754,0,0,1-2.285,1.028,3.374,3.374,0,0,1-2.285-.813,2.588,2.588,0,0,1-.94-2.043,2.66,2.66,0,0,1,1.143-2.338,5.821,5.821,0,0,1,3.322-.791h.914v-.5q0-1.316-1.134-1.316a.927.927,0,0,0-1.055,1.042H43.927A2.655,2.655,0,0,1,45.1,10.175a4.931,4.931,0,0,1,2.993-.86,4.323,4.323,0,0,1,2.874.888,3.086,3.086,0,0,1,1.081,2.435v4.21a4.311,4.311,0,0,0,.4,2V19Zm-1.854-1.934a1.652,1.652,0,0,0,.918-.237,1.487,1.487,0,0,0,.523-.536V14.772h-.861q-1.547,0-1.547,1.389a.848.848,0,0,0,.272.655A.986.986,0,0,0,47.636,17.066ZM56.407,9.49l.1,1.116A3.225,3.225,0,0,1,59.22,9.314a2.713,2.713,0,0,1,2.219.888,4.226,4.226,0,0,1,.76,2.672V19H59.229V13a1.6,1.6,0,0,0-.29-1.059,1.342,1.342,0,0,0-1.055-.338,1.413,1.413,0,0,0-1.292.686V19H53.63V9.49Zm11.54,4.685a5.809,5.809,0,0,1,.976-3.56,3.211,3.211,0,0,1,2.725-1.3,2.731,2.731,0,0,1,2.145,1V5.5h2.971V19H74.1l-.149-1.02a2.8,2.8,0,0,1-2.32,1.2,3.205,3.205,0,0,1-2.689-1.3A5.993,5.993,0,0,1,67.947,14.175Zm2.962.185q0,2.531,1.477,2.531a1.458,1.458,0,0,0,1.406-.826V12.443A1.419,1.419,0,0,0,72.4,11.6q-1.371,0-1.485,2.215Zm12.138,4.816A4.889,4.889,0,0,1,79.5,17.871a4.507,4.507,0,0,1-1.354-3.4v-.246a5.84,5.84,0,0,1,.541-2.575A3.955,3.955,0,0,1,80.27,9.925a4.763,4.763,0,0,1,2.461-.611,4.117,4.117,0,0,1,3.164,1.244,4.887,4.887,0,0,1,1.16,3.467v1.151H81.166a2.135,2.135,0,0,0,.694,1.257,2.066,2.066,0,0,0,1.389.457,2.662,2.662,0,0,0,2.2-.984l1.354,1.6a3.784,3.784,0,0,1-1.569,1.217A5.3,5.3,0,0,1,83.047,19.176ZM82.713,11.6q-1.3,0-1.547,1.723h2.988v-.229a1.467,1.467,0,0,0-.36-1.1A1.434,1.434,0,0,0,82.713,11.6ZM98.085,19a3.344,3.344,0,0,1-.281-.853,2.754,2.754,0,0,1-2.285,1.028,3.374,3.374,0,0,1-2.285-.813,2.588,2.588,0,0,1-.94-2.043,2.66,2.66,0,0,1,1.143-2.338,5.821,5.821,0,0,1,3.322-.791h.914v-.5q0-1.316-1.134-1.316a.927.927,0,0,0-1.055,1.042H92.521a2.655,2.655,0,0,1,1.173-2.239,4.931,4.931,0,0,1,2.993-.86,4.323,4.323,0,0,1,2.874.888,3.086,3.086,0,0,1,1.081,2.435v4.21a4.311,4.311,0,0,0,.4,2V19ZM96.23,17.066a1.652,1.652,0,0,0,.918-.237,1.487,1.487,0,0,0,.523-.536V14.772h-.861q-1.547,0-1.547,1.389a.848.848,0,0,0,.272.655A.986.986,0,0,0,96.23,17.066Zm10.072-.176a1.317,1.317,0,0,0,.967-.338,1.241,1.241,0,0,0,.334-.945h2.777a3.288,3.288,0,0,1-1.121,2.566,4.168,4.168,0,0,1-2.887,1,4.22,4.22,0,0,1-3.27-1.3,5.125,5.125,0,0,1-1.2-3.6v-.123a5.792,5.792,0,0,1,.532-2.544,3.872,3.872,0,0,1,1.534-1.7,4.573,4.573,0,0,1,2.373-.593,4.116,4.116,0,0,1,2.944,1.028,3.647,3.647,0,0,1,1.09,2.786H107.6a1.626,1.626,0,0,0-.36-1.134,1.244,1.244,0,0,0-.967-.4q-1.151,0-1.345,1.468a10.357,10.357,0,0,0-.062,1.283,4.068,4.068,0,0,0,.343,1.986A1.187,1.187,0,0,0,106.3,16.891Zm9.352,0a1.317,1.317,0,0,0,.967-.338,1.241,1.241,0,0,0,.334-.945h2.777a3.288,3.288,0,0,1-1.121,2.566,4.168,4.168,0,0,1-2.887,1,4.22,4.22,0,0,1-3.27-1.3,5.125,5.125,0,0,1-1.2-3.6v-.123a5.792,5.792,0,0,1,.532-2.544,3.872,3.872,0,0,1,1.534-1.7,4.573,4.573,0,0,1,2.373-.593,4.116,4.116,0,0,1,2.944,1.028,3.647,3.647,0,0,1,1.09,2.786h-2.777a1.626,1.626,0,0,0-.36-1.134,1.244,1.244,0,0,0-.967-.4q-1.151,0-1.345,1.468a10.357,10.357,0,0,0-.062,1.283,4.068,4.068,0,0,0,.343,1.986A1.187,1.187,0,0,0,115.654,16.891ZM124.109,19h-2.971V9.49h2.971ZM120.963,7.038A1.322,1.322,0,0,1,121.42,6a1.943,1.943,0,0,1,2.373,0,1.322,1.322,0,0,1,.457,1.037,1.322,1.322,0,0,1-.457,1.037,1.943,1.943,0,0,1-2.373,0A1.322,1.322,0,0,1,120.963,7.038Zm4.6,7.119a5.613,5.613,0,0,1,.554-2.536A3.96,3.96,0,0,1,127.7,9.912a4.791,4.791,0,0,1,2.435-.6,4.373,4.373,0,0,1,3.366,1.323,5.076,5.076,0,0,1,1.23,3.6v.105a4.925,4.925,0,0,1-1.235,3.529,4.384,4.384,0,0,1-3.344,1.305,4.434,4.434,0,0,1-3.261-1.217,4.761,4.761,0,0,1-1.327-3.3Zm2.962.185a3.538,3.538,0,0,0,.413,1.934,1.376,1.376,0,0,0,1.222.615q1.582,0,1.617-2.435v-.3q0-2.558-1.635-2.558-1.485,0-1.608,2.206ZM130.543,5.5h3.129l-2.443,2.76-2.417,0Zm8.218,3.99.1,1.116a3.225,3.225,0,0,1,2.716-1.292,2.713,2.713,0,0,1,2.219.888,4.226,4.226,0,0,1,.76,2.672V19h-2.971V13a1.6,1.6,0,0,0-.29-1.059,1.342,1.342,0,0,0-1.055-.338,1.413,1.413,0,0,0-1.292.686V19h-2.962V9.49Z" fill="#12263f"/>
      </g>
    </g>
    <g id="Grupo_121577" data-name="Grupo 121577" transform="translate(1181.186 1761.977)">
      <g id="Grupo_121576" data-name="Grupo 121576" transform="translate(0 -0.005)" clip-path="url(#clip-path)">
        <path id="Trazado_170963" data-name="Trazado 170963" d="M16.653,56.061a88.827,88.827,0,0,0-7.3,45.827,91.115,91.115,0,0,0,31.808,58.994c47.211,38.866,133.637,13.758,145.081-22.853,2.076-6.642,1.493-13.048.774-20.931-2.285-25.071-14.319-32.522-22.412-59.142-7.365-24.226-.1-26.951-6.991-37.721C142.676-3.128,99.549-4.306,69.873,6.895c-11.4,4.3-39.057,17.5-53.22,49.166" transform="translate(-7.957 -0.017)" fill="#ffebf1"/>
        <path id="Trazado_170964" data-name="Trazado 170964" d="M183.487,151.93l-1.59,1.354a5.277,5.277,0,0,1-3.778,1.244L5.541,7.091A7.046,7.046,0,0,1,14.026.143L182.669,35.327a3.663,3.663,0,0,1,2.915,3.586V147.39a5.965,5.965,0,0,1-2.1,4.54" transform="translate(-4.995 0.005)" fill="#ff5e8e"/>
        <path id="Trazado_170965" data-name="Trazado 170965" d="M179.212,195.135l-168.22-35.1a5.632,5.632,0,0,1-4.482-5.513V47.627a2.22,2.22,0,0,1,2.674-2.173L177.85,80.643a3.663,3.663,0,0,1,2.915,3.586V193.873a1.29,1.29,0,0,1-1.553,1.262" transform="translate(-5.868 -40.928)" fill="#fff"/>
        <path id="Trazado_170966" data-name="Trazado 170966" d="M848.945,509.832a1.627,1.627,0,0,1-.333-.034l-99.131-20.682a.326.326,0,1,1,.134-.639l99.131,20.682a.963.963,0,0,0,1.16-.943V398.571a3.35,3.35,0,0,0-2.655-3.266l-2.486-.519a.326.326,0,0,1,.134-.639l2.486.519a4.006,4.006,0,0,1,3.174,3.905V508.215a1.617,1.617,0,0,1-1.614,1.616" transform="translate(-675.336 -355.27)" fill="#12263f"/>
        <path id="Trazado_170967" data-name="Trazado 170967" d="M3.781,111.57a.326.326,0,0,1-.326-.325L3.2,44.647a2.546,2.546,0,0,1,3.067-2.494l147.17,30.7a.326.326,0,1,1-.134.639L6.132,42.792a1.894,1.894,0,0,0-2.28,1.854l.255,66.6a.326.326,0,0,1-.325.328Z" transform="translate(-2.884 -37.947)" fill="#12263f"/>
        <path id="Trazado_170968" data-name="Trazado 170968" d="M887.525,1257.61v4.179l40.948,8.287v-4.18Z" transform="translate(-800 -1133.588)" fill="#ff5e8e"/>
        <path id="Trazado_170969" data-name="Trazado 170969" d="M955.112,1275.285a1.262,1.262,0,0,1-.255-.026L886.42,1261.2a1.261,1.261,0,0,1-1-1.231v-2.279a1.257,1.257,0,0,1,1.51-1.231l68.437,14.058a1.261,1.261,0,0,1,1,1.231v2.281a1.257,1.257,0,0,1-1.255,1.257m-68.44-18.2a.6.6,0,0,0-.6.6v2.279a.606.606,0,0,0,.482.592l68.438,14.059a.6.6,0,0,0,.725-.592v-2.281a.606.606,0,0,0-.482-.592L886.794,1257.1a.6.6,0,0,0-.122-.013" transform="translate(-798.099 -1132.526)" fill="#ff5e8e"/>
        <path id="Trazado_170970" data-name="Trazado 170970" d="M887.525,1168.806v4.179l64.854,13.258v-4.18Z" transform="translate(-800 -1053.541)" fill="#ff5e8e"/>
        <path id="Trazado_170971" data-name="Trazado 170971" d="M955.112,1186.48a1.262,1.262,0,0,1-.255-.026l-68.438-14.059a1.261,1.261,0,0,1-1-1.231v-2.279a1.257,1.257,0,0,1,1.51-1.231l68.437,14.058a1.261,1.261,0,0,1,1,1.231v2.281a1.257,1.257,0,0,1-1.255,1.257m-68.44-18.2a.6.6,0,0,0-.6.6v2.279a.606.606,0,0,0,.482.591l68.438,14.059a.6.6,0,0,0,.725-.592v-2.281a.606.606,0,0,0-.482-.592l-68.437-14.057a.594.594,0,0,0-.122-.013" transform="translate(-798.099 -1052.479)" fill="#ff5e8e"/>
        <path id="Trazado_170972" data-name="Trazado 170972" d="M887.525,1080v4.179l47.575,9.708v-4.18Z" transform="translate(-800 -973.494)" fill="#ff5e8e"/>
        <path id="Trazado_170973" data-name="Trazado 170973" d="M955.112,1097.676a1.271,1.271,0,0,1-.255-.026l-68.438-14.059a1.261,1.261,0,0,1-1-1.231v-2.279a1.257,1.257,0,0,1,1.51-1.231l68.437,14.058a1.262,1.262,0,0,1,1,1.231v2.281a1.257,1.257,0,0,1-1.255,1.257m-68.44-18.2a.6.6,0,0,0-.6.6v2.279a.606.606,0,0,0,.482.591l68.438,14.059a.6.6,0,0,0,.725-.591v-2.281a.606.606,0,0,0-.482-.592l-68.437-14.057a.6.6,0,0,0-.122-.013" transform="translate(-798.099 -972.432)" fill="#ff5e8e"/>
        <path id="Trazado_170974" data-name="Trazado 170974" d="M887.525,991.2v4.179l32.9,6.631v-4.18Z" transform="translate(-800 -893.447)" fill="#ff5e8e"/>
        <path id="Trazado_170975" data-name="Trazado 170975" d="M955.112,1008.87a1.262,1.262,0,0,1-.255-.026L886.42,994.785a1.261,1.261,0,0,1-1-1.231v-2.279a1.257,1.257,0,0,1,1.51-1.231l68.437,14.058a1.261,1.261,0,0,1,1,1.231v2.281a1.257,1.257,0,0,1-1.255,1.257m-68.44-18.2a.6.6,0,0,0-.6.6v2.279a.606.606,0,0,0,.482.592l68.438,14.059a.6.6,0,0,0,.725-.592v-2.281a.606.606,0,0,0-.482-.592l-68.437-14.058a.6.6,0,0,0-.122-.013" transform="translate(-798.099 -892.384)" fill="#ff5e8e"/>
        <path id="Trazado_170976" data-name="Trazado 170976" d="M1551.856,596.771V640.7a.286.286,0,0,0,.229.28l4.051.823a.286.286,0,0,0,.343-.281l-.122-44.041a.286.286,0,0,0-.235-.28l-3.929-.712a.286.286,0,0,0-.337.281" transform="translate(-1398.816 -537.661)" fill="#ff8daf"/>
        <path id="Trazado_170977" data-name="Trazado 170977" d="M1458.251,656.774v36.119a.286.286,0,0,0,.229.28l4.051.823a.286.286,0,0,0,.343-.281l-.121-36.23a.286.286,0,0,0-.235-.28l-3.929-.712a.286.286,0,0,0-.337.281" transform="translate(-1314.442 -591.746)" fill="#ff8daf"/>
        <path id="Trazado_170978" data-name="Trazado 170978" d="M1364.646,704.777v29.492a.286.286,0,0,0,.229.28l4.051.823a.286.286,0,0,0,.343-.281l-.121-29.6a.286.286,0,0,0-.235-.28l-3.93-.712a.286.286,0,0,0-.337.281" transform="translate(-1230.068 -635.015)" fill="#ff8daf"/>
        <path id="Trazado_170979" data-name="Trazado 170979" d="M1271.042,745.579v23.574a.286.286,0,0,0,.229.28l4.05.822a.286.286,0,0,0,.343-.281l-.121-23.685a.286.286,0,0,0-.235-.28l-3.93-.712a.286.286,0,0,0-.337.281" transform="translate(-1145.695 -671.794)" fill="#ff8daf"/>
        <path id="Trazado_170980" data-name="Trazado 170980" d="M1177.437,779.18v18.367a.286.286,0,0,0,.229.28l4.05.822a.286.286,0,0,0,.343-.282l-.12-18.477a.285.285,0,0,0-.235-.279l-3.93-.712a.286.286,0,0,0-.337.281" transform="translate(-1061.321 -702.081)" fill="#ff8daf"/>
        <path id="Trazado_170981" data-name="Trazado 170981" d="M1083.831,824.783v11.976a.286.286,0,0,0,.229.28l4.049.822a.286.286,0,0,0,.342-.283l-.118-12.086a.286.286,0,0,0-.235-.278l-3.931-.712a.286.286,0,0,0-.337.281" transform="translate(-976.947 -743.187)" fill="#ff8daf"/>
        <path id="Trazado_170982" data-name="Trazado 170982" d="M1085.594,499.515a.326.326,0,0,1-.083-.642c22.929-6.011,40.752-20.118,49.047-30.372a.326.326,0,1,1,.508.411,86.294,86.294,0,0,1-17.055,15.48,99.87,99.87,0,0,1-32.334,15.113.324.324,0,0,1-.083.011" transform="translate(-978.242 -422.189)" fill="#ff8daf"/>
        <path id="Trazado_170983" data-name="Trazado 170983" d="M1558.236,465.466h0a.326.326,0,0,1-.323-.33l.032-3.015-2.934-.1a.326.326,0,0,1,.022-.653l3.253.108a.326.326,0,0,1,.316.33l-.036,3.334a.326.326,0,0,1-.326.323" transform="translate(-1401.373 -415.872)" fill="#ff8daf"/>
        <path id="Trazado_170984" data-name="Trazado 170984" d="M1134.714,381.73a12.338,12.338,0,1,0,12.338,12.338,12.338,12.338,0,0,0-12.338-12.338m0,17.325a4.987,4.987,0,1,1,4.986-4.987,4.987,4.987,0,0,1-4.986,4.987" transform="translate(-1011.69 -344.084)" fill="#ffebf1"/>
        <path id="Trazado_170985" data-name="Trazado 170985" d="M1262.119,383.964l-.969,7.321a4.992,4.992,0,0,1,3.292,2.977l6.685-3.082a12.354,12.354,0,0,0-9.007-7.216" transform="translate(-1136.778 -346.098)" fill="#ff8daf"/>
        <path id="Trazado_170986" data-name="Trazado 170986" d="M1294.527,458.865a4.932,4.932,0,0,1,.232,2.879l7.367.488a12.468,12.468,0,0,0,.1-1.547,12.288,12.288,0,0,0-1.081-5.05Z" transform="translate(-1166.864 -410.701)" fill="#ff5e8e"/>
        <path id="Trazado_170987" data-name="Trazado 170987" d="M1518.5,293.176l15.7,3.384,10.057-12.917Z" transform="translate(-1368.75 -255.67)" fill="#fff"/>
        <path id="Trazado_170988" data-name="Trazado 170988" d="M1531.216,293.9a.33.33,0,0,1-.069-.007l-15.7-3.384a.327.327,0,0,1-.044-.625l25.758-9.533a.326.326,0,0,1,.371.507l-10.057,12.917a.327.327,0,0,1-.258.126m-14.536-3.793,14.4,3.1,9.227-11.85Z" transform="translate(-1365.766 -252.687)" fill="#12263f"/>
        <path id="Trazado_170989" data-name="Trazado 170989" d="M1578.15,335.426l-2.545-5.462,13.888-6.854-11.129,7.449,3.282.707Z" transform="translate(-1420.224 -291.245)" fill="#ff8daf"/>
        <path id="Trazado_170990" data-name="Trazado 170990" d="M1575.165,332.769l-.043,0a.326.326,0,0,1-.253-.186l-2.545-5.462a.326.326,0,0,1,.151-.431l13.889-6.854a.326.326,0,0,1,.326.564l-10.489,7.021,2.53.545a.326.326,0,0,1,.181.529l-3.5,4.16a.327.327,0,0,1-.25.117m-2.114-5.637,2.194,4.708,2.818-3.353-2.752-.593a.326.326,0,0,1-.113-.59l7.006-4.689Z" transform="translate(-1417.239 -288.261)" fill="#12263f"/>
        <path id="Trazado_170991" data-name="Trazado 170991" d="M1599.526,398.715h-.016a.3.3,0,0,1-.287-.318l.127-2.536a.3.3,0,0,1,.318-.288.3.3,0,0,1,.287.318l-.127,2.536a.3.3,0,0,1-.3.288" transform="translate(-1441.512 -356.561)" fill="#12263f"/>
        <path id="Trazado_170992" data-name="Trazado 170992" d="M54.143,125.914l74.322,16.332-.237,91.837-74.539-16.1Z" transform="translate(-48.395 -113.496)" fill="#ffebf1"/>
        <path id="Trazado_170993" data-name="Trazado 170993" d="M131.872,358.377a2.716,2.716,0,1,1-2.716-2.716,2.716,2.716,0,0,1,2.716,2.716" transform="translate(-113.971 -320.586)" fill="#ff8daf"/>
        <path id="Trazado_170994" data-name="Trazado 170994" d="M130.855,457.312a2.716,2.716,0,1,1-2.716-2.716,2.716,2.716,0,0,1,2.716,2.716" transform="translate(-113.054 -409.764)" fill="#ff8daf"/>
        <path id="Trazado_170995" data-name="Trazado 170995" d="M130.855,561.357a2.716,2.716,0,1,1-2.716-2.716,2.716,2.716,0,0,1,2.716,2.716" transform="translate(-113.054 -503.549)" fill="#ff8daf"/>
        <path id="Trazado_170996" data-name="Trazado 170996" d="M127.8,666.416a2.716,2.716,0,1,1-2.716-2.716,2.716,2.716,0,0,1,2.716,2.716" transform="translate(-110.298 -598.247)" fill="#ff8daf"/>
        <path id="Trazado_170997" data-name="Trazado 170997" d="M128.821,769.443a2.716,2.716,0,1,1-2.716-2.716,2.716,2.716,0,0,1,2.716,2.716" transform="translate(-111.221 -691.114)" fill="#ff8daf"/>
        <path id="Trazado_170998" data-name="Trazado 170998" d="M128.821,861.931a2.716,2.716,0,1,1-2.716-2.716,2.716,2.716,0,0,1,2.716,2.716" transform="translate(-111.221 -774.481)" fill="#ff8daf"/>
        <path id="Trazado_170999" data-name="Trazado 170999" d="M210.035,371.394,258.1,382.211a.858.858,0,0,1,.669.848l-.045,3.545a.858.858,0,0,1-1.046.826l-48.107-10.813a.858.858,0,0,1-.669-.859l.09-3.549a.858.858,0,0,1,1.046-.815" transform="translate(-188.298 -334.748)" fill="#ff8daf"/>
        <path id="Trazado_171000" data-name="Trazado 171000" d="M207.947,773.193l48.135,10.834a.821.821,0,0,1,.641.811l-.046,3.62a.821.821,0,0,1-1,.79L207.5,778.419a.821.821,0,0,1-.641-.822l.092-3.625a.821.821,0,0,1,1-.78" transform="translate(-186.455 -696.924)" fill="#ff8daf"/>
        <path id="Trazado_171001" data-name="Trazado 171001" d="M250.649,481.034l-40.276-9.065a1.1,1.1,0,0,0-1.346,1.049l-.077,3.047a1.1,1.1,0,0,0,.862,1.105l40.353,9.07a1.1,1.1,0,0,0,1.346-1.077v-3.052a1.1,1.1,0,0,0-.862-1.077" transform="translate(-188.343 -425.399)" fill="#ff8daf"/>
        <path id="Trazado_171002" data-name="Trazado 171002" d="M252.736,680.421l-43-9.677a.642.642,0,0,0-.782.61l-.1,3.99a.642.642,0,0,0,.5.642l43.1,9.687a.642.642,0,0,0,.782-.626v-4a.642.642,0,0,0-.5-.626" transform="translate(-188.258 -604.582)" fill="#ff8daf"/>
        <path id="Trazado_171003" data-name="Trazado 171003" d="M252.687,883.057l-42.515-9.569a.954.954,0,0,0-1.164.907l-.085,3.352a.954.954,0,0,0,.745.955l42.6,9.575a.954.954,0,0,0,1.164-.931v-3.358a.955.955,0,0,0-.745-.931" transform="translate(-188.319 -787.325)" fill="#ff8daf"/>
        <path id="Trazado_171004" data-name="Trazado 171004" d="M257.812,584.107l-45.447-10.229a1.067,1.067,0,0,0-1.3,1.013l-.079,3.124a1.067,1.067,0,0,0,.832,1.068l45.526,10.233a1.067,1.067,0,0,0,1.3-1.041v-3.128a1.066,1.066,0,0,0-.832-1.04" transform="translate(-190.179 -517.26)" fill="#ff8daf"/>
        <path id="Trazado_171005" data-name="Trazado 171005" d="M303.147,283.059l22.246,4.839a2.287,2.287,0,0,1,1.8,2.248l-.006.961a2.287,2.287,0,0,1-2.764,2.223l-22.25-4.749a2.287,2.287,0,0,1-1.809-2.258l.01-1.051a2.287,2.287,0,0,1,2.773-2.213" transform="translate(-270.743 -255.096)" fill="#ff8daf"/>
        <path id="Trazado_171006" data-name="Trazado 171006" d="M466.463,1685.718l.473,4.508,3.048.358v-5.346Z" transform="translate(-420.462 -1519.044)" fill="#fff"/>
        <path id="Trazado_171007" data-name="Trazado 171007" d="M467,1687.927l-.038,0-3.048-.357a.327.327,0,0,1-.287-.29l-.473-4.508a.327.327,0,0,1,.281-.358l3.521-.48a.327.327,0,0,1,.371.323v5.345a.327.327,0,0,1-.327.326m-2.751-.978,2.424.284v-4.6l-2.837.386Z" transform="translate(-417.477 -1516.061)" fill="#12263f"/>
        <path id="Trazado_171008" data-name="Trazado 171008" d="M443.258,1725.062a21.3,21.3,0,0,1-5.8,0,1.363,1.363,0,0,1-1.139-1.674c.538-2.189,1.466-6.34,3.059-8.264l.4,1.043.546-.982a.484.484,0,0,1,.362-.245l1.2-.152a.484.484,0,0,1,.534.38l.19.905.417-1.188,1.392,8.653a1.359,1.359,0,0,1-1.155,1.526" transform="translate(-393.255 -1545.674)" fill="#ff5e8e"/>
        <path id="Trazado_171009" data-name="Trazado 171009" d="M437.4,1722.6a21.629,21.629,0,0,1-2.962-.2,1.689,1.689,0,0,1-1.411-2.075l.115-.47c.552-2.271,1.477-6.073,3.009-7.924a.326.326,0,0,1,.557.093l.146.386.205-.368a.813.813,0,0,1,.606-.41l1.2-.152a.814.814,0,0,1,.828.446l.047-.133a.331.331,0,0,1,.337-.217.327.327,0,0,1,.293.273l1.392,8.653a1.692,1.692,0,0,1-1.432,1.9,21.136,21.136,0,0,1-2.927.2m-1.091-9.788c-1.238,1.87-2.039,5.16-2.533,7.194l-.115.472a1.019,1.019,0,0,0,.148.826,1.042,1.042,0,0,0,.719.446,20.909,20.909,0,0,0,5.709,0,1.035,1.035,0,0,0,.876-1.16l-1.186-7.376a.326.326,0,0,1-.618-.064l-.19-.905a.159.159,0,0,0-.174-.124l-1.2.152a.157.157,0,0,0-.117.08l-.547.983a.326.326,0,0,1-.59-.043Z" transform="translate(-390.278 -1542.69)" fill="#12263f"/>
        <path id="Trazado_171010" data-name="Trazado 171010" d="M445.124,1799.332a11.768,11.768,0,0,1-2.6-.275.327.327,0,1,1,.145-.637,13.975,13.975,0,0,0,6.069-.2.326.326,0,1,1,.179.628,15.111,15.111,0,0,1-3.793.485" transform="translate(-398.654 -1620.872)" fill="#12263f"/>
        <path id="Trazado_171011" data-name="Trazado 171011" d="M460.869,1768.8a.326.326,0,0,1-.011-.653l2.857-.094a.321.321,0,0,1,.337.315.326.326,0,0,1-.315.337l-2.857.094h-.011" transform="translate(-415.126 -1593.695)" fill="#12263f"/>
        <path id="Trazado_171012" data-name="Trazado 171012" d="M611.238,1665.764l.457,6.579h3.668l.171-6.579Z" transform="translate(-550.96 -1501.491)" fill="#fff"/>
        <path id="Trazado_171013" data-name="Trazado 171013" d="M612.381,1669.686h-3.668a.326.326,0,0,1-.326-.3l-.457-6.579a.326.326,0,0,1,.326-.349h4.3a.326.326,0,0,1,.326.335l-.171,6.579a.326.326,0,0,1-.326.318m-3.363-.653h3.045l.154-5.926h-3.61Z" transform="translate(-547.977 -1498.507)" fill="#12263f"/>
        <path id="Trazado_171014" data-name="Trazado 171014" d="M606.153,1709.243a1.324,1.324,0,0,0,1.022,1.31c2.109.491,6.859,1.583,8.214,1.785a6,6,0,0,0,4.849-1.305c.929-1.029-2.081-3.485-3.509-4.378-2.122-1.327-4.161-3.951-5.015-4.069s-2.451,2.362-2.451,2.362l-2.608-1.1a32.3,32.3,0,0,0-.5,5.392" transform="translate(-546.375 -1534.676)" fill="#ff5e8e"/>
        <path id="Trazado_171015" data-name="Trazado 171015" d="M613.317,1709.752a6.551,6.551,0,0,1-.962-.069c-1.374-.2-6.22-1.32-8.24-1.79a1.66,1.66,0,0,1-1.275-1.633,32.329,32.329,0,0,1,.508-5.452.326.326,0,0,1,.446-.236l2.359.991c.527-.782,1.732-2.4,2.619-2.279.508.07,1.142.652,2.219,1.674a19.931,19.931,0,0,0,2.925,2.442c.928.58,3.622,2.564,3.825,4.014a1.029,1.029,0,0,1-.247.86,5.975,5.975,0,0,1-4.178,1.479m-9.823-3.482a1,1,0,0,0,.77.987c2.012.468,6.838,1.579,8.188,1.78a5.717,5.717,0,0,0,4.559-1.2.371.371,0,0,0,.084-.332c-.132-.949-2.168-2.7-3.524-3.551a20.429,20.429,0,0,1-3.028-2.522,7.178,7.178,0,0,0-1.859-1.5c-.387-.054-1.429,1.125-2.131,2.215a.327.327,0,0,1-.4.124l-2.232-.938a34.164,34.164,0,0,0-.425,4.938" transform="translate(-543.391 -1531.699)" fill="#12263f"/>
        <path id="Trazado_171016" data-name="Trazado 171016" d="M622.048,1767.41c-3.861,0-9-2.074-9.286-2.193a.326.326,0,1,1,.247-.6c.093.038,9.292,3.756,11.955,1.351a.326.326,0,0,1,.437.485,4.974,4.974,0,0,1-3.354.961" transform="translate(-552.15 -1590.569)" fill="#12263f"/>
        <path id="Trazado_171017" data-name="Trazado 171017" d="M664.557,1731.5a.326.326,0,0,1-.219-.569l1.866-1.683a.326.326,0,1,1,.437.485l-1.866,1.683a.326.326,0,0,1-.219.084" transform="translate(-598.726 -1558.638)" fill="#12263f"/>
        <path id="Trazado_171018" data-name="Trazado 171018" d="M439.075,1221.661s-1.137,20.566-1.731,27.666,1.391,18.512,1.391,18.512l5.662-.3s.388-13.876.809-17.729a44.288,44.288,0,0,0,3.1-9.882,97.428,97.428,0,0,1,3.123-12.018s1.961,36.729,2.15,39.615c0,0,4.44.2,6.031-.8,0,0,2.82-13.393,2.415-20.679s.04-25.39.04-25.39Z" transform="translate(-394.114 -1100.275)" fill="#12263f"/>
        <path id="Trazado_171019" data-name="Trazado 171019" d="M488.7,1513.658h-1.731a.326.326,0,1,1,0-.653H488.7a.326.326,0,1,1,0,.653" transform="translate(-438.652 -1363.796)" fill="#fff"/>
        <path id="Trazado_171020" data-name="Trazado 171020" d="M629.522,1533.758h-.006a.326.326,0,0,1-.32-.332c.063-3.436,3.811-9.558,3.97-9.817a.326.326,0,1,1,.556.342c-.038.062-3.813,6.228-3.873,9.486a.326.326,0,0,1-.326.32" transform="translate(-567.146 -1373.214)" fill="#fff"/>
        <path id="Trazado_171021" data-name="Trazado 171021" d="M685.514,807.313c.412-.032,2.435,4.111,8.766,3.937s11.41-7.258,11.41-7.258,2.187-3.687,3.846-5.02,1.92-1.509,1.92-1.509a1.352,1.352,0,0,1,0,1.509,23.689,23.689,0,0,1-1.956,2.342,2.1,2.1,0,0,1,.869,2.678,3.214,3.214,0,0,1-3.134,1.914s-4.694,20.782-24.094,10.907Z" transform="translate(-615.771 -718.82)" fill="#fff"/>
        <path id="Trazado_171022" data-name="Trazado 171022" d="M689.778,816.819a21.8,21.8,0,0,1-9.769-2.7.326.326,0,0,1-.169-.37l2.373-9.5A.326.326,0,0,1,682.5,804c.244-.019.405.158.755.548a9.5,9.5,0,0,0,8.028,3.388c5.987-.164,10.921-6.8,11.147-7.111.168-.282,2.262-3.767,3.914-5.095s1.93-1.517,1.941-1.525a.327.327,0,0,1,.444.075,1.672,1.672,0,0,1,.014,1.88,20.082,20.082,0,0,1-1.737,2.113,2.4,2.4,0,0,1,.678,2.852,3.465,3.465,0,0,1-3.181,2.119c-.395,1.535-2.685,9.315-9.19,12.368a12.885,12.885,0,0,1-5.54,1.2m-9.241-3.163c5.6,2.8,10.48,3.258,14.5,1.369,6.793-3.189,8.872-12.085,8.892-12.174a.325.325,0,0,1,.342-.254,2.862,2.862,0,0,0,2.806-1.708,1.76,1.76,0,0,0-.722-2.272.327.327,0,0,1-.081-.51,23.529,23.529,0,0,0,1.919-2.293,1.033,1.033,0,0,0,.149-.829c-.266.2-.745.581-1.589,1.259-1.595,1.281-3.748,4.9-3.77,4.932l-.016.024c-.211.295-5.247,7.218-11.667,7.394a10.249,10.249,0,0,1-8.532-3.6l-.056-.062Z" transform="translate(-612.787 -715.837)" fill="#12263f"/>
        <path id="Trazado_171023" data-name="Trazado 171023" d="M389.022,833.429s1.9-12.263,8.612-15.28,15.793-2.6,18.3-1.091,9.031,8.319,9.031,8.319l-5.768,8.052s1.318,21.674.276,27.4c0,0-6.416.748-9.137-.323s-11.669-2.573-15.946-.608l.777-27.441Z" transform="translate(-350.658 -735.435)" fill="#ff5e8e"/>
        <path id="Trazado_171024" data-name="Trazado 171024" d="M411.967,858.363a14.339,14.339,0,0,1-4.737-.6c-2.8-1.1-11.633-2.479-15.69-.615a.326.326,0,0,1-.462-.306l.766-27.048-5.754.915a.327.327,0,0,1-.374-.372c.079-.508,2.005-12.473,8.8-15.528,6.657-2.992,15.873-2.714,18.6-1.073,2.512,1.512,8.831,8.094,9.1,8.373a.327.327,0,0,1,.03.416l-5.7,7.958c.113,1.894,1.274,21.818.264,27.359a.326.326,0,0,1-.283.266,43.885,43.885,0,0,1-4.558.258m-14.752-2.8a33.8,33.8,0,0,1,10.254,1.586c2.321.914,7.549.45,8.737.329.947-5.964-.309-26.865-.322-27.078a.326.326,0,0,1,.06-.21l5.609-7.831c-1.086-1.123-6.573-6.745-8.776-8.07-2.332-1.4-11.323-1.89-17.995,1.109-5.759,2.589-7.924,12.377-8.344,14.588l5.69-.9a.327.327,0,0,1,.378.332l-.763,26.937a16.083,16.083,0,0,1,5.471-.786" transform="translate(-347.674 -732.39)" fill="#12263f"/>
        <path id="Trazado_171025" data-name="Trazado 171025" d="M500.232,1119.374a.326.326,0,0,1-.056-.648c10.129-1.79,13.064-8.773,13.092-8.843a.327.327,0,1,1,.605.245c-.03.073-3.1,7.389-13.584,9.241a.325.325,0,0,1-.057.005" transform="translate(-450.607 -1000.245)" fill="#12263f"/>
        <path id="Trazado_171026" data-name="Trazado 171026" d="M570.668,947.227H557.606l4.091-14.59h13.062Z" transform="translate(-502.617 -840.663)" fill="#12263f"/>
        <path id="Trazado_171027" data-name="Trazado 171027" d="M400,967.138l6.61-2.955s-.931,11.2,12.443,6.028a9.529,9.529,0,0,1-.424-3.121c.07-1.681,1.076-.054,1.216,1.312s3.281.812,5.168.273,4.364-.186,0,2.221-5.32,1.333-5.32,1.333-5.573,7.8-12.507,6.141c-8.529-2.038-7.188-11.234-7.188-11.234" transform="translate(-360.483 -869.097)" fill="#fff"/>
        <path id="Trazado_171028" data-name="Trazado 171028" d="M406.26,975.95a8.83,8.83,0,0,1-2.058-.244c-8.718-2.083-7.449-11.5-7.435-11.6a.327.327,0,0,1,.19-.251l6.61-2.955a.327.327,0,0,1,.459.325c0,.04-.3,4.025,2.3,5.964,2,1.49,5.163,1.437,9.418-.159a9.912,9.912,0,0,1-.349-2.937c.01-.251.042-1.013.584-1.029.687-.026,1.2,1.5,1.283,2.321a.422.422,0,0,0,.2.327c.692.468,2.784.169,4.55-.334.829-.237,2.481-.48,2.8.292.26.632-.527,1.412-2.552,2.529-3.337,1.841-4.8,1.731-5.4,1.482-.926,1.206-5.142,6.268-10.607,6.268m-8.867-11.573a12.8,12.8,0,0,0,.412,4.562,8.384,8.384,0,0,0,6.548,6.133,8,8,0,0,0,1.865.22c5.772,0,10.251-6.165,10.3-6.234a.327.327,0,0,1,.509-.027s.982.769,4.919-1.4c2.244-1.238,2.261-1.716,2.261-1.72a3.2,3.2,0,0,0-2.014.1c-.9.257-3.932,1.035-5.1.247a1.078,1.078,0,0,1-.487-.8,3.921,3.921,0,0,0-.542-1.6,2.434,2.434,0,0,0-.024.268,9.285,9.285,0,0,0,.406,3,.327.327,0,0,1-.191.41c-4.624,1.788-8.1,1.848-10.33.178-2.31-1.728-2.569-4.767-2.573-6Z" transform="translate(-357.574 -866.114)" fill="#12263f"/>
        <path id="Trazado_171029" data-name="Trazado 171029" d="M526.842,676.347c-.571.523-1.687,1.161-2.561.721a2.266,2.266,0,0,1-.991-2.149,1.3,1.3,0,0,1-.978-.246c-.434-.384-.353-1.089-.336-1.553.078-2.14-1.165-2.468-.861-3.92a3.451,3.451,0,0,1,1.3-1.948c.846-.642,1.42-.435,2.842-.807,2.394-.627,2.471-1.659,4.048-1.664.091,0,2.238.024,2.966,1.507a3.293,3.293,0,0,1-.815,3.443c-.927,1-1.592.5-2.522,1.341-1.633,1.468-.4,3.722-2.1,5.275" transform="translate(-469.682 -599.223)" fill="#12263f"/>
        <path id="Trazado_171030" data-name="Trazado 171030" d="M548.028,705.769l-.094-.081a2.921,2.921,0,0,1-1.093-1.5c-.535-2.6-2.921-3.55-3.031-1.159-.028.6-2.232.572-1.97,1.206.682,1.651.7,1.207-.265,1.816a.833.833,0,0,0-.319.076,1.1,1.1,0,0,0-.39,1.5,1.278,1.278,0,0,0,.784.7v2.609a2.409,2.409,0,0,1-1.5,2.229l-.881.36a7.622,7.622,0,0,0,8.279-.263l-.557-.25a2.808,2.808,0,0,1-1.657-2.474l0-.51a2.178,2.178,0,0,0,.8-.067c1.166-.339,1.554-1.683,1.355-3.354l.475-.255a.359.359,0,0,0,.064-.588" transform="translate(-486.089 -632.462)" fill="#fff"/>
        <path id="Trazado_171031" data-name="Trazado 171031" d="M540.352,711.982a8.571,8.571,0,0,1-4.244-1.161.326.326,0,0,1,.055-.576l.881-.36a2.074,2.074,0,0,0,1.294-1.927v-2.387a1.636,1.636,0,0,1-.753-.787,1.428,1.428,0,0,1,.548-1.93,1.133,1.133,0,0,1,.352-.1c.151-.092.278-.16.374-.212.051-.027.107-.057.146-.08-.03-.1-.111-.284-.2-.479-.071-.162-.156-.36-.256-.6a.549.549,0,0,1,.008-.461c.163-.335.62-.463,1.149-.611a2.774,2.774,0,0,0,.79-.3c.076-1.459.925-1.639,1.184-1.659.914-.072,2.118.976,2.491,2.791a2.665,2.665,0,0,0,.986,1.313l.094.082a.685.685,0,0,1-.123,1.122l-.282.151c.169,1.871-.413,3.135-1.612,3.483a2.337,2.337,0,0,1-.565.089l0,.172a2.494,2.494,0,0,0,1.464,2.179l.557.25a.326.326,0,0,1,.055.565,7.5,7.5,0,0,1-4.4,1.43m-3.307-1.392a7.14,7.14,0,0,0,6.841-.251l-.012-.005a3.153,3.153,0,0,1-1.85-2.761l0-.517a.326.326,0,0,1,.355-.328,1.861,1.861,0,0,0,.683-.055c1.29-.375,1.215-2.224,1.122-3a.326.326,0,0,1,.169-.326l.475-.255a.03.03,0,0,0,.017-.025.03.03,0,0,0-.011-.028l-.094-.081a3.194,3.194,0,0,1-1.2-1.677c-.314-1.529-1.26-2.313-1.8-2.272-.485.038-.57.756-.584,1.062-.024.525-.655.7-1.265.872a3.525,3.525,0,0,0-.708.248c.088.213.165.389.229.536.325.748.446,1.028-.242,1.4-.107.057-.241.129-.4.231a.327.327,0,0,1-.161.05.506.506,0,0,0-.194.045.785.785,0,0,0-.233,1.063.956.956,0,0,0,.577.526.326.326,0,0,1,.237.314v2.609a2.725,2.725,0,0,1-1.7,2.531Z" transform="translate(-483.105 -629.481)" fill="#12263f"/>
        <path id="Trazado_171032" data-name="Trazado 171032" d="M576.3,770.1a.331.331,0,0,1-.05,0,3.738,3.738,0,0,1-2.579-1.671.326.326,0,0,1,.566-.326,3.075,3.075,0,0,0,2.112,1.352.326.326,0,0,1-.049.649" transform="translate(-517.059 -692.206)" fill="#12263f"/>
        <path id="Trazado_171033" data-name="Trazado 171033" d="M42.736,1099.53c-.42,1.436-1.079,3.423-.349,4.377,1.325,1.734,2.424,1.456,4.06.859,3.271-1.193,8.491-3.076,10.015-2.029l.068-3.208Z" transform="translate(-37.911 -991.097)" fill="#ff8daf"/>
        <path id="Trazado_171034" data-name="Trazado 171034" d="M42.083,1680.668l-1.069,7.5H38.7l-.129-7.377Z" transform="translate(-34.769 -1514.925)" fill="#fff"/>
        <path id="Trazado_171035" data-name="Trazado 171035" d="M38.03,1685.51H35.718a.326.326,0,0,1-.326-.321l-.129-7.377a.326.326,0,0,1,.315-.332l3.51-.124a.327.327,0,0,1,.335.372l-1.068,7.5a.326.326,0,0,1-.323.28m-1.992-.653h1.709l.974-6.834-2.8.1Z" transform="translate(-31.785 -1511.94)" fill="#12263f"/>
        <path id="Trazado_171036" data-name="Trazado 171036" d="M9.315,1747.556a18.471,18.471,0,0,1-5.027-.168,1.182,1.182,0,0,1-.94-1.484c.5-1.775,1.308-5.265,2.6-7.018a.24.24,0,0,1,.407.039l.409.824.452-.951a.42.42,0,0,1,.321-.2l1.092.017a.42.42,0,0,1,.452.345l.139.79.506-.641a.24.24,0,0,1,.429.142l.2,7.016a1.179,1.179,0,0,1-1.045,1.29" transform="translate(-2.978 -1567.141)" fill="#fff"/>
        <path id="Trazado_171037" data-name="Trazado 171037" d="M4.449,1745a18.883,18.883,0,0,1-3.194-.271,1.509,1.509,0,0,1-1.2-1.894c.068-.243.143-.518.223-.817.509-1.89,1.279-4.745,2.432-6.306a.558.558,0,0,1,.5-.225.564.564,0,0,1,.46.314l.11.222.163-.344a.255.255,0,0,1,.015-.028.748.748,0,0,1,.571-.359h.035l1.077.017a.753.753,0,0,1,.784.615l.013.073.054-.069a.567.567,0,0,1,1.011.334l.2,7.005a1.51,1.51,0,0,1-1.336,1.634,18.109,18.109,0,0,1-1.924.1m-1.3-8.782a21.871,21.871,0,0,0-2.242,5.969c-.081.3-.156.579-.225.824a.855.855,0,0,0,.681,1.074,18.1,18.1,0,0,0,4.937.165.854.854,0,0,0,.755-.933c0-.008,0-.015,0-.023l-.2-6.778-.359.455a.326.326,0,0,1-.578-.146l-.139-.79a.094.094,0,0,0-.1-.077H5.649l-1.068-.017a.094.094,0,0,0-.054.035l-.442.932a.327.327,0,0,1-.292.186.314.314,0,0,1-.3-.181Z" transform="translate(0 -1564.158)" fill="#12263f"/>
        <path id="Trazado_171038" data-name="Trazado 171038" d="M11.022,1811.966a10.559,10.559,0,0,1-2.666-.321.326.326,0,1,1,.166-.631,12.068,12.068,0,0,0,5.246,0,.326.326,0,1,1,.159.633,13.057,13.057,0,0,1-2.9.32" transform="translate(-7.312 -1632.406)" fill="#12263f"/>
        <path id="Trazado_171039" data-name="Trazado 171039" d="M27.657,1785.06h-2.48a.326.326,0,1,1,0-.653h2.48a.326.326,0,1,1,0,.653" transform="translate(-22.4 -1608.433)" fill="#12263f"/>
        <path id="Trazado_171040" data-name="Trazado 171040" d="M273.11,1680.709l.962,8.742,3.677.77-.224-10.25Z" transform="translate(-246.177 -1514.296)" fill="#fff"/>
        <path id="Trazado_171041" data-name="Trazado 171041" d="M274.766,1687.563a.338.338,0,0,1-.067-.007l-3.677-.77a.327.327,0,0,1-.258-.284l-.962-8.742a.326.326,0,0,1,.271-.358l4.415-.739a.326.326,0,0,1,.38.315l.224,10.25a.327.327,0,0,1-.326.334m-3.378-1.368,3.043.637-.207-9.463-3.739.625Z" transform="translate(-243.193 -1511.311)" fill="#12263f"/>
        <path id="Trazado_171042" data-name="Trazado 171042" d="M266.313,1765.145a11.627,11.627,0,0,1,.581-4.649.728.728,0,0,1,.911-.4l2.359.84v-.628a.367.367,0,0,1,.329-.38l1.64-.094a3.568,3.568,0,0,1,1.782.366c1.689.831,5.269,2.787,6.149,4.837a.833.833,0,0,1-.665,1.15,60.88,60.88,0,0,1-12.173-.1,1,1,0,0,1-.914-.947" transform="translate(-240.033 -1586.282)" fill="#fff"/>
        <path id="Trazado_171043" data-name="Trazado 171043" d="M271.716,1763.777c-1.915,0-4.38-.087-7.5-.342a1.325,1.325,0,0,1-1.213-1.258,11.983,11.983,0,0,1,.607-4.794,1.057,1.057,0,0,1,1.32-.573l1.923.685v-.166a.693.693,0,0,1,.636-.706l1.641-.094a3.916,3.916,0,0,1,1.944.4c1.968.968,5.4,2.9,6.305,5a1.14,1.14,0,0,1-.059,1.023,1.158,1.158,0,0,1-.864.579,37.673,37.673,0,0,1-4.746.245m-7.133-6.375a.4.4,0,0,0-.369.242,11.367,11.367,0,0,0-.554,4.5h0a.671.671,0,0,0,.614.637,60.572,60.572,0,0,0,12.1.1.511.511,0,0,0,.381-.255.493.493,0,0,0,.026-.442c-.848-1.975-4.474-3.926-5.993-4.673a3.257,3.257,0,0,0-1.619-.333l-1.64.094a.067.067,0,0,0-.021.054v.628a.326.326,0,0,1-.436.307l-2.359-.84a.4.4,0,0,0-.133-.023" transform="translate(-237.053 -1583.299)" fill="#12263f"/>
        <path id="Trazado_171044" data-name="Trazado 171044" d="M282.6,1808.319a50.921,50.921,0,0,1-5.844-.336.326.326,0,1,1,.075-.649,45.96,45.96,0,0,0,10.925.033.326.326,0,0,1,.1.646,39.3,39.3,0,0,1-5.255.306" transform="translate(-249.201 -1629.097)" fill="#12263f"/>
        <path id="Trazado_171045" data-name="Trazado 171045" d="M324.514,1769.859a.324.324,0,0,1-.19-.061l-2.832-2.037a.327.327,0,1,1,.381-.53l2.832,2.037a.326.326,0,0,1-.191.591" transform="translate(-289.665 -1592.895)" fill="#12263f"/>
        <path id="Trazado_171046" data-name="Trazado 171046" d="M43.377,1080.362s5.122,33.919,4.172,58.007a1,1,0,0,1-.97.953l-4.08.105a1,1,0,0,1-1.006-.818c-.972-5.387-6.407-35.022-9.258-40.552,0,0-8.069,29.729-8.855,39.579a1.01,1.01,0,0,1-.944.928,19.589,19.589,0,0,1-3.626-.049,1.012,1.012,0,0,1-.856-.91c-.755-8.241-.938-15.781-.978-21.162-.116-15.853,1.4-23.054,2.229-26.47.763-3.137,1.581-5.686,2.179-7.411l2-5.693Z" transform="translate(-15.296 -970.671)" fill="#12263f"/>
        <path id="Trazado_171047" data-name="Trazado 171047" d="M168.6,1247.585a.333.333,0,0,1-.086-.011.326.326,0,0,1-.23-.4l.984-3.627a2.719,2.719,0,0,1,1.948-2.129l.96-.246a.326.326,0,1,1,.162.632l-.96.246a2.1,2.1,0,0,0-1.479,1.66l-.986,3.634a.326.326,0,0,1-.315.241" transform="translate(-151.683 -1118.761)" fill="#ffebf1"/>
        <path id="Trazado_171048" data-name="Trazado 171048" d="M42.266,787.608a7.072,7.072,0,0,1,6.388,3.95,46.975,46.975,0,0,1,3.4,13.383c.133,5.617-4.788,5.933-4.934,5.942a0,0,0,0,0,0,0c.015.162.59,6.266.636,7.349.083,1.982-3.592,5.073-7.813,3.55-4.2-1.516-15.674-4.535-16.84-1.964a0,0,0,1,1-.006,0L27.9,801.962a0,0,0,0,0,0,0l-3.951.191h0l-3.218-1.861a0,0,0,0,1,0,0l.815-3.609c1.548-6.167,5.69-9,11.034-9.021Z" transform="translate(-18.684 -709.936)" fill="#ff5e8e"/>
        <path id="Trazado_171049" data-name="Trazado 171049" d="M42.473,883.773c-.739-.137-.537-.993-3.131-1.147-7.488-.446-3.859-4.248.431-3.524,1.422.24,1.981,1.16,2.516,1.393,4.488,1.958,1.657,3.55.185,3.278" transform="translate(-31.562 -792.324)" fill="#fff"/>
        <path id="Trazado_171050" data-name="Trazado 171050" d="M39.854,881.128a2.352,2.352,0,0,1-.426-.037,1.414,1.414,0,0,1-.712-.393,3.334,3.334,0,0,0-2.38-.75c-2.553-.152-4.119-.708-4.53-1.609a1.218,1.218,0,0,1,.2-1.287c.689-.9,2.618-1.65,4.833-1.276a4.187,4.187,0,0,1,2.119,1.071,2.42,2.42,0,0,0,.473.345c2.484,1.083,2.771,2.074,2.575,2.714a2.243,2.243,0,0,1-2.154,1.222m-4.147-4.793a4.278,4.278,0,0,0-3.181,1.116.551.551,0,0,0-.125.618c.109.239.718,1.034,3.975,1.228a3.886,3.886,0,0,1,2.769.909.8.8,0,0,0,.4.243c.652.121,1.68-.22,1.837-.734.162-.53-.665-1.249-2.212-1.924a2.769,2.769,0,0,1-.631-.442,3.573,3.573,0,0,0-1.808-.928,6.162,6.162,0,0,0-1.026-.086" transform="translate(-28.577 -789.321)" fill="#12263f"/>
        <path id="Trazado_171051" data-name="Trazado 171051" d="M129.5,722.052a.379.379,0,0,0-.209-.661l-.508-.061a1.424,1.424,0,0,1-1.178-.931l-.836-6.177-1.715.613-2.27-1.122.2,6.6a1.412,1.412,0,0,1-.947,1.282l-.663.237a.4.4,0,0,0-.027.746c1.351.589,6.841.593,8.151-.527" transform="translate(-109.163 -643.328)" fill="#fff"/>
        <path id="Trazado_171052" data-name="Trazado 171052" d="M121.674,720.307a10.741,10.741,0,0,1-3.438-.413.725.725,0,0,1,.048-1.352l.663-.237a1.081,1.081,0,0,0,.73-.984l-.2-6.581a.326.326,0,0,1,.471-.3l2.146,1.061,1.585-.567a.326.326,0,0,1,.433.264l.832,6.141a1.091,1.091,0,0,0,.9.686l.507.061a.712.712,0,0,1,.6.5.69.69,0,0,1-.214.733c-.825.706-3.049.991-5.055.991m-1.53-9.044.186,6.056a1.734,1.734,0,0,1-1.163,1.6l-.664.237a.073.073,0,0,0-.055.069.071.071,0,0,0,.049.07c1.357.591,6.647.518,7.808-.475h0a.039.039,0,0,0,.013-.048.055.055,0,0,0-.049-.041l-.508-.061a1.739,1.739,0,0,1-1.447-1.146.327.327,0,0,1-.016-.065l-.783-5.777-1.336.478a.327.327,0,0,1-.255-.015Z" transform="translate(-106.179 -640.344)" fill="#12263f"/>
        <path id="Trazado_171053" data-name="Trazado 171053" d="M139.873,664.8c2.923,1.076,2.42,2.968,2.42,2.968a8.015,8.015,0,0,0,.04,1.818c.08.285.547.821.569.979s-.231.483-.737.6c0,0-.192,2.528-.855,2.942s-3.215-.381-3.215-.381l-.429-.172a4.5,4.5,0,0,1-2.63-3.135s-1.861-8.085,4.836-5.618" transform="translate(-121.505 -598.813)" fill="#fff"/>
        <path id="Trazado_171054" data-name="Trazado 171054" d="M137.676,671.569a10.6,10.6,0,0,1-2.671-.513l-.024-.009-.429-.172a4.816,4.816,0,0,1-2.823-3.349c-.043-.184-.936-4.176.93-5.821.95-.837,2.408-.9,4.333-.193,2.923,1.076,2.689,3.009,2.632,3.316a7.813,7.813,0,0,0,.03,1.688,2.688,2.688,0,0,0,.289.482,1.445,1.445,0,0,1,.289.54c.043.3-.232.7-.754.892-.076.8-.316,2.55-.988,2.97a1.588,1.588,0,0,1-.814.167m-2.465-1.133a6.338,6.338,0,0,0,2.932.412,5.423,5.423,0,0,0,.7-2.69.326.326,0,0,1,.253-.293.831.831,0,0,0,.465-.255c-.04-.067-.11-.168-.16-.242a2.668,2.668,0,0,1-.379-.675,8.87,8.87,0,0,1-.051-1.93.327.327,0,0,1,.01-.061c.015-.063.367-1.626-2.218-2.577-1.683-.619-2.919-.6-3.675.069-1.576,1.387-.739,5.132-.73,5.17a4.177,4.177,0,0,0,2.434,2.9Z" transform="translate(-118.511 -595.836)" fill="#12263f"/>
        <path id="Trazado_171055" data-name="Trazado 171055" d="M130.3,654.377c.768.188,1.52.667,1.917.71.64.069,1.1-.753,1.911-.455a1.885,1.885,0,0,1,1.212,1.55,1.547,1.547,0,0,1,.01.363,2.106,2.106,0,0,1-1.668,2.17,21.836,21.836,0,0,0-3.033-.115,2.476,2.476,0,0,0-1.394,1.857.311.311,0,0,1-.608-.014c-.085-.492-.317-1.475-.816-1.5a1.094,1.094,0,0,0-.563,1.839.457.457,0,0,1-.144.747.849.849,0,0,1-.9-.167s-1.5-2.634-.786-4.857,3.838-2.372,4.86-2.123" transform="translate(-112.891 -589.763)" fill="#12263f"/>
        <path id="Trazado_171056" data-name="Trazado 171056" d="M208.226,702.552a.327.327,0,0,1-.222-.566,1.3,1.3,0,0,0,.265-.81,1.185,1.185,0,0,0-.2-.852.934.934,0,0,0-.253.553.326.326,0,0,1-.641-.122c.13-.683.492-1.109.928-1.088a.781.781,0,0,1,.668.562,2.275,2.275,0,0,1,.149.981,1.878,1.878,0,0,1-.473,1.255.326.326,0,0,1-.222.087" transform="translate(-186.74 -630.667)" fill="#12263f"/>
        <path id="Trazado_171057" data-name="Trazado 171057" d="M188.1,702.394h-.041a.976.976,0,0,1-.785-.552,1.984,1.984,0,0,1-.217-1.047c.045-.865.547-1.517,1.162-1.488a.976.976,0,0,1,.785.552,1.984,1.984,0,0,1,.217,1.047c-.044.846-.532,1.489-1.12,1.489m-.391-1.566a1.343,1.343,0,0,0,.137.7c.072.131.164.211.247.216.184.007.448-.325.476-.87a1.344,1.344,0,0,0-.137-.7c-.072-.131-.164-.211-.247-.216h-.007c-.175,0-.441.333-.469.87" transform="translate(-168.602 -630.34)" fill="#12263f"/>
        <path id="Trazado_171058" data-name="Trazado 171058" d="M162.823,704.2h-.03l-2.789-.25a.326.326,0,1,1,.058-.65l2.789.25a.326.326,0,0,1-.029.652" transform="translate(-143.958 -633.94)" fill="#12263f"/>
        <path id="Trazado_171059" data-name="Trazado 171059" d="M146.216,760.724s1.086,1.7,2.064,1.4c.514-.158,1.016-1.838,1.221-1.9a3.992,3.992,0,0,0,2.671-1.872c.716-1.279.56-1.963.375-2.277a.433.433,0,0,1,.01-.463.851.851,0,0,0,.132-.823.438.438,0,0,1,0-.348c.182-.424.519-1.4-.136-1.591a.439.439,0,0,0-.477.163,4.731,4.731,0,0,1-1.179,1.169c-.759.483-1.213.813-1.595,1.03-.327.186-.5-1.444-1.284-2.056-.7-.544-.934-.269-1-.013s.362.357.608,1.572a8.679,8.679,0,0,1-.1,3.258,12.994,12.994,0,0,1-1.31,2.746" transform="translate(-131.797 -678.594)" fill="#fff"/>
        <path id="Trazado_171060" data-name="Trazado 171060" d="M145.055,759.506c-1.052,0-1.986-1.413-2.1-1.59a.326.326,0,0,1,0-.344,12.1,12.1,0,0,0,1.266-2.621c.014-.106.035-.228.057-.362a7.413,7.413,0,0,0,.047-2.787,2.852,2.852,0,0,0-.45-1.147.668.668,0,0,1-.153-.575.7.7,0,0,1,.444-.508,1.191,1.191,0,0,1,1.075.349,3.651,3.651,0,0,1,.958,1.571c.044.112.1.249.144.351.162-.1.343-.221.557-.363.236-.157.511-.339.844-.551a4.4,4.4,0,0,0,1.09-1.085.765.765,0,0,1,.833-.285.813.813,0,0,1,.525.441,2.132,2.132,0,0,1-.181,1.592.114.114,0,0,0,0,.088,1.158,1.158,0,0,1-.16,1.137.106.106,0,0,0,0,.114c.254.431.395,1.233-.372,2.6a4.241,4.241,0,0,1-2.783,2h0c-.057.094-.156.3-.23.465-.358.77-.644,1.325-1.065,1.454a1.135,1.135,0,0,1-.337.051m-1.436-1.778c.333.459,1.051,1.266,1.581,1.1.183-.07.52-.8.664-1.105.233-.5.339-.729.561-.794l.083-.024a3.611,3.611,0,0,0,2.395-1.694c.672-1.2.489-1.765.379-1.952a.764.764,0,0,1,.021-.812.524.524,0,0,0,.1-.509.765.765,0,0,1,0-.608,1.644,1.644,0,0,0,.19-1.057.164.164,0,0,0-.118-.092.111.111,0,0,0-.121.042,5.069,5.069,0,0,1-1.268,1.253c-.329.209-.6.389-.833.544-.308.2-.551.366-.776.494a.42.42,0,0,1-.353.034c-.255-.09-.369-.381-.542-.822a3.2,3.2,0,0,0-.752-1.294c-.331-.258-.461-.245-.468-.244a.062.062,0,0,1-.006.019c.014.024.036.056.054.084a3.478,3.478,0,0,1,.545,1.378,7.976,7.976,0,0,1-.043,3.024c-.021.128-.04.242-.054.343a11.161,11.161,0,0,1-1.246,2.69m.75-7.538Z" transform="translate(-128.812 -675.61)" fill="#12263f"/>
        <path id="Trazado_171061" data-name="Trazado 171061" d="M29.752,821.3l-3.289-2.1s-4.446,7.189-7.813,9.629c-1.639,1.188-4.819-.209-4.819-.209s-3.053,11.733,2.84,13.411c9.817,2.794,13.081-20.735,13.081-20.735" transform="translate(-11.754 -738.414)" fill="#ff5e8e"/>
        <path id="Trazado_171062" data-name="Trazado 171062" d="M165.293,970.929c-3.734,0-8.947-2.874-12.734-5.695a.327.327,0,0,1,.39-.524c3.752,2.795,9.4,5.921,12.978,5.533a.326.326,0,0,1,.071.649,6.542,6.542,0,0,1-.7.037" transform="translate(-137.395 -869.514)" fill="#ffebf1"/>
        <path id="Trazado_171063" data-name="Trazado 171063" d="M174.888,888.148c-2.114,0-5.934-1.788-6.112-1.872a.326.326,0,0,1,.278-.591c1.283.6,4.914,2.1,6.283,1.765,2.713-.664,2.081-4.077,2.052-4.222a.327.327,0,0,1,.641-.125c.28,1.439.111,4.332-2.538,4.981a2.567,2.567,0,0,1-.6.064" transform="translate(-151.963 -795.776)" fill="#ffebf1"/>
        <path id="Trazado_171064" data-name="Trazado 171064" d="M64.019,825.988a.326.326,0,0,1-.2-.588c3.513-2.625,7.886-9.862,7.93-9.935a.326.326,0,0,1,.559.336c-.181.3-4.483,7.419-8.1,10.121a.325.325,0,0,1-.2.065" transform="translate(-57.411 -734.903)" fill="#ffebf1"/>
        <path id="Trazado_171065" data-name="Trazado 171065" d="M57.76,850.532c-.133,0-.266-.006-.4-.017a.326.326,0,0,1,.056-.651c7.2.622,11.2-18.334,11.653-20.583l-1.246-.793a.326.326,0,1,1,.351-.551l1.434.913a.326.326,0,0,1,.146.335c-.165.885-4.069,21.347-11.992,21.347" transform="translate(-51.433 -746.241)" fill="#ffebf1"/>
        <path id="Trazado_171066" data-name="Trazado 171066" d="M336.255,636.354a.677.677,0,0,1,0-.773,1.821,1.821,0,0,0,.345-1.039c0-1.695-2.626-3.069-5.864-3.069s-5.864,1.374-5.864,3.069a1.82,1.82,0,0,0,.345,1.039.677.677,0,0,1,0,.773,1.82,1.82,0,0,0-.345,1.039,2.58,2.58,0,0,0,1.558,2.083,1.223,1.223,0,0,0-.034.278c0,1.254,1.943,2.271,4.34,2.271s4.34-1.017,4.34-2.271a1.216,1.216,0,0,0-.034-.278,2.58,2.58,0,0,0,1.558-2.083,1.821,1.821,0,0,0-.345-1.039" transform="translate(-292.833 -569.199)" fill="#ff8daf"/>
        <path id="Trazado_171067" data-name="Trazado 171067" d="M327.752,639.369c-2.617,0-4.666-1.141-4.666-2.6,0-.036,0-.073,0-.11a2.765,2.765,0,0,1-1.529-2.251,2.135,2.135,0,0,1,.4-1.223.35.35,0,0,0,0-.4,2.136,2.136,0,0,1-.4-1.224c0-1.9,2.719-3.4,6.191-3.4s6.191,1.491,6.191,3.4a2.136,2.136,0,0,1-.4,1.224.349.349,0,0,0,0,.4,2.137,2.137,0,0,1,.4,1.223,2.764,2.764,0,0,1-1.529,2.251c0,.037,0,.074,0,.11,0,1.456-2.05,2.6-4.666,2.6m0-10.551c-3,0-5.538,1.256-5.538,2.742a1.5,1.5,0,0,0,.287.854,1,1,0,0,1,0,1.143,1.5,1.5,0,0,0-.287.854,2.272,2.272,0,0,0,1.392,1.8l.213.12-.055.238a.9.9,0,0,0-.025.2c0,1.054,1.838,1.944,4.013,1.944s4.013-.891,4.013-1.944a.876.876,0,0,0-.025-.2l-.056-.238.213-.121a2.272,2.272,0,0,0,1.392-1.8,1.5,1.5,0,0,0-.287-.854h0a1,1,0,0,1,0-1.143,1.5,1.5,0,0,0,.287-.854c0-1.487-2.536-2.742-5.538-2.742" transform="translate(-289.85 -566.217)" fill="#12263f"/>
        <path id="Trazado_171068" data-name="Trazado 171068" d="M254.96,276.8a15.91,15.91,0,1,0-26.807,11.184,16.379,16.379,0,0,1,4.365,7.505l.036.138a6.285,6.285,0,0,0,6.082,4.7h1.173a6.284,6.284,0,0,0,6.082-4.7l.022-.084a16.083,16.083,0,0,1,4.3-7.48A15.687,15.687,0,0,0,254.96,276.8" transform="translate(-201.14 -234.985)" fill="#fff"/>
        <path id="Trazado_171069" data-name="Trazado 171069" d="M236.826,297.674h-1.173a6.612,6.612,0,0,1-6.4-4.947l-.036-.138a16.074,16.074,0,0,0-4.279-7.356,16.494,16.494,0,0,1-5.1-11.636,16.258,16.258,0,0,1,4.808-11.425,16.032,16.032,0,0,1,11.407-4.787h0A16.562,16.562,0,0,1,252.3,273.817a15.939,15.939,0,0,1-4.846,11.5,15.748,15.748,0,0,0-4.21,7.329l-.022.083a6.612,6.612,0,0,1-6.4,4.947m-.775-39.636A15.654,15.654,0,0,0,220.489,273.6a15.841,15.841,0,0,0,4.91,11.167,16.725,16.725,0,0,1,4.452,7.655l.036.138a5.959,5.959,0,0,0,5.766,4.459h1.173a5.959,5.959,0,0,0,5.766-4.459l.022-.083A16.4,16.4,0,0,1,247,284.847a15.29,15.29,0,0,0,4.65-11.03,15.9,15.9,0,0,0-15.6-15.779" transform="translate(-198.156 -232.002)" fill="#12263f"/>
        <path id="Trazado_171070" data-name="Trazado 171070" d="M320.553,405.373h0a.326.326,0,0,1-.325-.328c.034-8.475,4.982-18.039,5.973-19.87a4.345,4.345,0,0,0,.687-2.714,2.427,2.427,0,0,0-1.666-2.1,3.343,3.343,0,0,0-2.533.25,5,5,0,0,1,1.389,4.663,1.7,1.7,0,0,1-1.395,1.22,2.143,2.143,0,0,1-2.1-.891c-.405-.579-.891-1.893.409-4.186a3.681,3.681,0,0,1,.645-.839l-.089-.058a3.25,3.25,0,0,0-2.8-.319,3.028,3.028,0,0,0-.831.474,4.944,4.944,0,0,1,1.532,4.3,2.287,2.287,0,0,1-1.518,1.857,1.869,1.869,0,0,1-1.864-.475,3.054,3.054,0,0,1-.443-3.114,7.043,7.043,0,0,1,1.163-2.346,2.688,2.688,0,0,0-3.323,1.193,3.219,3.219,0,0,0,.374,3.021c1.452,2.074,4.846,8.131,5.012,19.543a.326.326,0,0,1-.322.331h0a.327.327,0,0,1-.326-.322c-.163-11.23-3.477-17.153-4.894-19.178a3.828,3.828,0,0,1-.445-3.64c.53-1.309,2.311-2.191,4.419-1.48a3.759,3.759,0,0,1,1.242-.775,3.917,3.917,0,0,1,3.375.379q.138.087.273.189a4.005,4.005,0,0,1,3.247-.418,3.1,3.1,0,0,1,2.11,2.61,4.874,4.874,0,0,1-.756,3.134c-.978,1.807-5.861,11.243-5.894,19.562a.326.326,0,0,1-.326.325m-3.113-24.231a6.223,6.223,0,0,0-1.186,2.294,2.446,2.446,0,0,0,.281,2.462,1.2,1.2,0,0,0,1.214.31,1.658,1.658,0,0,0,1.066-1.361c.213-1.053-.373-3.114-1.374-3.707m4.71-.142a3.006,3.006,0,0,0-.587.743c-1.123,1.981-.759,3.037-.442,3.49a1.487,1.487,0,0,0,1.452.621,1.048,1.048,0,0,0,.875-.756,4.4,4.4,0,0,0-1.3-4.1" transform="translate(-281.765 -341.954)" fill="#12263f"/>
        <path id="Trazado_171071" data-name="Trazado 171071" d="M455.281,447.685a.326.326,0,0,1-.174-.6,12.564,12.564,0,0,0,5.547-7.87.327.327,0,0,1,.638.141,13.223,13.223,0,0,1-5.836,8.281.325.325,0,0,1-.174.05" transform="translate(-410.088 -395.667)" fill="#12263f"/>
        <path id="Trazado_171072" data-name="Trazado 171072" d="M252.077,320.531a.326.326,0,0,1-.244-.11,13.126,13.126,0,0,1,3.978-20.474.326.326,0,1,1,.29.585,12.473,12.473,0,0,0-3.78,19.455.326.326,0,0,1-.244.543" transform="translate(-224.013 -270.337)" fill="#12263f"/>
        <path id="Trazado_171073" data-name="Trazado 171073" d="M391.517,673.355a.326.326,0,0,1-.055-.648,15.027,15.027,0,0,0,1.539-.346.326.326,0,0,1,.177.628,15.668,15.668,0,0,1-1.606.361.335.335,0,0,1-.055,0" transform="translate(-352.613 -606.044)" fill="#fff"/>
        <path id="Trazado_171074" data-name="Trazado 171074" d="M366.446,698.509a.326.326,0,0,1,0-.653,11.273,11.273,0,0,0,4.548-.915.326.326,0,0,1,.277.591,11.924,11.924,0,0,1-4.819.977Z" transform="translate(-330.014 -628.182)" fill="#fff"/>
        <path id="Trazado_171075" data-name="Trazado 171075" d="M951.976,669.769a.326.326,0,0,1-.326-.319l-.025-1.157a.326.326,0,0,1,.319-.333h.007a.326.326,0,0,1,.326.319l.025,1.157a.327.327,0,0,1-.32.333h-.007" transform="translate(-857.779 -602.086)" fill="#12263f"/>
        <path id="Trazado_171076" data-name="Trazado 171076" d="M952.86,710.845a.326.326,0,0,1-.326-.319l-.025-1.157a.327.327,0,0,1,.319-.333h.007a.326.326,0,0,1,.326.319l.025,1.157a.327.327,0,0,1-.32.333h-.007" transform="translate(-858.575 -639.112)" fill="#12263f"/>
        <path id="Trazado_171077" data-name="Trazado 171077" d="M926.5,695.141a.326.326,0,0,1,0-.653l1.14-.009h0a.326.326,0,0,1,0,.653l-1.141.009Z" transform="translate(-834.836 -625.991)" fill="#12263f"/>
        <path id="Trazado_171078" data-name="Trazado 171078" d="M966.977,694.82a.326.326,0,0,1,0-.653l1.141-.009a.326.326,0,1,1,.005.653l-1.141.009Z" transform="translate(-871.322 -625.701)" fill="#12263f"/>
        <path id="Trazado_171079" data-name="Trazado 171079" d="M1631.672,118.068a.326.326,0,0,1-.326-.319l-.025-1.157a.327.327,0,0,1,.319-.333h.007a.327.327,0,0,1,.326.319l.025,1.157a.326.326,0,0,1-.32.333h-.007" transform="translate(-1470.445 -104.792)" fill="#12263f"/>
        <path id="Trazado_171080" data-name="Trazado 171080" d="M1632.557,159.143a.326.326,0,0,1-.326-.319l-.025-1.157a.327.327,0,0,1,.319-.333h.007a.326.326,0,0,1,.326.319l.025,1.157a.327.327,0,0,1-.32.333h-.007" transform="translate(-1471.242 -141.817)" fill="#12263f"/>
        <path id="Trazado_171081" data-name="Trazado 171081" d="M1606.2,143.439a.326.326,0,0,1,0-.653l1.14-.009a.32.32,0,0,1,.329.324.326.326,0,0,1-.324.329l-1.14.009Z" transform="translate(-1447.503 -128.696)" fill="#12263f"/>
        <path id="Trazado_171082" data-name="Trazado 171082" d="M1646.674,143.119a.326.326,0,0,1,0-.653l1.141-.009h0a.326.326,0,0,1,0,.653l-1.141.009Z" transform="translate(-1483.99 -128.408)" fill="#12263f"/>
        <path id="Trazado_171083" data-name="Trazado 171083" d="M924.3,1592.274a70.687,70.687,0,0,1-13.267-1.251.326.326,0,1,1,.122-.641,70.169,70.169,0,0,0,54.863-12.512.326.326,0,0,1,.389.524,70.321,70.321,0,0,1-38.188,13.773q-1.96.107-3.919.107" transform="translate(-820.947 -1422.206)" fill="#12263f"/>
        <path id="Trazado_171084" data-name="Trazado 171084" d="M1470,1567.838a.326.326,0,0,1-.195-.588c.507-.377,1.017-.766,1.514-1.156a.326.326,0,0,1,.4.513c-.5.394-1.016.787-1.528,1.167a.325.325,0,0,1-.194.064" transform="translate(-1324.741 -1411.586)" fill="#12263f"/>
        <path id="Trazado_171085" data-name="Trazado 171085" d="M1055.131,1611.829a.326.326,0,0,1,0-.653,80,80,0,0,0,49.673-17.668.326.326,0,1,1,.411.507,79.321,79.321,0,0,1-22.976,12.98,81,81,0,0,1-27.1,4.833Z" transform="translate(-950.783 -1436.295)" fill="#12263f"/>
        <path id="Trazado_171086" data-name="Trazado 171086" d="M986.643,1767.071a.327.327,0,0,1-.159-.041l-2.947-1.639a.326.326,0,0,1-.052-.534l2.294-1.945a.326.326,0,0,1,.532.19l.653,3.584a.326.326,0,0,1-.321.385m-2.376-2.022,1.931,1.074-.428-2.349Z" transform="translate(-886.392 -1588.988)" fill="#12263f"/>
        <path id="Trazado_171087" data-name="Trazado 171087" d="M987.139,59.668a.326.326,0,0,1-.144-.033c-.134-.066-13.6-6.537-32.114-4.41a.326.326,0,0,1-.074-.649c18.717-2.15,32.341,4.406,32.476,4.472a.326.326,0,0,1-.144.62" transform="translate(-860.386 -48.804)" fill="#12263f"/>
        <path id="Trazado_171088" data-name="Trazado 171088" d="M1071.039,31.425a.326.326,0,0,1-.2-.065C1056.712,20.8,1038.98,22.677,1038.8,22.7a.326.326,0,1,1-.074-.649,49.16,49.16,0,0,1,10.818.327,46.85,46.85,0,0,1,21.689,8.461.327.327,0,0,1-.2.588" transform="translate(-936.03 -19.735)" fill="#12263f"/>
        <path id="Trazado_171089" data-name="Trazado 171089" d="M910.972,54.574a.326.326,0,0,1-.111-.019l-3.171-1.147a.326.326,0,0,1-.137-.519l1.953-2.286a.327.327,0,0,1,.556.1l1.218,3.433a.327.327,0,0,1-.308.436m-2.617-1.62,2.078.751-.8-2.25Z" transform="translate(-817.982 -45.509)" fill="#12263f"/>
        <path id="Trazado_171090" data-name="Trazado 171090" d="M1375.891,132.471a2.833,2.833,0,0,1-1.028-.194,2.88,2.88,0,0,1-1.609-1.56,2.956,2.956,0,0,1,1.474-3.86,2.816,2.816,0,0,1,2.189-.057,2.881,2.881,0,0,1,1.609,1.56,2.956,2.956,0,0,1-1.474,3.86,2.829,2.829,0,0,1-1.161.251m0-5.211a2.18,2.18,0,0,0-.894.193,2.3,2.3,0,0,0-1.142,3.006,2.233,2.233,0,0,0,1.246,1.21,2.167,2.167,0,0,0,1.685-.044,2.3,2.3,0,0,0,1.142-3.006,2.233,2.233,0,0,0-1.246-1.21,2.183,2.183,0,0,0-.791-.149" transform="translate(-1237.609 -114.12)" fill="#12263f"/>
      </g>
    </g>
  </g>
</svg>
