<svg xmlns="http://www.w3.org/2000/svg" xmlns:xlink="http://www.w3.org/1999/xlink" width="124" height="124" viewBox="0 0 124 124">
  <defs>
    <clipPath id="clip-path">
      <rect id="Rectángulo_43635" data-name="Rectángulo 43635" width="66.688" height="81.502" fill="none"/>
    </clipPath>
  </defs>
  <g id="Grupo_121604" data-name="Grupo 121604" transform="translate(-318 -1810.137)">
    <g id="Elipse_6775" data-name="Elipse 6775" transform="translate(318 1810.137)" fill="#fff" stroke="#2631a0" stroke-width="4">
      <circle cx="62" cy="62" r="62" stroke="none"/>
      <circle cx="62" cy="62" r="60" fill="none"/>
    </g>
    <g id="Grupo_121593" data-name="Grupo 121593" transform="translate(350.842 1828.688)">
      <rect id="Rectángulo_43632" data-name="Rectángulo 43632" width="52.574" height="67.438" transform="translate(2.146 11.291)" fill="#eeeffb"/>
      <g id="Grupo_121594" data-name="Grupo 121594">
        <g id="Grupo_121593-2" data-name="Grupo 121593" clip-path="url(#clip-path)">
          <path id="Trazado_171095" data-name="Trazado 171095" d="M292.458,257.97a14.933,14.933,0,1,1-14.933-14.933,14.933,14.933,0,0,1,14.933,14.933" transform="translate(-226.452 -209.588)" fill="#ffbcd0"/>
          <rect id="Rectángulo_43633" data-name="Rectángulo 43633" width="25.599" height="11.698" transform="translate(15.358 7.162)" fill="#fed563"/>
          <rect id="Rectángulo_43634" data-name="Rectángulo 43634" width="9.634" height="8.12" transform="translate(23.478 1.794)" fill="#fed563"/>
          <path id="Trazado_171096" data-name="Trazado 171096" d="M127.132,20.16H108.016a4.48,4.48,0,0,1-4.475-4.475V10.124a4.48,4.48,0,0,1,4.475-4.475h2.517a7.213,7.213,0,0,1,14.083,0h2.517a4.48,4.48,0,0,1,4.475,4.475v5.561a4.48,4.48,0,0,1-4.475,4.475M108.016,8.777a1.348,1.348,0,0,0-1.347,1.347v5.561a1.349,1.349,0,0,0,1.347,1.347h19.116a1.349,1.349,0,0,0,1.347-1.347V10.124a1.348,1.348,0,0,0-1.347-1.347h-3.91a1.564,1.564,0,0,1-1.564-1.564,4.084,4.084,0,1,0-8.168,0,1.564,1.564,0,0,1-1.564,1.564Z" transform="translate(-89.291 -0.001)"/>
          <path id="Trazado_171097" data-name="Trazado 171097" d="M48.745,136.494H7.82A7.828,7.828,0,0,1,0,128.675V71.588a7.828,7.828,0,0,1,7.82-7.82h7.994a1.564,1.564,0,0,1,1.564,1.564v5.344a1.348,1.348,0,0,0,1.347,1.347H37.841a1.348,1.348,0,0,0,1.347-1.347V65.332a1.564,1.564,0,0,1,1.564-1.564h7.994a7.829,7.829,0,0,1,7.82,7.82V84.1a1.564,1.564,0,1,1-3.128,0V71.588A4.7,4.7,0,0,0,48.745,66.9h-6.43v3.78a4.48,4.48,0,0,1-4.475,4.475H18.725a4.48,4.48,0,0,1-4.475-4.475V66.9H7.82a4.7,4.7,0,0,0-4.692,4.692v57.087a4.7,4.7,0,0,0,4.692,4.692H48.745a4.7,4.7,0,0,0,4.692-4.692v-7.43a1.564,1.564,0,1,1,3.128,0v7.43a7.828,7.828,0,0,1-7.82,7.82" transform="translate(0 -54.992)"/>
          <path id="Trazado_171098" data-name="Trazado 171098" d="M161.419,44.168h-6.756a1.564,1.564,0,1,1,0-3.128h6.756a1.564,1.564,0,1,1,0,3.128" transform="translate(-132.028 -35.392)"/>
          <path id="Trazado_171099" data-name="Trazado 171099" d="M93.093,193.161H54.123a1.564,1.564,0,1,1,0-3.128h38.97a1.564,1.564,0,1,1,0,3.128" transform="translate(-45.325 -163.879)"/>
          <path id="Trazado_171100" data-name="Trazado 171100" d="M79.386,249.981H54.123a1.564,1.564,0,0,1,0-3.128H79.386a1.564,1.564,0,0,1,0,3.128" transform="translate(-45.325 -212.879)"/>
          <path id="Trazado_171101" data-name="Trazado 171101" d="M76.866,306.8H54.123a1.564,1.564,0,0,1,0-3.128H76.866a1.564,1.564,0,1,1,0,3.128" transform="translate(-45.325 -261.879)"/>
          <path id="Trazado_171102" data-name="Trazado 171102" d="M76.866,363.621H54.123a1.564,1.564,0,0,1,0-3.128H76.866a1.564,1.564,0,1,1,0,3.128" transform="translate(-45.325 -310.879)"/>
          <path id="Trazado_171103" data-name="Trazado 171103" d="M79.386,420.441H54.122a1.564,1.564,0,1,1,0-3.128H79.386a1.564,1.564,0,1,1,0,3.128" transform="translate(-45.324 -359.879)"/>
          <path id="Trazado_171104" data-name="Trazado 171104" d="M93.1,477.261H54.127a1.564,1.564,0,0,1,0-3.128H93.1a1.564,1.564,0,0,1,0,3.128" transform="translate(-45.329 -408.879)"/>
          <path id="Trazado_171105" data-name="Trazado 171105" d="M271.731,265.049a15.727,15.727,0,1,1,15.727-15.727,15.745,15.745,0,0,1-15.727,15.727m0-28.326a12.6,12.6,0,1,0,12.6,12.6,12.613,12.613,0,0,0-12.6-12.6" transform="translate(-220.77 -201.446)"/>
          <path id="Trazado_171106" data-name="Trazado 171106" d="M323.092,262.257a1.565,1.565,0,0,1-1.039-.4l-5.966-5.3a1.564,1.564,0,0,1,2.078-2.338l4.695,4.173,12.42-16.6a1.564,1.564,0,1,1,2.5,1.875l-13.44,17.96a1.563,1.563,0,0,1-1.1.618,1.5,1.5,0,0,1-.157.008" transform="translate(-272.131 -207.977)"/>
          <path id="Trazado_171107" data-name="Trazado 171107" d="M334.969,374.793H324.7a1.564,1.564,0,1,1,0-3.128h10.267a1.564,1.564,0,1,1,0,3.128" transform="translate(-278.665 -320.513)"/>
        </g>
      </g>
    </g>
  </g>
</svg>
