<svg xmlns="http://www.w3.org/2000/svg" xmlns:xlink="http://www.w3.org/1999/xlink" width="124" height="124" viewBox="0 0 124 124">
  <defs>
    <clipPath id="clip-path">
      <rect id="Rectángulo_43571" data-name="Rectángulo 43571" width="90.98" height="67.707" fill="none"/>
    </clipPath>
  </defs>
  <g id="Grupo_121546" data-name="Grupo 121546" transform="translate(-528 -2312.271)">
    <g id="Elipse_6778" data-name="Elipse 6778" transform="translate(528 2312.271)" fill="#fff" stroke="#2631a0" stroke-width="4">
      <circle cx="62" cy="62" r="62" stroke="none"/>
      <circle cx="62" cy="62" r="60" fill="none"/>
    </g>
    <g id="Grupo_121545" data-name="Grupo 121545" transform="translate(547.51 2340.418)">
      <g id="Grupo_121545-2" data-name="Grupo 121545" clip-path="url(#clip-path)">
        <path id="Trazado_170719" data-name="Trazado 170719" d="M74.289,69.41H20.83A12.614,12.614,0,0,1,8.642,58.521L2.537,7.344A4.211,4.211,0,0,1,6.8,2.5H38.167a5.611,5.611,0,0,1,5.42,4.829,5.611,5.611,0,0,0,5.42,4.829H67.459A12.614,12.614,0,0,1,79.647,23.046l4.232,35.475a9.467,9.467,0,0,1-9.59,10.889" transform="translate(-2.104 -2.102)" fill="#febf10"/>
        <path id="Trazado_170720" data-name="Trazado 170720" d="M72.185,67.707H18.726A13.038,13.038,0,0,1,6.143,56.467L.038,5.289A4.715,4.715,0,0,1,1.156,1.54,4.656,4.656,0,0,1,4.7,0H36.063a6.031,6.031,0,0,1,5.815,5.178A5.213,5.213,0,0,0,46.9,9.657H65.355A13.037,13.037,0,0,1,77.939,20.9l4.232,35.475a10.111,10.111,0,0,1-2.393,8.038,9.976,9.976,0,0,1-7.593,3.3M4.7.8A3.87,3.87,0,0,0,1.752,2.069,3.929,3.929,0,0,0,.829,5.195L6.934,56.372A12.22,12.22,0,0,0,18.726,66.91H72.185a9.19,9.19,0,0,0,7-3.028,9.325,9.325,0,0,0,2.2-7.415L77.148,20.991A12.22,12.22,0,0,0,65.355,10.454H46.9a6.031,6.031,0,0,1-5.815-5.179A5.213,5.213,0,0,0,36.063.8Z" transform="translate(0)"/>
        <path id="Trazado_170721" data-name="Trazado 170721" d="M111.628,107H58.169c-6.014,0-10.889-4.341-10.889-9.7V52.533c0-2.823,2.57-5.111,5.74-5.111h63.757c3.17,0,5.74,2.288,5.74,5.111V97.307c0,5.355-4.875,9.7-10.889,9.7" transform="translate(-39.748 -39.867)" fill="#f2f2f2"/>
        <path id="Trazado_170722" data-name="Trazado 170722" d="M109.526,105.3H56.067c-6.224,0-11.287-4.528-11.287-10.094V50.432c0-3.038,2.754-5.51,6.138-5.51h63.757c3.385,0,6.138,2.472,6.138,5.51V95.205c0,5.566-5.063,10.094-11.287,10.094M50.918,45.719c-2.945,0-5.342,2.114-5.342,4.713V95.205c0,5.127,4.706,9.3,10.491,9.3h53.459c5.785,0,10.491-4.171,10.491-9.3V50.432c0-2.6-2.4-4.713-5.342-4.713Z" transform="translate(-37.646 -37.766)"/>
        <path id="Trazado_170723" data-name="Trazado 170723" d="M110.65,107.176H56.5c-6.092,0-10.139-4.354-9.041-9.724l9.349-45.7A5.973,5.973,0,0,1,62.6,47.422H77.774c2.7,0,4.5,1.928,4.024,4.312s1.321,4.312,4.024,4.312h35.286c6.092,0,10.139,4.354,9.04,9.724l-6.48,31.681c-1.1,5.37-6.927,9.724-13.019,9.724" transform="translate(-39.747 -39.867)" fill="#fec62c"/>
        <path id="Trazado_170724" data-name="Trazado 170724" d="M108.553,105.472H54.4a9.976,9.976,0,0,1-7.851-3.368,8.047,8.047,0,0,1-1.58-6.834l9.349-45.7A6.394,6.394,0,0,1,60.5,44.922H75.678A4.658,4.658,0,0,1,79.337,46.5a3.8,3.8,0,0,1,.755,3.214,3.012,3.012,0,0,0,.591,2.552,3.87,3.87,0,0,0,3.043,1.283h35.286a9.976,9.976,0,0,1,7.851,3.368,8.048,8.048,0,0,1,1.58,6.834l-6.481,31.681c-1.133,5.538-7.148,10.043-13.409,10.043M60.5,45.719a5.566,5.566,0,0,0-5.4,4.007l-9.349,45.7a7.265,7.265,0,0,0,1.417,6.171,9.187,9.187,0,0,0,7.234,3.075h54.15c5.9,0,11.568-4.219,12.629-9.406l6.48-31.681a7.265,7.265,0,0,0-1.417-6.171,9.188,9.188,0,0,0-7.234-3.075H83.726a4.659,4.659,0,0,1-3.659-1.575,3.8,3.8,0,0,1-.755-3.214A3.012,3.012,0,0,0,78.721,47a3.87,3.87,0,0,0-3.043-1.283Z" transform="translate(-37.65 -37.766)"/>
        <path id="Trazado_170725" data-name="Trazado 170725" d="M386.8,365.9H372.614a2,2,0,0,1-2-2v-.329a2,2,0,0,1,2-2H386.8a2,2,0,0,1,2,2v.329a2,2,0,0,1-2,2" transform="translate(-311.574 -303.971)" fill="#ffc108"/>
        <path id="Trazado_170726" data-name="Trazado 170726" d="M384.7,364.193H370.512a2.4,2.4,0,0,1-2.4-2.4v-.33a2.4,2.4,0,0,1,2.4-2.4H384.7a2.4,2.4,0,0,1,2.4,2.4v.33a2.4,2.4,0,0,1-2.4,2.4m-14.187-4.323a1.6,1.6,0,0,0-1.6,1.6v.33a1.6,1.6,0,0,0,1.6,1.6H384.7a1.6,1.6,0,0,0,1.6-1.6v-.33a1.6,1.6,0,0,0-1.6-1.6Z" transform="translate(-309.473 -301.869)"/>
        <path id="Trazado_170727" data-name="Trazado 170727" d="M393.295,326.464H379.108a2,2,0,0,1-2-2v-.329a2,2,0,0,1,2-2h14.187a2,2,0,0,1,2,2v.329a2,2,0,0,1-2,2" transform="translate(-317.034 -270.82)" fill="#ffc108"/>
        <path id="Trazado_170728" data-name="Trazado 170728" d="M391.193,324.76H377.006a2.4,2.4,0,0,1-2.4-2.4v-.329a2.4,2.4,0,0,1,2.4-2.4h14.187a2.4,2.4,0,0,1,2.4,2.4v.329a2.4,2.4,0,0,1-2.4,2.4m-14.187-4.324a1.6,1.6,0,0,0-1.6,1.6v.329a1.6,1.6,0,0,0,1.6,1.6h14.187a1.6,1.6,0,0,0,1.6-1.6v-.329a1.6,1.6,0,0,0-1.6-1.6Z" transform="translate(-314.932 -268.718)"/>
      </g>
    </g>
  </g>
</svg>
